tip.ufo
<glyph name="u30000" format="2">
  <advance width="1000"/>
  <unicode hex="30000"/>
  <outline>
    <contour>
      <point x="477" y="613" type="line"/>
      <point x="171" y="613" type="line"/>
      <point x="130" y="612"/>
      <point x="100" y="606" type="line"/>
      <point x="91" y="604"/>
      <point x="90" y="612" type="line"/>
      <point x="85" y="630"/>
      <point x="70" y="643" type="line"/>
      <point x="63" y="649"/>
      <point x="66" y="653" type="line"/>
      <point x="70" y="656"/>
      <point x="77" y="652" type="line"/>
      <point x="114" y="644"/>
      <point x="159" y="644" type="line"/>
      <point x="797" y="644" type="line"/>
      <point x="811" y="645"/>
      <point x="826" y="662" type="line"/>
      <point x="852" y="698" type="line"/>
      <point x="858" y="707"/>
      <point x="867" y="698" type="line"/>
      <point x="937" y="637"/>
      <point x="936" y="622" type="line"/>
      <point x="934" y="614"/>
      <point x="921" y="613" type="line"/>
      <point x="523" y="613" type="line"/>
      <point x="523" y="-51" type="line"/>
      <point x="626" y="-8"/>
      <point x="869" y="108" type="line"/>
      <point x="881" y="117"/>
      <point x="890" y="108" type="line"/>
      <point x="892" y="95"/>
      <point x="879" y="89" type="line"/>
      <point x="579" y="-83"/>
      <point x="479" y="-148" type="line"/>
      <point x="468" y="-154"/>
      <point x="464" y="-148" type="line"/>
      <point x="448" y="-125"/>
      <point x="422" y="-110" type="line"/>
      <point x="412" y="-104"/>
      <point x="412" y="-101" type="line"/>
      <point x="412" y="-97"/>
      <point x="421" y="-96" type="line"/>
      <point x="455" y="-87"/>
      <point x="465" y="-78" type="line"/>
      <point x="477" y="-66"/>
      <point x="477" y="-51" type="line"/>
    </contour>
  </outline>
</glyph>
<glyph name="u30001" format="2">
  <advance width="1000"/>
  <unicode hex="30001"/>
  <outline>
    <contour>
      <point x="476" y="248" type="line"/>
      <point x="114" y="249" type="line"/>
      <point x="103" y="249"/>
      <point x="70" y="246"/>
      <point x="62" y="246"/>
      <point x="54" y="245" type="line"/>
      <point x="42" y="243" type="line"/>
      <point x="22" y="285" type="line"/>
      <point x="35" y="283"/>
      <point x="57" y="280"/>
      <point x="70" y="278"/>
      <point x="107" y="276"/>
      <point x="114" y="276" type="line"/>
      <point x="476" y="276" type="line"/>
      <point x="476" y="508" type="line"/>
      <point x="212" y="508" type="line"/>
      <point x="186" y="508"/>
      <point x="181" y="508" type="line"/>
      <point x="163" y="506" type="line"/>
      <point x="151" y="505" type="line"/>
      <point x="139" y="503" type="line"/>
      <point x="120" y="545" type="line"/>
      <point x="133" y="542"/>
      <point x="140" y="542" type="line"/>
      <point x="160" y="539" type="line"/>
      <point x="187" y="536"/>
      <point x="191" y="535"/>
      <point x="215" y="536" type="line"/>
      <point x="476" y="536" type="line"/>
      <point x="476" y="688" type="line"/>
      <point x="475" y="729"/>
      <point x="473" y="758"/>
      <point x="473" y="762" type="line"/>
      <point x="472" y="768" type="line"/>
      <point x="479" y="767"/>
      <point x="511" y="762"/>
      <point x="553" y="752"/>
      <point x="573" y="742"/>
      <point x="578" y="734"/>
      <point x="577" y="729"/>
      <point x="574" y="723"/>
      <point x="547" y="713" type="line"/>
      <point x="523" y="708" type="line"/>
      <point x="523" y="536" type="line"/>
      <point x="738" y="536" type="line"/>
      <point x="794" y="595" type="line"/>
      <point x="864" y="537" type="line"/>
      <point x="877" y="526"/>
      <point x="874" y="508"/>
      <point x="863" y="508" type="line"/>
      <point x="523" y="508" type="line"/>
      <point x="523" y="276" type="line"/>
      <point x="836" y="276" type="line"/>
      <point x="893" y="337" type="line"/>
      <point x="965" y="276" type="line"/>
      <point x="977" y="266"/>
      <point x="972" y="248"/>
      <point x="961" y="248" type="line"/>
      <point x="523" y="248" type="line"/>
      <point x="523" y="-51" type="line"/>
      <point x="523" y="-59"/>
      <point x="526" y="-100"/>
      <point x="527" y="-126"/>
      <point x="527" y="-131" type="line"/>
      <point x="526" y="-140"/>
      <point x="522" y="-150"/>
      <point x="516" y="-155"/>
      <point x="504" y="-160"/>
      <point x="482" y="-162"/>
      <point x="476" y="-153"/>
      <point x="476" y="-146" type="line"/>
    </contour>
  </outline>
</glyph>
<glyph name="u30002" format="2">
  <advance width="1000"/>
  <unicode hex="30002"/>
  <outline>
    <contour>
      <point x="220" y="639" type="line"/>
      <point x="207" y="592" type="line"/>
      <point x="207" y="-43" type="line"/>
      <point x="207" y="-64"/>
      <point x="195" y="-76" type="line"/>
      <point x="180" y="-88"/>
      <point x="171" y="-88" type="line"/>
      <point x="158" y="-88"/>
      <point x="158" y="-61" type="line"/>
      <point x="158" y="-53"/>
      <point x="159" y="-31" type="line"/>
      <point x="160" y="14"/>
      <point x="160" y="51" type="line"/>
      <point x="160" y="567" type="line"/>
      <point x="160" y="664"/>
      <point x="158" y="686" type="line"/>
    </contour>
    <contour>
      <point x="23" y="323" type="line"/>
      <point x="61" y="313"/>
      <point x="122" y="313" type="line"/>
      <point x="836" y="313" type="line"/>
      <point x="887" y="377" type="line"/>
      <point x="930" y="345"/>
      <point x="967" y="316" type="line"/>
      <point x="977" y="311"/>
      <point x="977" y="303" type="line"/>
      <point x="977" y="290"/>
      <point x="959" y="290" type="line"/>
      <point x="122" y="290" type="line"/>
      <point x="63" y="288"/>
      <point x="41" y="284" type="line"/>
    </contour>
    <contour>
      <point x="796" y="692" type="line"/>
      <point x="831" y="666"/>
      <point x="861" y="641" type="line"/>
      <point x="869" y="636"/>
      <point x="869" y="630" type="line"/>
      <point x="869" y="618"/>
      <point x="855" y="618" type="line"/>
      <point x="188" y="618" type="line"/>
      <point x="188" y="642" type="line"/>
      <point x="753" y="642" type="line"/>
      <point x="796" y="692" type="line"/>
    </contour>
    <contour>
      <point x="796" y="41" type="line"/>
      <point x="831" y="15"/>
      <point x="861" y="-11" type="line"/>
      <point x="869" y="-16"/>
      <point x="869" y="-21" type="line"/>
      <point x="869" y="-33"/>
      <point x="855" y="-33" type="line"/>
      <point x="188" y="-33" type="line"/>
      <point x="188" y="-10" type="line"/>
      <point x="753" y="-10" type="line"/>
      <point x="796" y="41" type="line"/>
    </contour>
  </outline>
</glyph>
<glyph name="u30003" format="2">
  <advance width="1000"/>
  <unicode hex="30003"/>
  <outline>
    <contour>
      <point x="148" y="67" type="line"/>
      <point x="147" y="-37"/>
      <point x="148" y="-110" type="line"/>
      <point x="147" y="-125"/>
      <point x="111" y="-149" type="line"/>
      <point x="104" y="-153"/>
      <point x="100" y="-153" type="line"/>
      <point x="94" y="-152"/>
      <point x="95" y="-134" type="line"/>
      <point x="99" y="-36"/>
      <point x="102" y="67" type="line"/>
      <point x="102" y="479" type="line"/>
      <point x="101" y="511"/>
      <point x="95" y="556" type="line"/>
      <point x="93" y="565"/>
      <point x="96" y="566" type="line"/>
      <point x="97" y="567"/>
      <point x="141" y="532" type="line"/>
      <point x="804" y="532" type="line"/>
      <point x="813" y="532"/>
      <point x="813" y="533" type="line"/>
      <point x="838" y="565" type="line"/>
      <point x="840" y="569"/>
      <point x="844" y="569" type="line"/>
      <point x="848" y="569"/>
      <point x="852" y="565" type="line"/>
      <point x="882" y="541"/>
      <point x="905" y="517" type="line"/>
      <point x="912" y="509"/>
      <point x="896" y="503" type="line"/>
      <point x="873" y="493"/>
      <point x="870" y="489" type="line"/>
      <point x="867" y="483"/>
      <point x="867" y="477" type="line"/>
      <point x="867" y="-68" type="line"/>
      <point x="867" y="-102"/>
      <point x="850" y="-126" type="line"/>
      <point x="832" y="-150"/>
      <point x="806" y="-160" type="line"/>
      <point x="797" y="-164"/>
      <point x="794" y="-155" type="line"/>
      <point x="774" y="-105"/>
      <point x="701" y="-100" type="line"/>
      <point x="689" y="-98"/>
      <point x="690" y="-88" type="line"/>
      <point x="691" y="-79"/>
      <point x="704" y="-80" type="line"/>
      <point x="808" y="-85"/>
      <point x="813" y="-82" type="line"/>
      <point x="820" y="-78"/>
      <point x="820" y="-58" type="line"/>
      <point x="820" y="502" type="line"/>
      <point x="148" y="502" type="line"/>
    </contour>
    <contour>
      <point x="813" y="708" type="line"/>
      <point x="825" y="708"/>
      <point x="829" y="712" type="line"/>
      <point x="834" y="717"/>
      <point x="843" y="727" type="line"/>
      <point x="868" y="763" type="line"/>
      <point x="875" y="771"/>
      <point x="884" y="763" type="line"/>
      <point x="914" y="735"/>
      <point x="943" y="705" type="line"/>
      <point x="953" y="695"/>
      <point x="952" y="687" type="line"/>
      <point x="950" y="679"/>
      <point x="938" y="678" type="line"/>
      <point x="140" y="678" type="line"/>
      <point x="113" y="678"/>
      <point x="80" y="671" type="line"/>
      <point x="75" y="670"/>
      <point x="74" y="673" type="line"/>
      <point x="62" y="692"/>
      <point x="52" y="708" type="line"/>
      <point x="46" y="718"/>
      <point x="59" y="715" type="line"/>
      <point x="118" y="709"/>
      <point x="125" y="708" type="line"/>
    </contour>
  </outline>
</glyph>
<glyph name="u30004" format="2">
  <advance width="1000"/>
  <unicode hex="30004"/>
  <outline>
    <contour>
      <point x="798" y="740" type="line"/>
      <point x="837" y="712"/>
      <point x="870" y="685" type="line"/>
      <point x="879" y="679"/>
      <point x="879" y="673" type="line"/>
      <point x="879" y="660"/>
      <point x="863" y="660" type="line"/>
      <point x="109" y="660" type="line"/>
      <point x="109" y="684" type="line"/>
      <point x="750" y="684" type="line"/>
      <point x="798" y="740" type="line"/>
    </contour>
    <contour>
      <point x="78" y="728" type="line"/>
      <point x="143" y="684" type="line"/>
      <point x="133" y="660" type="line"/>
      <point x="133" y="-119" type="line"/>
      <point x="133" y="-132"/>
      <point x="116" y="-132" type="line"/>
      <point x="105" y="-132"/>
      <point x="89" y="-126" type="line"/>
      <point x="78" y="-117"/>
      <point x="78" y="-102" type="line"/>
      <point x="78" y="-85"/>
      <point x="81" y="-57" type="line"/>
      <point x="86" y="-34"/>
      <point x="86" y="39" type="line"/>
      <point x="86" y="658" type="line"/>
      <point x="86" y="698"/>
      <point x="78" y="728" type="line"/>
    </contour>
    <contour>
      <point x="838" y="23" type="line"/>
      <point x="878" y="-6"/>
      <point x="913" y="-34" type="line"/>
      <point x="922" y="-39"/>
      <point x="922" y="-46" type="line"/>
      <point x="922" y="-59"/>
      <point x="905" y="-59" type="line"/>
      <point x="109" y="-59" type="line"/>
      <point x="109" y="-35" type="line"/>
      <point x="789" y="-35" type="line"/>
      <point x="838" y="23" type="line"/>
    </contour>
    <contour>
      <point x="788" y="410" type="line"/>
      <point x="828" y="381"/>
      <point x="863" y="354" type="line"/>
      <point x="872" y="348"/>
      <point x="872" y="341" type="line"/>
      <point x="872" y="328"/>
      <point x="855" y="328" type="line"/>
      <point x="105" y="328" type="line"/>
      <point x="105" y="352" type="line"/>
      <point x="739" y="352" type="line"/>
      <point x="788" y="410" type="line"/>
    </contour>
  </outline>
</glyph>
<glyph name="u30005" format="2">
  <advance width="1000"/>
  <unicode hex="30005"/>
  <outline>
    <contour>
      <point x="802" y="-82"/>
      <point x="817" y="-64" type="line"/>
      <point x="843" y="-28" type="line"/>
      <point x="850" y="-20"/>
      <point x="858" y="-28" type="line"/>
      <point x="928" y="-90"/>
      <point x="927" y="-104" type="line"/>
      <point x="925" y="-112"/>
      <point x="912" y="-113" type="line"/>
      <point x="162" y="-113" type="line"/>
      <point x="121" y="-114"/>
      <point x="91" y="-120" type="line"/>
      <point x="82" y="-123"/>
      <point x="81" y="-114" type="line"/>
      <point x="76" y="-97"/>
      <point x="62" y="-84" type="line"/>
      <point x="54" y="-77"/>
      <point x="58" y="-73" type="line"/>
      <point x="62" y="-70"/>
      <point x="68" y="-74" type="line"/>
      <point x="105" y="-83"/>
      <point x="150" y="-83" type="line"/>
      <point x="788" y="-83" type="line"/>
    </contour>
    <contour>
      <point x="386" y="593" type="line"/>
      <point x="386" y="636" type="line"/>
      <point x="386" y="713"/>
      <point x="382" y="761" type="line"/>
      <point x="382" y="776"/>
      <point x="392" y="773" type="line"/>
      <point x="443" y="756"/>
      <point x="462" y="747" type="line"/>
      <point x="475" y="737"/>
      <point x="459" y="730" type="line"/>
      <point x="443" y="723"/>
      <point x="439" y="713" type="line"/>
      <point x="433" y="695"/>
      <point x="433" y="636" type="line"/>
      <point x="433" y="593" type="line"/>
      <point x="613" y="593" type="line"/>
      <point x="619" y="594"/>
      <point x="623" y="598" type="line"/>
      <point x="646" y="623" type="line"/>
      <point x="651" y="631"/>
      <point x="658" y="625" type="line"/>
      <point x="690" y="602"/>
      <point x="718" y="577" type="line"/>
      <point x="727" y="569"/>
      <point x="717" y="566" type="line"/>
      <point x="700" y="563"/>
      <point x="693" y="554" type="line"/>
      <point x="687" y="544"/>
      <point x="687" y="525" type="line"/>
      <point x="687" y="87" type="line"/>
      <point x="688" y="75"/>
      <point x="688" y="71" type="line"/>
      <point x="690" y="67"/>
      <point x="705" y="67" type="line"/>
      <point x="842" y="67" type="line"/>
      <point x="858" y="69"/>
      <point x="865" y="73" type="line"/>
      <point x="898" y="97"/>
      <point x="904" y="237" type="line"/>
      <point x="904" y="251"/>
      <point x="917" y="250" type="line"/>
      <point x="930" y="249"/>
      <point x="929" y="234" type="line"/>
      <point x="919" y="142"/>
      <point x="926" y="111" type="line"/>
      <point x="932" y="90"/>
      <point x="950" y="78" type="line"/>
      <point x="956" y="74"/>
      <point x="952" y="67" type="line"/>
      <point x="930" y="29"/>
      <point x="862" y="26" type="line"/>
      <point x="700" y="26" type="line"/>
      <point x="658" y="26"/>
      <point x="649" y="38" type="line"/>
      <point x="640" y="50"/>
      <point x="640" y="74" type="line"/>
      <point x="640" y="563" type="line"/>
      <point x="433" y="563" type="line"/>
      <point x="433" y="560" type="line"/>
      <point x="433" y="439"/>
      <point x="417" y="342" type="line"/>
      <point x="416" y="339"/>
      <point x="416" y="338" type="line"/>
      <point x="423" y="335"/>
      <point x="429" y="331" type="line"/>
      <point x="501" y="287"/>
      <point x="525" y="257" type="line"/>
      <point x="545" y="230"/>
      <point x="544" y="206" type="line"/>
      <point x="541" y="183"/>
      <point x="537" y="171" type="line"/>
      <point x="533" y="161"/>
      <point x="524" y="160" type="line"/>
      <point x="515" y="160"/>
      <point x="503" y="185" type="line"/>
      <point x="493" y="199"/>
      <point x="405" y="287" type="line"/>
      <point x="386" y="212"/>
      <point x="327" y="164" type="line"/>
      <point x="241" y="59"/>
      <point x="63" y="-16" type="line"/>
      <point x="50" y="-21"/>
      <point x="46" y="-13" type="line"/>
      <point x="43" y="-3"/>
      <point x="53" y="1" type="line"/>
      <point x="112" y="31"/>
      <point x="159" y="62" type="line"/>
      <point x="326" y="174"/>
      <point x="367" y="316" type="line"/>
      <point x="305" y="363"/>
      <point x="222" y="408" type="line"/>
      <point x="214" y="413"/>
      <point x="218" y="422" type="line"/>
      <point x="222" y="431"/>
      <point x="234" y="424" type="line"/>
      <point x="315" y="394"/>
      <point x="375" y="360" type="line"/>
      <point x="375" y="363"/>
      <point x="376" y="364" type="line"/>
      <point x="386" y="463"/>
      <point x="386" y="560" type="line"/>
      <point x="386" y="563" type="line"/>
      <point x="205" y="563" type="line"/>
      <point x="164" y="562"/>
      <point x="134" y="556" type="line"/>
      <point x="125" y="553"/>
      <point x="124" y="562" type="line"/>
      <point x="119" y="579"/>
      <point x="104" y="592" type="line"/>
      <point x="97" y="599"/>
      <point x="101" y="603" type="line"/>
      <point x="104" y="605"/>
      <point x="111" y="602" type="line"/>
      <point x="148" y="593"/>
      <point x="193" y="593" type="line"/>
    </contour>
  </outline>
</glyph>
<glyph name="u30006" format="2">
  <advance width="1000"/>
  <unicode hex="30006"/>
  <outline>
    <contour>
      <point x="267" y="479" type="line"/>
      <point x="309" y="390"/>
      <point x="328" y="317" type="line"/>
      <point x="353" y="243"/>
      <point x="362" y="186" type="line"/>
      <point x="372" y="124"/>
      <point x="372" y="90" type="line"/>
      <point x="372" y="42"/>
      <point x="343" y="42" type="line"/>
      <point x="317" y="42"/>
      <point x="317" y="78" type="line"/>
      <point x="317" y="174"/>
      <point x="311" y="227" type="line"/>
      <point x="306" y="281"/>
      <point x="291" y="338" type="line"/>
      <point x="279" y="400"/>
      <point x="250" y="474" type="line"/>
      <point x="267" y="479" type="line"/>
    </contour>
    <contour>
      <point x="699" y="503" type="line"/>
      <point x="751" y="493"/>
      <point x="790" y="476" type="line"/>
      <point x="801" y="469"/>
      <point x="801" y="461" type="line"/>
      <point x="801" y="452"/>
      <point x="783" y="448" type="line"/>
      <point x="765" y="440"/>
      <point x="750" y="438" type="line"/>
      <point x="712" y="293"/>
      <point x="669" y="177" type="line"/>
      <point x="632" y="50"/>
      <point x="589" y="-52" type="line"/>
      <point x="563" y="-44" type="line"/>
      <point x="595" y="41"/>
      <point x="623" y="145" type="line"/>
      <point x="647" y="237"/>
      <point x="674" y="356" type="line"/>
      <point x="698" y="461"/>
      <point x="699" y="503" type="line"/>
    </contour>
    <contour>
      <point x="23" y="-30" type="line"/>
      <point x="61" y="-40"/>
      <point x="122" y="-40" type="line"/>
      <point x="828" y="-40" type="line"/>
      <point x="882" y="27" type="line"/>
      <point x="928" y="-6"/>
      <point x="966" y="-36" type="line"/>
      <point x="977" y="-42"/>
      <point x="977" y="-50" type="line"/>
      <point x="977" y="-63"/>
      <point x="958" y="-63" type="line"/>
      <point x="122" y="-63" type="line"/>
      <point x="63" y="-65"/>
      <point x="41" y="-69" type="line"/>
    </contour>
    <contour>
      <point x="141" y="634" type="line"/>
      <point x="178" y="624"/>
      <point x="239" y="624" type="line"/>
      <point x="723" y="624" type="line"/>
      <point x="772" y="685" type="line"/>
      <point x="814" y="654"/>
      <point x="850" y="626" type="line"/>
      <point x="859" y="621"/>
      <point x="859" y="613" type="line"/>
      <point x="859" y="601"/>
      <point x="843" y="601" type="line"/>
      <point x="239" y="601" type="line"/>
      <point x="180" y="599"/>
      <point x="158" y="595" type="line"/>
    </contour>
  </outline>
</glyph>
<glyph name="u30007" format="2">
  <advance width="1000"/>
  <unicode hex="30007"/>
  <outline>
    <contour>
      <point x="369" y="687"/>
      <point x="373" y="690" type="line"/>
      <point x="378" y="695"/>
      <point x="387" y="705" type="line"/>
      <point x="412" y="741" type="line"/>
      <point x="419" y="750"/>
      <point x="428" y="741" type="line"/>
      <point x="458" y="714"/>
      <point x="487" y="684" type="line"/>
      <point x="497" y="674"/>
      <point x="496" y="665" type="line"/>
      <point x="494" y="657"/>
      <point x="481" y="656" type="line"/>
      <point x="248" y="656" type="line"/>
      <point x="177" y="390" type="line"/>
      <point x="313" y="390" type="line"/>
      <point x="323" y="391"/>
      <point x="327" y="395" type="line"/>
      <point x="350" y="426" type="line"/>
      <point x="355" y="436"/>
      <point x="364" y="426" type="line"/>
      <point x="400" y="396"/>
      <point x="422" y="371" type="line"/>
      <point x="427" y="364"/>
      <point x="420" y="361" type="line"/>
      <point x="392" y="348"/>
      <point x="391" y="347" type="line"/>
      <point x="387" y="344"/>
      <point x="387" y="338" type="line"/>
      <point x="380" y="264"/>
      <point x="371" y="168" type="line"/>
      <point x="357" y="45"/>
      <point x="343" y="-29" type="line"/>
      <point x="332" y="-80"/>
      <point x="308" y="-106" type="line"/>
      <point x="276" y="-142"/>
      <point x="234" y="-157" type="line"/>
      <point x="225" y="-164"/>
      <point x="221" y="-157" type="line"/>
      <point x="214" y="-146"/>
      <point x="195" y="-134" type="line"/>
      <point x="171" y="-115"/>
      <point x="98" y="-101" type="line"/>
      <point x="83" y="-96"/>
      <point x="84" y="-89" type="line"/>
      <point x="86" y="-81"/>
      <point x="98" y="-82" type="line"/>
      <point x="193" y="-92"/>
      <point x="234" y="-88" type="line"/>
      <point x="257" y="-85"/>
      <point x="267" y="-75" type="line"/>
      <point x="283" y="-61"/>
      <point x="293" y="-31" type="line"/>
      <point x="308" y="17"/>
      <point x="322" y="151" type="line"/>
      <point x="332" y="271"/>
      <point x="342" y="359" type="line"/>
      <point x="172" y="359" type="line"/>
      <point x="149" y="335" type="line"/>
      <point x="140" y="326"/>
      <point x="133" y="339" type="line"/>
      <point x="120" y="357"/>
      <point x="102" y="376" type="line"/>
      <point x="92" y="387"/>
      <point x="106" y="391" type="line"/>
      <point x="125" y="397"/>
      <point x="135" y="410" type="line"/>
      <point x="146" y="423"/>
      <point x="152" y="449" type="line"/>
      <point x="204" y="656" type="line"/>
      <point x="127" y="656" type="line"/>
      <point x="101" y="656"/>
      <point x="67" y="649" type="line"/>
      <point x="63" y="648"/>
      <point x="62" y="651" type="line"/>
      <point x="49" y="671"/>
      <point x="39" y="687" type="line"/>
      <point x="33" y="696"/>
      <point x="46" y="693" type="line"/>
      <point x="105" y="688"/>
      <point x="112" y="687" type="line"/>
      <point x="357" y="687" type="line"/>
    </contour>
    <contour>
      <point x="838" y="687"/>
      <point x="842" y="690" type="line"/>
      <point x="847" y="695"/>
      <point x="855" y="705" type="line"/>
      <point x="881" y="741" type="line"/>
      <point x="888" y="750"/>
      <point x="896" y="741" type="line"/>
      <point x="927" y="714"/>
      <point x="956" y="684" type="line"/>
      <point x="966" y="674"/>
      <point x="965" y="665" type="line"/>
      <point x="963" y="657"/>
      <point x="950" y="656" type="line"/>
      <point x="707" y="656" type="line"/>
      <point x="636" y="390" type="line"/>
      <point x="771" y="390" type="line"/>
      <point x="782" y="391"/>
      <point x="786" y="395" type="line"/>
      <point x="809" y="426" type="line"/>
      <point x="814" y="436"/>
      <point x="823" y="426" type="line"/>
      <point x="859" y="396"/>
      <point x="881" y="371" type="line"/>
      <point x="886" y="364"/>
      <point x="879" y="361" type="line"/>
      <point x="851" y="348"/>
      <point x="850" y="347" type="line"/>
      <point x="846" y="344"/>
      <point x="846" y="338" type="line"/>
      <point x="839" y="264"/>
      <point x="830" y="168" type="line"/>
      <point x="816" y="45"/>
      <point x="802" y="-29" type="line"/>
      <point x="791" y="-80"/>
      <point x="767" y="-106" type="line"/>
      <point x="735" y="-142"/>
      <point x="693" y="-157" type="line"/>
      <point x="684" y="-164"/>
      <point x="680" y="-157" type="line"/>
      <point x="673" y="-146"/>
      <point x="654" y="-134" type="line"/>
      <point x="630" y="-115"/>
      <point x="557" y="-101" type="line"/>
      <point x="542" y="-96"/>
      <point x="543" y="-89" type="line"/>
      <point x="545" y="-81"/>
      <point x="557" y="-82" type="line"/>
      <point x="652" y="-92"/>
      <point x="693" y="-88" type="line"/>
      <point x="716" y="-85"/>
      <point x="726" y="-75" type="line"/>
      <point x="742" y="-61"/>
      <point x="752" y="-31" type="line"/>
      <point x="767" y="17"/>
      <point x="781" y="151" type="line"/>
      <point x="791" y="271"/>
      <point x="801" y="359" type="line"/>
      <point x="631" y="359" type="line"/>
      <point x="608" y="335" type="line"/>
      <point x="599" y="326"/>
      <point x="592" y="339" type="line"/>
      <point x="579" y="357"/>
      <point x="561" y="376" type="line"/>
      <point x="551" y="387"/>
      <point x="565" y="391" type="line"/>
      <point x="584" y="397"/>
      <point x="594" y="410" type="line"/>
      <point x="604" y="423"/>
      <point x="611" y="449" type="line"/>
      <point x="663" y="656" type="line"/>
      <point x="605" y="656" type="line"/>
      <point x="579" y="656"/>
      <point x="546" y="649" type="line"/>
      <point x="541" y="648"/>
      <point x="540" y="651" type="line"/>
      <point x="527" y="671"/>
      <point x="518" y="687" type="line"/>
      <point x="512" y="696"/>
      <point x="524" y="693" type="line"/>
      <point x="584" y="688"/>
      <point x="591" y="687" type="line"/>
      <point x="826" y="687" type="line"/>
    </contour>
  </outline>
</glyph>
<glyph name="u30008" format="2">
  <advance width="1000"/>
  <unicode hex="30008"/>
  <outline>
    <contour>
      <point x="790" y="273" type="line"/>
      <point x="153" y="273" type="line"/>
      <point x="112" y="272"/>
      <point x="82" y="267" type="line"/>
      <point x="73" y="264"/>
      <point x="72" y="272" type="line"/>
      <point x="67" y="290"/>
      <point x="53" y="303" type="line"/>
      <point x="45" y="310"/>
      <point x="49" y="313" type="line"/>
      <point x="53" y="316"/>
      <point x="60" y="313" type="line"/>
      <point x="97" y="304"/>
      <point x="142" y="304" type="line"/>
      <point x="471" y="304" type="line"/>
      <point x="471" y="451" type="line"/>
      <point x="271" y="451" type="line"/>
      <point x="229" y="450"/>
      <point x="199" y="444" type="line"/>
      <point x="190" y="441"/>
      <point x="189" y="450" type="line"/>
      <point x="185" y="468"/>
      <point x="170" y="480" type="line"/>
      <point x="162" y="487"/>
      <point x="166" y="491" type="line"/>
      <point x="170" y="494"/>
      <point x="177" y="490" type="line"/>
      <point x="214" y="481"/>
      <point x="259" y="481" type="line"/>
      <point x="471" y="481" type="line"/>
      <point x="471" y="612" type="line"/>
      <point x="192" y="612" type="line"/>
      <point x="151" y="611"/>
      <point x="121" y="605" type="line"/>
      <point x="112" y="603"/>
      <point x="111" y="611" type="line"/>
      <point x="106" y="629"/>
      <point x="92" y="642" type="line"/>
      <point x="84" y="648"/>
      <point x="88" y="652" type="line"/>
      <point x="92" y="655"/>
      <point x="99" y="651" type="line"/>
      <point x="136" y="643"/>
      <point x="181" y="643" type="line"/>
      <point x="471" y="643" type="line"/>
      <point x="471" y="686" type="line"/>
      <point x="470" y="724"/>
      <point x="467" y="754" type="line"/>
      <point x="466" y="770"/>
      <point x="476" y="767" type="line"/>
      <point x="527" y="750"/>
      <point x="545" y="741" type="line"/>
      <point x="559" y="732"/>
      <point x="543" y="726" type="line"/>
      <point x="528" y="718"/>
      <point x="524" y="708" type="line"/>
      <point x="518" y="695"/>
      <point x="518" y="686" type="line"/>
      <point x="518" y="643" type="line"/>
      <point x="764" y="643" type="line"/>
      <point x="777" y="644"/>
      <point x="793" y="661" type="line"/>
      <point x="818" y="697" type="line"/>
      <point x="825" y="706"/>
      <point x="834" y="697" type="line"/>
      <point x="903" y="636"/>
      <point x="902" y="621" type="line"/>
      <point x="900" y="613"/>
      <point x="888" y="612" type="line"/>
      <point x="518" y="612" type="line"/>
      <point x="518" y="481" type="line"/>
      <point x="709" y="481" type="line"/>
      <point x="725" y="482"/>
      <point x="737" y="497" type="line"/>
      <point x="761" y="531" type="line"/>
      <point x="769" y="540"/>
      <point x="775" y="531" type="line"/>
      <point x="842" y="472"/>
      <point x="841" y="460" type="line"/>
      <point x="839" y="452"/>
      <point x="826" y="451" type="line"/>
      <point x="518" y="451" type="line"/>
      <point x="518" y="304" type="line"/>
      <point x="814" y="304" type="line"/>
      <point x="828" y="305"/>
      <point x="844" y="322" type="line"/>
      <point x="869" y="358" type="line"/>
      <point x="876" y="367"/>
      <point x="885" y="358" type="line"/>
      <point x="954" y="297"/>
      <point x="953" y="282" type="line"/>
      <point x="953" y="280"/>
      <point x="952" y="279" type="line"/>
      <point x="952" y="278"/>
      <point x="951" y="276" type="line"/>
      <point x="947" y="271"/>
      <point x="933" y="272" type="line"/>
      <point x="907" y="273"/>
      <point x="887" y="270" type="line"/>
      <point x="860" y="270"/>
      <point x="559" y="24" type="line"/>
      <point x="667" y="-35"/>
      <point x="696" y="-73" type="line"/>
      <point x="718" y="-99"/>
      <point x="717" y="-123" type="line"/>
      <point x="715" y="-146"/>
      <point x="711" y="-158" type="line"/>
      <point x="706" y="-169"/>
      <point x="699" y="-170" type="line"/>
      <point x="691" y="-171"/>
      <point x="685" y="-158" type="line"/>
      <point x="604" y="-32"/>
      <point x="349" y="95" type="line"/>
      <point x="340" y="100"/>
      <point x="344" y="108" type="line"/>
      <point x="348" y="117"/>
      <point x="360" y="111" type="line"/>
      <point x="465" y="73"/>
      <point x="529" y="47" type="line"/>
      <point x="603" y="130"/>
    </contour>
  </outline>
</glyph>
<glyph name="u30009" format="2">
  <advance width="1000"/>
  <unicode hex="30009"/>
  <outline>
    <contour>
      <point x="27" y="607" type="line"/>
      <point x="64" y="598"/>
      <point x="126" y="598" type="line"/>
      <point x="844" y="598" type="line"/>
      <point x="891" y="654" type="line"/>
      <point x="930" y="626"/>
      <point x="963" y="598" type="line"/>
      <point x="972" y="593"/>
      <point x="972" y="586" type="line"/>
      <point x="972" y="574"/>
      <point x="956" y="574" type="line"/>
      <point x="126" y="574" type="line"/>
      <point x="66" y="572"/>
      <point x="45" y="568" type="line"/>
    </contour>
    <contour>
      <point x="458" y="758" type="line"/>
      <point x="517" y="750"/>
      <point x="555" y="735" type="line"/>
      <point x="567" y="729"/>
      <point x="567" y="721" type="line"/>
      <point x="567" y="711"/>
      <point x="555" y="707" type="line"/>
      <point x="535" y="698"/>
      <point x="512" y="696" type="line"/>
      <point x="512" y="-76" type="line"/>
      <point x="512" y="-99"/>
      <point x="514" y="-106" type="line"/>
      <point x="515" y="-123"/>
      <point x="515" y="-135" type="line"/>
      <point x="515" y="-168"/>
      <point x="482" y="-168" type="line"/>
      <point x="457" y="-168"/>
      <point x="457" y="-150" type="line"/>
      <point x="457" y="-130"/>
      <point x="461" y="-98" type="line"/>
      <point x="465" y="-64"/>
      <point x="465" y="-39" type="line"/>
      <point x="465" y="679" type="line"/>
      <point x="465" y="731"/>
      <point x="458" y="758" type="line"/>
    </contour>
    <contour>
      <point x="855" y="389" type="line"/>
      <point x="855" y="365" type="line"/>
      <point x="129" y="365" type="line"/>
      <point x="129" y="389" type="line"/>
    </contour>
    <contour>
      <point x="855" y="65" type="line"/>
      <point x="855" y="42" type="line"/>
      <point x="129" y="42" type="line"/>
      <point x="129" y="65" type="line"/>
    </contour>
    <contour>
      <point x="98" y="438" type="line"/>
      <point x="162" y="396" type="line"/>
      <point x="152" y="372" type="line"/>
      <point x="152" y="-3" type="line"/>
      <point x="152" y="-16"/>
      <point x="136" y="-16" type="line"/>
      <point x="125" y="-16"/>
      <point x="108" y="-10" type="line"/>
      <point x="98" y="-1"/>
      <point x="98" y="15" type="line"/>
      <point x="98" y="30"/>
      <point x="101" y="59" type="line"/>
      <point x="105" y="81"/>
      <point x="105" y="152" type="line"/>
      <point x="105" y="370" type="line"/>
      <point x="105" y="409"/>
      <point x="98" y="438" type="line"/>
    </contour>
    <contour>
      <point x="854" y="438" type="line"/>
      <point x="893" y="417"/>
      <point x="909" y="396" type="line"/>
      <point x="917" y="390"/>
      <point x="917" y="384" type="line"/>
      <point x="917" y="374"/>
      <point x="879" y="352" type="line"/>
      <point x="879" y="152" type="line"/>
      <point x="879" y="81"/>
      <point x="882" y="59" type="line"/>
      <point x="884" y="30"/>
      <point x="884" y="15" type="line"/>
      <point x="884" y="-1"/>
      <point x="873" y="-10" type="line"/>
      <point x="857" y="-16"/>
      <point x="848" y="-16" type="line"/>
      <point x="832" y="-16"/>
      <point x="832" y="-3" type="line"/>
      <point x="832" y="372" type="line"/>
      <point x="822" y="396" type="line"/>
      <point x="854" y="438" type="line"/>
    </contour>
  </outline>
</glyph>
<glyph name="u3000A" format="2">
  <advance width="1000"/>
  <unicode hex="3000A"/>
  <outline>
    <contour>
      <point x="518" y="397" type="line"/>
      <point x="709" y="397" type="line"/>
      <point x="710" y="521"/>
      <point x="711" y="555" type="line"/>
      <point x="711" y="600" type="line"/>
      <point x="518" y="600" type="line"/>
    </contour>
    <contour>
      <point x="758" y="397" type="line"/>
      <point x="805" y="397" type="line"/>
      <point x="818" y="398"/>
      <point x="834" y="416" type="line"/>
      <point x="859" y="452" type="line"/>
      <point x="866" y="461"/>
      <point x="875" y="452" type="line"/>
      <point x="944" y="391"/>
      <point x="943" y="376" type="line"/>
      <point x="941" y="368"/>
      <point x="929" y="367" type="line"/>
      <point x="365" y="367" type="line"/>
      <point x="350" y="310"/>
      <point x="333" y="257" type="line"/>
      <point x="330" y="235"/>
      <point x="333" y="222" type="line"/>
      <point x="698" y="222" type="line"/>
      <point x="707" y="222"/>
      <point x="711" y="225" type="line"/>
      <point x="740" y="258" type="line"/>
      <point x="749" y="268"/>
      <point x="756" y="258" type="line"/>
      <point x="787" y="233"/>
      <point x="809" y="209" type="line"/>
      <point x="814" y="204"/>
      <point x="805" y="198" type="line"/>
      <point x="800" y="198"/>
      <point x="799" y="195" type="line"/>
      <point x="766" y="182"/>
      <point x="760" y="108" type="line"/>
      <point x="735" y="-30"/>
      <point x="653" y="-121" type="line"/>
      <point x="599" y="-165"/>
      <point x="587" y="-162" type="line"/>
      <point x="582" y="-162"/>
      <point x="581" y="-149" type="line"/>
      <point x="579" y="-134"/>
      <point x="570" y="-124" type="line"/>
      <point x="558" y="-108"/>
      <point x="478" y="-99" type="line"/>
      <point x="463" y="-99"/>
      <point x="464" y="-86" type="line"/>
      <point x="465" y="-76"/>
      <point x="480" y="-77" type="line"/>
      <point x="615" y="-85"/>
      <point x="625" y="-70" type="line"/>
      <point x="649" y="-47"/>
      <point x="674" y="-8" type="line"/>
      <point x="715" y="105"/>
      <point x="719" y="191" type="line"/>
      <point x="325" y="191" type="line"/>
      <point x="304" y="171" type="line"/>
      <point x="294" y="163"/>
      <point x="287" y="176" type="line"/>
      <point x="276" y="193"/>
      <point x="258" y="214" type="line"/>
      <point x="249" y="225"/>
      <point x="264" y="229" type="line"/>
      <point x="285" y="248"/>
      <point x="296" y="285" type="line"/>
      <point x="309" y="329"/>
      <point x="313" y="367" type="line"/>
      <point x="163" y="367" type="line"/>
      <point x="122" y="366"/>
      <point x="92" y="360" type="line"/>
      <point x="83" y="357"/>
      <point x="82" y="366" type="line"/>
      <point x="77" y="384"/>
      <point x="63" y="396" type="line"/>
      <point x="55" y="403"/>
      <point x="59" y="407" type="line"/>
      <point x="63" y="410"/>
      <point x="69" y="406" type="line"/>
      <point x="106" y="397"/>
      <point x="151" y="397" type="line"/>
      <point x="211" y="397" type="line"/>
      <point x="211" y="573" type="line"/>
      <point x="210" y="604"/>
      <point x="204" y="649" type="line"/>
      <point x="202" y="659"/>
      <point x="205" y="660" type="line"/>
      <point x="206" y="660"/>
      <point x="244" y="630" type="line"/>
      <point x="471" y="630" type="line"/>
      <point x="470" y="706"/>
      <point x="466" y="752" type="line"/>
      <point x="464" y="769"/>
      <point x="476" y="765" type="line"/>
      <point x="528" y="748"/>
      <point x="546" y="738" type="line"/>
      <point x="560" y="731"/>
      <point x="544" y="723" type="line"/>
      <point x="528" y="715"/>
      <point x="524" y="705" type="line"/>
      <point x="518" y="687"/>
      <point x="518" y="630" type="line"/>
      <point x="685" y="630" type="line"/>
      <point x="696" y="630"/>
      <point x="703" y="637" type="line"/>
      <point x="728" y="662" type="line"/>
      <point x="732" y="669"/>
      <point x="741" y="663" type="line"/>
      <point x="771" y="641"/>
      <point x="793" y="622" type="line"/>
      <point x="800" y="614"/>
      <point x="791" y="613" type="line"/>
      <point x="774" y="610"/>
      <point x="766" y="602" type="line"/>
      <point x="758" y="593"/>
      <point x="758" y="583" type="line"/>
    </contour>
    <contour>
      <point x="257" y="397" type="line"/>
      <point x="471" y="397" type="line"/>
      <point x="471" y="600" type="line"/>
      <point x="258" y="600" type="line"/>
      <point x="258" y="558" type="line"/>
      <point x="257" y="530"/>
    </contour>
  </outline>
</glyph>
<glyph name="u3000B" format="2">
  <advance width="1000"/>
  <unicode hex="3000B"/>
  <outline>
    <contour>
      <point x="449" y="736"/>
      <point x="459" y="733" type="line"/>
      <point x="511" y="716"/>
      <point x="529" y="707" type="line"/>
      <point x="542" y="697"/>
      <point x="526" y="690" type="line"/>
      <point x="511" y="683"/>
      <point x="507" y="673" type="line"/>
      <point x="500" y="655"/>
      <point x="500" y="596" type="line"/>
      <point x="500" y="493" type="line"/>
      <point x="500" y="362"/>
      <point x="477" y="272" type="line"/>
      <point x="454" y="126"/>
      <point x="321" y="17" type="line"/>
      <point x="311" y="9"/>
      <point x="305" y="16" type="line"/>
      <point x="300" y="23"/>
      <point x="309" y="30" type="line"/>
      <point x="360" y="86"/>
      <point x="396" y="146" type="line"/>
      <point x="453" y="247"/>
      <point x="453" y="493" type="line"/>
      <point x="453" y="596" type="line"/>
      <point x="453" y="673"/>
      <point x="449" y="721" type="line"/>
    </contour>
    <contour>
      <point x="565" y="683"/>
      <point x="577" y="679" type="line"/>
      <point x="630" y="662"/>
      <point x="647" y="652" type="line"/>
      <point x="661" y="646"/>
      <point x="646" y="637" type="line"/>
      <point x="630" y="629"/>
      <point x="626" y="619" type="line"/>
      <point x="619" y="601"/>
      <point x="619" y="541" type="line"/>
      <point x="619" y="366" type="line"/>
      <point x="619" y="252"/>
      <point x="623" y="175" type="line"/>
      <point x="624" y="167"/>
      <point x="618" y="163" type="line"/>
      <point x="577" y="137" type="line"/>
      <point x="564" y="127"/>
      <point x="565" y="147" type="line"/>
      <point x="571" y="277"/>
      <point x="572" y="366" type="line"/>
      <point x="572" y="541" type="line"/>
      <point x="571" y="619"/>
      <point x="567" y="666" type="line"/>
    </contour>
    <contour>
      <point x="257" y="411" type="line"/>
      <point x="257" y="3" type="line"/>
      <point x="258" y="-24"/>
      <point x="271" y="-37" type="line"/>
      <point x="283" y="-51"/>
      <point x="307" y="-51" type="line"/>
      <point x="830" y="-51" type="line"/>
      <point x="858" y="-51"/>
      <point x="874" y="-35" type="line"/>
      <point x="897" y="-17"/>
      <point x="924" y="112" type="line"/>
      <point x="927" y="126"/>
      <point x="937" y="125" type="line"/>
      <point x="946" y="123"/>
      <point x="945" y="110" type="line"/>
      <point x="936" y="27"/>
      <point x="944" y="4" type="line"/>
      <point x="951" y="-15"/>
      <point x="961" y="-21" type="line"/>
      <point x="968" y="-26"/>
      <point x="959" y="-33" type="line"/>
      <point x="902" y="-98"/>
      <point x="814" y="-98" type="line"/>
      <point x="306" y="-98" type="line"/>
      <point x="254" y="-98"/>
      <point x="233" y="-74" type="line"/>
      <point x="210" y="-50"/>
      <point x="210" y="-8" type="line"/>
      <point x="210" y="411" type="line"/>
      <point x="141" y="411" type="line"/>
      <point x="100" y="410"/>
      <point x="69" y="404" type="line"/>
      <point x="61" y="401"/>
      <point x="60" y="410" type="line"/>
      <point x="55" y="428"/>
      <point x="40" y="440" type="line"/>
      <point x="32" y="447"/>
      <point x="36" y="451" type="line"/>
      <point x="40" y="454"/>
      <point x="47" y="450" type="line"/>
      <point x="84" y="441"/>
      <point x="129" y="441" type="line"/>
      <point x="210" y="441" type="line"/>
      <point x="210" y="607" type="line"/>
      <point x="210" y="684"/>
      <point x="206" y="730" type="line"/>
      <point x="205" y="746"/>
      <point x="215" y="743" type="line"/>
      <point x="267" y="726"/>
      <point x="285" y="719" type="line"/>
      <point x="298" y="711"/>
      <point x="282" y="702" type="line"/>
      <point x="268" y="693"/>
      <point x="264" y="685" type="line"/>
      <point x="257" y="667"/>
      <point x="257" y="607" type="line"/>
      <point x="257" y="441" type="line"/>
      <point x="294" y="441" type="line"/>
      <point x="308" y="442"/>
      <point x="323" y="460" type="line"/>
      <point x="349" y="496" type="line"/>
      <point x="355" y="505"/>
      <point x="364" y="496" type="line"/>
      <point x="434" y="435"/>
      <point x="433" y="420" type="line"/>
      <point x="431" y="412"/>
      <point x="418" y="411" type="line"/>
    </contour>
    <contour>
      <point x="683" y="683"/>
      <point x="694" y="679" type="line"/>
      <point x="747" y="662"/>
      <point x="765" y="652" type="line"/>
      <point x="778" y="646"/>
      <point x="763" y="637" type="line"/>
      <point x="747" y="629"/>
      <point x="743" y="619" type="line"/>
      <point x="736" y="601"/>
      <point x="736" y="541" type="line"/>
      <point x="736" y="366" type="line"/>
      <point x="736" y="252"/>
      <point x="740" y="175" type="line"/>
      <point x="741" y="167"/>
      <point x="735" y="163" type="line"/>
      <point x="694" y="137" type="line"/>
      <point x="682" y="127"/>
      <point x="683" y="147" type="line"/>
      <point x="688" y="277"/>
      <point x="689" y="366" type="line"/>
      <point x="689" y="541" type="line"/>
      <point x="688" y="619"/>
      <point x="685" y="666" type="line"/>
    </contour>
    <contour>
      <point x="808" y="741"/>
      <point x="819" y="737" type="line"/>
      <point x="872" y="721"/>
      <point x="890" y="711" type="line"/>
      <point x="903" y="704"/>
      <point x="888" y="695" type="line"/>
      <point x="872" y="688"/>
      <point x="868" y="678" type="line"/>
      <point x="861" y="659"/>
      <point x="861" y="600" type="line"/>
      <point x="861" y="272" type="line"/>
      <point x="861" y="158"/>
      <point x="865" y="81" type="line"/>
      <point x="866" y="73"/>
      <point x="860" y="69" type="line"/>
      <point x="819" y="43" type="line"/>
      <point x="807" y="33"/>
      <point x="808" y="54" type="line"/>
      <point x="813" y="184"/>
      <point x="814" y="272" type="line"/>
      <point x="814" y="600" type="line"/>
      <point x="813" y="678"/>
      <point x="810" y="725" type="line"/>
    </contour>
  </outline>
</glyph>
<glyph name="u3000C" format="2">
  <advance width="1000"/>
  <unicode hex="3000C"/>
  <outline>
    <contour>
      <point x="461" y="352" type="line"/>
      <point x="258" y="352" type="line"/>
      <point x="257" y="313"/>
      <point x="253" y="307" type="line"/>
      <point x="219" y="280"/>
      <point x="213" y="279" type="line"/>
      <point x="205" y="280"/>
      <point x="206" y="299" type="line"/>
      <point x="210" y="358"/>
      <point x="211" y="419" type="line"/>
      <point x="211" y="517" type="line"/>
      <point x="210" y="552"/>
      <point x="206" y="597" type="line"/>
      <point x="204" y="608"/>
      <point x="208" y="609" type="line"/>
      <point x="211" y="610"/>
      <point x="218" y="604" type="line"/>
      <point x="229" y="591"/>
      <point x="253" y="573" type="line"/>
      <point x="669" y="573" type="line"/>
      <point x="681" y="573"/>
      <point x="688" y="580" type="line"/>
      <point x="712" y="605" type="line"/>
      <point x="717" y="612"/>
      <point x="726" y="606" type="line"/>
      <point x="756" y="584"/>
      <point x="777" y="565" type="line"/>
      <point x="784" y="558"/>
      <point x="775" y="557" type="line"/>
      <point x="759" y="554"/>
      <point x="750" y="545" type="line"/>
      <point x="742" y="536"/>
      <point x="742" y="526" type="line"/>
      <point x="742" y="522" type="line"/>
      <point x="743" y="417"/>
      <point x="750" y="320" type="line"/>
      <point x="750" y="308"/>
      <point x="740" y="302" type="line"/>
      <point x="696" y="276"/>
      <point x="692" y="277" type="line"/>
      <point x="688" y="279"/>
      <point x="689" y="295" type="line"/>
      <point x="691" y="319"/>
      <point x="692" y="352" type="line"/>
      <point x="508" y="352" type="line"/>
      <point x="508" y="218" type="line"/>
      <point x="769" y="218" type="line"/>
      <point x="777" y="218"/>
      <point x="778" y="219" type="line"/>
      <point x="803" y="251" type="line"/>
      <point x="805" y="255"/>
      <point x="809" y="255" type="line"/>
      <point x="813" y="255"/>
      <point x="816" y="251" type="line"/>
      <point x="847" y="227"/>
      <point x="870" y="202" type="line"/>
      <point x="877" y="194"/>
      <point x="861" y="188" type="line"/>
      <point x="838" y="179"/>
      <point x="835" y="175" type="line"/>
      <point x="832" y="169"/>
      <point x="832" y="162" type="line"/>
      <point x="832" y="-6" type="line"/>
      <point x="832" y="-39"/>
      <point x="814" y="-63" type="line"/>
      <point x="797" y="-88"/>
      <point x="771" y="-98" type="line"/>
      <point x="762" y="-102"/>
      <point x="758" y="-93" type="line"/>
      <point x="749" y="-72"/>
      <point x="728" y="-57" type="line"/>
      <point x="706" y="-41"/>
      <point x="658" y="-37" type="line"/>
      <point x="646" y="-35"/>
      <point x="647" y="-25" type="line"/>
      <point x="648" y="-17"/>
      <point x="661" y="-18" type="line"/>
      <point x="772" y="-22"/>
      <point x="778" y="-20" type="line"/>
      <point x="785" y="-16"/>
      <point x="785" y="5" type="line"/>
      <point x="785" y="188" type="line"/>
      <point x="508" y="188" type="line"/>
      <point x="508" y="69" type="line"/>
      <point x="508" y="-46"/>
      <point x="512" y="-123" type="line"/>
      <point x="511" y="-132"/>
      <point x="467" y="-161" type="line"/>
      <point x="453" y="-170"/>
      <point x="454" y="-149" type="line"/>
      <point x="461" y="-20"/>
      <point x="461" y="69" type="line"/>
      <point x="461" y="188" type="line"/>
      <point x="184" y="188" type="line"/>
      <point x="184" y="62" type="line"/>
      <point x="183" y="6"/>
      <point x="184" y="-67" type="line"/>
      <point x="183" y="-82"/>
      <point x="146" y="-106" type="line"/>
      <point x="139" y="-110"/>
      <point x="135" y="-110" type="line"/>
      <point x="129" y="-109"/>
      <point x="130" y="-91" type="line"/>
      <point x="134" y="7"/>
      <point x="137" y="62" type="line"/>
      <point x="137" y="161" type="line"/>
      <point x="136" y="192"/>
      <point x="130" y="237" type="line"/>
      <point x="128" y="247"/>
      <point x="131" y="248" type="line"/>
      <point x="132" y="248"/>
      <point x="170" y="218" type="line"/>
      <point x="461" y="218" type="line"/>
    </contour>
    <contour>
      <point x="258" y="382" type="line"/>
      <point x="693" y="382" type="line"/>
      <point x="694" y="416"/>
      <point x="695" y="494" type="line"/>
      <point x="695" y="543" type="line"/>
      <point x="258" y="543" type="line"/>
    </contour>
    <contour>
      <point x="813" y="708" type="line"/>
      <point x="825" y="708"/>
      <point x="829" y="712" type="line"/>
      <point x="834" y="717"/>
      <point x="843" y="727" type="line"/>
      <point x="868" y="763" type="line"/>
      <point x="875" y="771"/>
      <point x="884" y="763" type="line"/>
      <point x="914" y="735"/>
      <point x="943" y="705" type="line"/>
      <point x="953" y="695"/>
      <point x="952" y="687" type="line"/>
      <point x="950" y="679"/>
      <point x="938" y="678" type="line"/>
      <point x="140" y="678" type="line"/>
      <point x="113" y="678"/>
      <point x="80" y="671" type="line"/>
      <point x="75" y="670"/>
      <point x="74" y="673" type="line"/>
      <point x="62" y="692"/>
      <point x="52" y="708" type="line"/>
      <point x="46" y="718"/>
      <point x="59" y="715" type="line"/>
      <point x="118" y="709"/>
      <point x="125" y="708" type="line"/>
    </contour>
  </outline>
</glyph>
<glyph name="u3000D" format="2">
  <advance width="1000"/>
  <unicode hex="3000D"/>
  <outline>
    <contour>
      <point x="777" y="329"/>
      <point x="781" y="342" type="line"/>
      <point x="782" y="347"/>
      <point x="778" y="348" type="line"/>
      <point x="772" y="350"/>
      <point x="771" y="346" type="line"/>
      <point x="741" y="272"/>
      <point x="656" y="143" type="line"/>
      <point x="548" y="-16"/>
      <point x="351" y="-133" type="line"/>
      <point x="341" y="-136"/>
      <point x="337" y="-129" type="line"/>
      <point x="332" y="-118"/>
      <point x="342" y="-111" type="line"/>
      <point x="392" y="-76"/>
      <point x="436" y="-46" type="line"/>
      <point x="579" y="67"/>
      <point x="714" y="340" type="line"/>
      <point x="572" y="340" type="line"/>
      <point x="571" y="339"/>
      <point x="571" y="338" type="line"/>
      <point x="563" y="326"/>
      <point x="559" y="320" type="line"/>
      <point x="555" y="313"/>
      <point x="549" y="319" type="line"/>
      <point x="536" y="337"/>
      <point x="509" y="353" type="line"/>
      <point x="502" y="356"/>
      <point x="509" y="362" type="line"/>
      <point x="517" y="367"/>
      <point x="526" y="374" type="line"/>
      <point x="532" y="379"/>
      <point x="536" y="385" type="line"/>
      <point x="569" y="522"/>
      <point x="568" y="576" type="line"/>
      <point x="568" y="587"/>
      <point x="575" y="584" type="line"/>
      <point x="605" y="570"/>
      <point x="642" y="549" type="line"/>
      <point x="650" y="544"/>
      <point x="650" y="538" type="line"/>
      <point x="650" y="533"/>
      <point x="639" y="529" type="line"/>
      <point x="622" y="523"/>
      <point x="615" y="509" type="line"/>
      <point x="613" y="504"/>
      <point x="607" y="480" type="line"/>
      <point x="594" y="421"/>
      <point x="587" y="392" type="line"/>
      <point x="582" y="380"/>
      <point x="581" y="370" type="line"/>
      <point x="774" y="370" type="line"/>
      <point x="774" y="648" type="line"/>
      <point x="582" y="648" type="line"/>
      <point x="541" y="647"/>
      <point x="511" y="642" type="line"/>
      <point x="503" y="639"/>
      <point x="500" y="647" type="line"/>
      <point x="496" y="665"/>
      <point x="481" y="677" type="line"/>
      <point x="475" y="684"/>
      <point x="478" y="688" type="line"/>
      <point x="481" y="690"/>
      <point x="488" y="687" type="line"/>
      <point x="525" y="679"/>
      <point x="570" y="679" type="line"/>
      <point x="845" y="679" type="line"/>
      <point x="851" y="679"/>
      <point x="856" y="686" type="line"/>
      <point x="892" y="726" type="line"/>
      <point x="898" y="732"/>
      <point x="905" y="726" type="line"/>
      <point x="931" y="700"/>
      <point x="948" y="679" type="line"/>
      <point x="959" y="665"/>
      <point x="952" y="655" type="line"/>
      <point x="947" y="649"/>
      <point x="935" y="648" type="line"/>
      <point x="821" y="648" type="line"/>
      <point x="821" y="370" type="line"/>
      <point x="841" y="370" type="line"/>
      <point x="854" y="370"/>
      <point x="863" y="382" type="line"/>
      <point x="897" y="422" type="line"/>
      <point x="906" y="430"/>
      <point x="913" y="423" type="line"/>
      <point x="938" y="396"/>
      <point x="957" y="371" type="line"/>
      <point x="968" y="356"/>
      <point x="965" y="348" type="line"/>
      <point x="962" y="341"/>
      <point x="947" y="340" type="line"/>
      <point x="821" y="340" type="line"/>
      <point x="821" y="-74" type="line"/>
      <point x="820" y="-115"/>
      <point x="805" y="-134" type="line"/>
      <point x="786" y="-154"/>
      <point x="748" y="-164" type="line"/>
      <point x="737" y="-168"/>
      <point x="737" y="-159" type="line"/>
      <point x="736" y="-132"/>
      <point x="727" y="-125" type="line"/>
      <point x="706" y="-110"/>
      <point x="649" y="-95" type="line"/>
      <point x="640" y="-93"/>
      <point x="641" y="-83" type="line"/>
      <point x="642" y="-75"/>
      <point x="659" y="-75" type="line"/>
      <point x="755" y="-81"/>
      <point x="761" y="-75" type="line"/>
      <point x="773" y="-62"/>
      <point x="774" y="-37" type="line"/>
      <point x="774" y="312" type="line"/>
    </contour>
    <contour>
      <point x="125" y="637" type="line"/>
      <point x="99" y="637"/>
      <point x="65" y="630" type="line"/>
      <point x="61" y="629"/>
      <point x="60" y="632" type="line"/>
      <point x="47" y="651"/>
      <point x="37" y="667" type="line"/>
      <point x="31" y="677"/>
      <point x="44" y="674" type="line"/>
      <point x="104" y="668"/>
      <point x="110" y="667" type="line"/>
      <point x="336" y="667" type="line"/>
      <point x="348" y="667"/>
      <point x="352" y="671" type="line"/>
      <point x="356" y="676"/>
      <point x="365" y="686" type="line"/>
      <point x="391" y="722" type="line"/>
      <point x="397" y="730"/>
      <point x="406" y="722" type="line"/>
      <point x="437" y="694"/>
      <point x="466" y="664" type="line"/>
      <point x="476" y="654"/>
      <point x="475" y="646" type="line"/>
      <point x="473" y="638"/>
      <point x="460" y="637" type="line"/>
      <point x="315" y="637" type="line"/>
      <point x="299" y="560"/>
      <point x="274" y="488" type="line"/>
      <point x="301" y="479"/>
      <point x="319" y="468" type="line"/>
      <point x="332" y="461"/>
      <point x="319" y="455" type="line"/>
      <point x="290" y="440"/>
      <point x="287" y="434" type="line"/>
      <point x="283" y="425"/>
      <point x="283" y="365" type="line"/>
      <point x="283" y="73" type="line"/>
      <point x="283" y="-49"/>
      <point x="287" y="-132" type="line"/>
      <point x="287" y="-141"/>
      <point x="280" y="-142" type="line"/>
      <point x="237" y="-159" type="line"/>
      <point x="229" y="-161"/>
      <point x="229" y="-146" type="line"/>
      <point x="235" y="-16"/>
      <point x="236" y="73" type="line"/>
      <point x="236" y="365" type="line"/>
      <point x="235" y="384"/>
      <point x="235" y="396" type="line"/>
      <point x="227" y="382"/>
      <point x="220" y="366" type="line"/>
      <point x="161" y="260"/>
      <point x="59" y="134" type="line"/>
      <point x="49" y="122"/>
      <point x="42" y="128" type="line"/>
      <point x="31" y="136"/>
      <point x="38" y="146" type="line"/>
      <point x="135" y="276"/>
      <point x="180" y="373" type="line"/>
      <point x="244" y="510"/>
      <point x="263" y="637" type="line"/>
    </contour>
    <contour>
      <point x="314" y="406"/>
      <point x="320" y="413" type="line"/>
      <point x="326" y="421"/>
      <point x="338" y="411" type="line"/>
      <point x="419" y="342"/>
      <point x="460" y="283" type="line"/>
      <point x="489" y="243"/>
      <point x="486" y="222" type="line"/>
      <point x="484" y="198"/>
      <point x="469" y="187" type="line"/>
      <point x="453" y="175"/>
      <point x="446" y="175" type="line"/>
      <point x="439" y="176"/>
      <point x="436" y="197" type="line"/>
      <point x="417" y="257"/>
      <point x="391" y="304" type="line"/>
      <point x="360" y="362"/>
      <point x="321" y="398" type="line"/>
    </contour>
  </outline>
</glyph>
<glyph name="u3000E" format="2">
  <advance width="1000"/>
  <unicode hex="3000E"/>
  <outline>
    <contour>
      <point x="153" y="395"/>
      <point x="120" y="388" type="line"/>
      <point x="115" y="387"/>
      <point x="114" y="390" type="line"/>
      <point x="102" y="409"/>
      <point x="92" y="425" type="line"/>
      <point x="86" y="435"/>
      <point x="99" y="432" type="line"/>
      <point x="158" y="426"/>
      <point x="165" y="425" type="line"/>
      <point x="467" y="425" type="line"/>
      <point x="467" y="686" type="line"/>
      <point x="466" y="724"/>
      <point x="463" y="754" type="line"/>
      <point x="462" y="770"/>
      <point x="472" y="767" type="line"/>
      <point x="524" y="750"/>
      <point x="546" y="738" type="line"/>
      <point x="555" y="733"/>
      <point x="546" y="728" type="line"/>
      <point x="524" y="712"/>
      <point x="521" y="708" type="line"/>
      <point x="514" y="701"/>
      <point x="514" y="686" type="line"/>
      <point x="514" y="624" type="line"/>
      <point x="689" y="624" type="line"/>
      <point x="701" y="624"/>
      <point x="705" y="628" type="line"/>
      <point x="710" y="633"/>
      <point x="719" y="643" type="line"/>
      <point x="744" y="679" type="line"/>
      <point x="751" y="688"/>
      <point x="760" y="679" type="line"/>
      <point x="790" y="651"/>
      <point x="819" y="621" type="line"/>
      <point x="829" y="611"/>
      <point x="828" y="603" type="line"/>
      <point x="826" y="595"/>
      <point x="813" y="594" type="line"/>
      <point x="514" y="594" type="line"/>
      <point x="514" y="425" type="line"/>
      <point x="764" y="425" type="line"/>
      <point x="775" y="425"/>
      <point x="779" y="429" type="line"/>
      <point x="784" y="434"/>
      <point x="793" y="443" type="line"/>
      <point x="818" y="479" type="line"/>
      <point x="825" y="488"/>
      <point x="834" y="479" type="line"/>
      <point x="864" y="452"/>
      <point x="894" y="422" type="line"/>
      <point x="903" y="412"/>
      <point x="902" y="403" type="line"/>
      <point x="900" y="396"/>
      <point x="888" y="395" type="line"/>
      <point x="180" y="395" type="line"/>
    </contour>
    <contour>
      <point x="225" y="268" type="line"/>
      <point x="224" y="306"/>
      <point x="221" y="336" type="line"/>
      <point x="220" y="352"/>
      <point x="229" y="349" type="line"/>
      <point x="282" y="332"/>
      <point x="304" y="320" type="line"/>
      <point x="313" y="315"/>
      <point x="304" y="310" type="line"/>
      <point x="282" y="294"/>
      <point x="278" y="290" type="line"/>
      <point x="271" y="283"/>
      <point x="271" y="268" type="line"/>
      <point x="271" y="187" type="line"/>
      <point x="350" y="187" type="line"/>
      <point x="355" y="187"/>
      <point x="361" y="193" type="line"/>
      <point x="396" y="233" type="line"/>
      <point x="403" y="240"/>
      <point x="410" y="233" type="line"/>
      <point x="436" y="208"/>
      <point x="453" y="187" type="line"/>
      <point x="464" y="173"/>
      <point x="457" y="163" type="line"/>
      <point x="452" y="157"/>
      <point x="439" y="156" type="line"/>
      <point x="271" y="156" type="line"/>
      <point x="271" y="-48" type="line"/>
      <point x="378" y="-23"/>
      <point x="466" y="-5" type="line"/>
      <point x="480" y="-2"/>
      <point x="481" y="-11" type="line"/>
      <point x="483" y="-21"/>
      <point x="468" y="-25" type="line"/>
      <point x="280" y="-86"/>
      <point x="159" y="-116" type="line"/>
      <point x="139" y="-123"/>
      <point x="104" y="-147" type="line"/>
      <point x="98" y="-151"/>
      <point x="94" y="-151" type="line"/>
      <point x="90" y="-152"/>
      <point x="87" y="-144" type="line"/>
      <point x="78" y="-118"/>
      <point x="58" y="-98" type="line"/>
      <point x="47" y="-87"/>
      <point x="48" y="-84" type="line"/>
      <point x="50" y="-80"/>
      <point x="60" y="-80" type="line"/>
      <point x="134" y="-74"/>
      <point x="225" y="-57" type="line"/>
    </contour>
    <contour>
      <point x="446" y="-121"/>
      <point x="413" y="-128" type="line"/>
      <point x="408" y="-129"/>
      <point x="407" y="-126" type="line"/>
      <point x="395" y="-107"/>
      <point x="385" y="-92" type="line"/>
      <point x="379" y="-82"/>
      <point x="392" y="-85" type="line"/>
      <point x="451" y="-90"/>
      <point x="458" y="-91" type="line"/>
      <point x="658" y="-91" type="line"/>
      <point x="658" y="268" type="line"/>
      <point x="657" y="306"/>
      <point x="654" y="336" type="line"/>
      <point x="653" y="352"/>
      <point x="663" y="349" type="line"/>
      <point x="716" y="332"/>
      <point x="737" y="320" type="line"/>
      <point x="746" y="315"/>
      <point x="737" y="310" type="line"/>
      <point x="716" y="294"/>
      <point x="712" y="290" type="line"/>
      <point x="705" y="283"/>
      <point x="705" y="268" type="line"/>
      <point x="705" y="190" type="line"/>
      <point x="787" y="190" type="line"/>
      <point x="793" y="190"/>
      <point x="799" y="197" type="line"/>
      <point x="834" y="237" type="line"/>
      <point x="841" y="244"/>
      <point x="848" y="237" type="line"/>
      <point x="873" y="212"/>
      <point x="891" y="190" type="line"/>
      <point x="901" y="177"/>
      <point x="895" y="167" type="line"/>
      <point x="890" y="161"/>
      <point x="877" y="160" type="line"/>
      <point x="705" y="160" type="line"/>
      <point x="705" y="-91" type="line"/>
      <point x="838" y="-91" type="line"/>
      <point x="844" y="-91"/>
      <point x="850" y="-84" type="line"/>
      <point x="885" y="-44" type="line"/>
      <point x="892" y="-37"/>
      <point x="898" y="-44" type="line"/>
      <point x="924" y="-69"/>
      <point x="941" y="-91" type="line"/>
      <point x="952" y="-104"/>
      <point x="945" y="-114" type="line"/>
      <point x="940" y="-120"/>
      <point x="928" y="-121" type="line"/>
      <point x="473" y="-121" type="line"/>
    </contour>
  </outline>
</glyph>
<glyph name="u3000F" format="2">
  <advance width="1000"/>
  <unicode hex="3000F"/>
  <outline>
    <contour>
      <point x="800" y="188"/>
      <point x="871" y="276" type="line"/>
      <point x="875" y="281"/>
      <point x="879" y="281" type="line"/>
      <point x="888" y="280"/>
      <point x="929" y="219" type="line"/>
      <point x="937" y="207"/>
      <point x="933" y="203" type="line"/>
      <point x="929" y="199"/>
      <point x="923" y="202" type="line"/>
      <point x="896" y="217"/>
      <point x="854" y="182" type="line"/>
      <point x="801" y="143"/>
      <point x="709" y="93" type="line"/>
      <point x="741" y="37"/>
      <point x="803" y="-16" type="line"/>
      <point x="840" y="-47"/>
      <point x="960" y="-95" type="line"/>
      <point x="966" y="-97"/>
      <point x="965" y="-105" type="line"/>
      <point x="963" y="-114"/>
      <point x="951" y="-113" type="line"/>
      <point x="910" y="-109"/>
      <point x="884" y="-147" type="line"/>
      <point x="881" y="-152"/>
      <point x="872" y="-146" type="line"/>
      <point x="837" y="-124"/>
      <point x="811" y="-104" type="line"/>
      <point x="664" y="10"/>
      <point x="588" y="317" type="line"/>
      <point x="587" y="319"/>
      <point x="587" y="320" type="line"/>
      <point x="495" y="320" type="line"/>
      <point x="495" y="-61" type="line"/>
      <point x="578" y="-13"/>
      <point x="654" y="18" type="line"/>
      <point x="669" y="24"/>
      <point x="673" y="15" type="line"/>
      <point x="675" y="4"/>
      <point x="662" y="-2" type="line"/>
      <point x="555" y="-64"/>
      <point x="458" y="-164" type="line"/>
      <point x="450" y="-173"/>
      <point x="446" y="-161" type="line"/>
      <point x="438" y="-140"/>
      <point x="420" y="-122" type="line"/>
      <point x="412" y="-114"/>
      <point x="419" y="-110" type="line"/>
      <point x="448" y="-85"/>
      <point x="448" y="-63" type="line"/>
      <point x="448" y="621" type="line"/>
      <point x="448" y="675"/>
      <point x="441" y="720" type="line"/>
      <point x="440" y="731"/>
      <point x="444" y="732" type="line"/>
      <point x="449" y="734"/>
      <point x="456" y="726" type="line"/>
      <point x="466" y="714"/>
      <point x="484" y="698" type="line"/>
      <point x="780" y="698" type="line"/>
      <point x="786" y="698"/>
      <point x="789" y="702" type="line"/>
      <point x="807" y="729" type="line"/>
      <point x="813" y="737"/>
      <point x="820" y="730" type="line"/>
      <point x="849" y="712"/>
      <point x="876" y="690" type="line"/>
      <point x="882" y="685"/>
      <point x="881" y="679" type="line"/>
      <point x="878" y="673"/>
      <point x="868" y="672" type="line"/>
      <point x="856" y="670"/>
      <point x="851" y="660" type="line"/>
      <point x="847" y="651"/>
      <point x="847" y="639" type="line"/>
      <point x="847" y="385" type="line"/>
      <point x="847" y="354"/>
      <point x="853" y="300" type="line"/>
      <point x="854" y="288"/>
      <point x="846" y="284" type="line"/>
      <point x="812" y="265"/>
      <point x="805" y="265" type="line"/>
      <point x="800" y="266"/>
      <point x="800" y="275" type="line"/>
      <point x="800" y="320" type="line"/>
      <point x="611" y="320" type="line"/>
      <point x="658" y="179"/>
      <point x="696" y="114" type="line"/>
    </contour>
    <contour>
      <point x="495" y="488" type="line"/>
      <point x="495" y="351" type="line"/>
      <point x="800" y="351" type="line"/>
      <point x="800" y="488" type="line"/>
    </contour>
    <contour>
      <point x="800" y="519" type="line"/>
      <point x="800" y="668" type="line"/>
      <point x="495" y="668" type="line"/>
      <point x="495" y="519" type="line"/>
    </contour>
    <contour>
      <point x="329" y="53"/>
      <point x="403" y="82" type="line"/>
      <point x="416" y="88"/>
      <point x="419" y="79" type="line"/>
      <point x="423" y="68"/>
      <point x="408" y="62" type="line"/>
      <point x="253" y="-21"/>
      <point x="150" y="-65" type="line"/>
      <point x="111" y="-82"/>
      <point x="100" y="-101" type="line"/>
      <point x="95" y="-109"/>
      <point x="91" y="-110" type="line"/>
      <point x="86" y="-112"/>
      <point x="82" y="-104" type="line"/>
      <point x="68" y="-80"/>
      <point x="47" y="-64" type="line"/>
      <point x="34" y="-56"/>
      <point x="35" y="-53" type="line"/>
      <point x="36" y="-48"/>
      <point x="46" y="-47" type="line"/>
      <point x="115" y="-30"/>
      <point x="194" y="0.0" type="line"/>
      <point x="194" y="650" type="line"/>
      <point x="193" y="688"/>
      <point x="190" y="719" type="line"/>
      <point x="189" y="734"/>
      <point x="199" y="731" type="line"/>
      <point x="251" y="715"/>
      <point x="269" y="706" type="line"/>
      <point x="282" y="697"/>
      <point x="267" y="690" type="line"/>
      <point x="252" y="683"/>
      <point x="248" y="673" type="line"/>
      <point x="241" y="660"/>
      <point x="241" y="650" type="line"/>
      <point x="241" y="419" type="line"/>
      <point x="304" y="419" type="line"/>
      <point x="310" y="419"/>
      <point x="315" y="426" type="line"/>
      <point x="351" y="466" type="line"/>
      <point x="357" y="473"/>
      <point x="364" y="466" type="line"/>
      <point x="390" y="440"/>
      <point x="407" y="419" type="line"/>
      <point x="418" y="405"/>
      <point x="411" y="396" type="line"/>
      <point x="406" y="390"/>
      <point x="394" y="389" type="line"/>
      <point x="241" y="389" type="line"/>
      <point x="241" y="18" type="line"/>
    </contour>
  </outline>
</glyph>
<glyph name="u30010" format="2">
  <advance width="1000"/>
  <unicode hex="30010"/>
  <outline>
    <contour>
      <point x="146" y="450" type="line"/>
      <point x="144" y="445"/>
      <point x="144" y="442" type="line"/>
      <point x="133" y="413" type="line"/>
      <point x="120" y="380"/>
      <point x="116" y="372" type="line"/>
      <point x="90" y="322" type="line"/>
      <point x="69" y="330" type="line"/>
      <point x="78" y="354"/>
      <point x="89" y="387"/>
      <point x="97" y="414"/>
      <point x="106" y="460"/>
      <point x="117" y="520"/>
      <point x="120" y="537" type="line"/>
      <point x="123" y="567" type="line"/>
      <point x="129" y="614" type="line"/>
      <point x="176" y="603" type="line"/>
      <point x="198" y="596"/>
      <point x="218" y="587"/>
      <point x="218" y="563"/>
      <point x="199" y="560" type="line"/>
      <point x="176" y="556" type="line"/>
      <point x="165" y="517"/>
      <point x="162" y="506" type="line"/>
      <point x="155" y="478" type="line"/>
      <point x="266" y="478" type="line"/>
      <point x="266" y="579" type="line"/>
      <point x="266" y="594"/>
      <point x="265" y="609" type="line"/>
      <point x="263" y="634" type="line"/>
      <point x="261" y="658" type="line"/>
      <point x="312" y="648" type="line"/>
      <point x="331" y="645"/>
      <point x="359" y="635"/>
      <point x="359" y="609"/>
      <point x="337" y="604" type="line"/>
      <point x="312" y="599" type="line"/>
      <point x="312" y="478" type="line"/>
      <point x="387" y="478" type="line"/>
      <point x="432" y="522" type="line"/>
      <point x="488" y="475" type="line"/>
      <point x="500" y="465"/>
      <point x="491" y="450"/>
      <point x="483" y="450" type="line"/>
      <point x="312" y="450" type="line"/>
      <point x="312" y="273" type="line"/>
      <point x="416" y="273" type="line"/>
      <point x="465" y="320" type="line"/>
      <point x="522" y="276" type="line"/>
      <point x="536" y="265"/>
      <point x="529" y="246"/>
      <point x="517" y="246" type="line"/>
      <point x="400" y="246" type="line"/>
      <point x="400" y="-35" type="line"/>
      <point x="400" y="-57"/>
      <point x="418" y="-74"/>
      <point x="446" y="-79"/>
      <point x="461" y="-79" type="line"/>
      <point x="810" y="-79" type="line"/>
      <point x="821" y="-79"/>
      <point x="873" y="-75"/>
      <point x="894" y="-62"/>
      <point x="906" y="-34"/>
      <point x="910" y="-15" type="line"/>
      <point x="927" y="95" type="line"/>
      <point x="947" y="93" type="line"/>
      <point x="941" y="-18" type="line"/>
      <point x="940" y="-29"/>
      <point x="944" y="-49"/>
      <point x="952" y="-63"/>
      <point x="968" y="-74"/>
      <point x="974" y="-84"/>
      <point x="968" y="-94" type="line"/>
      <point x="963" y="-102"/>
      <point x="930" y="-111"/>
      <point x="911" y="-115"/>
      <point x="883" y="-118"/>
      <point x="835" y="-120"/>
      <point x="813" y="-120" type="line"/>
      <point x="476" y="-120" type="line"/>
      <point x="438" y="-120"/>
      <point x="399" y="-116"/>
      <point x="369" y="-98"/>
      <point x="355" y="-69"/>
      <point x="355" y="-53" type="line"/>
      <point x="355" y="246" type="line"/>
      <point x="230" y="246" type="line"/>
      <point x="230" y="232"/>
      <point x="230" y="227" type="line"/>
      <point x="230" y="209" type="line"/>
      <point x="229" y="191"/>
      <point x="225" y="102"/>
      <point x="211" y="25"/>
      <point x="172" y="-57"/>
      <point x="120" y="-111"/>
      <point x="75" y="-143"/>
      <point x="62" y="-149" type="line"/>
      <point x="36" y="-164" type="line"/>
      <point x="25" y="-146" type="line"/>
      <point x="47" y="-130"/>
      <point x="75" y="-107"/>
      <point x="102" y="-84"/>
      <point x="138" y="-39"/>
      <point x="165" y="24"/>
      <point x="178" y="83"/>
      <point x="183" y="140"/>
      <point x="186" y="202"/>
      <point x="187" y="221" type="line"/>
      <point x="187" y="234" type="line"/>
      <point x="187" y="246" type="line"/>
      <point x="154" y="246" type="line"/>
      <point x="131" y="246"/>
      <point x="117" y="245" type="line"/>
      <point x="94" y="243" type="line"/>
      <point x="69" y="241" type="line"/>
      <point x="45" y="287" type="line"/>
      <point x="66" y="282"/>
      <point x="85" y="279"/>
      <point x="143" y="273"/>
      <point x="158" y="273" type="line"/>
      <point x="266" y="273" type="line"/>
      <point x="266" y="450" type="line"/>
    </contour>
    <contour>
      <point x="833" y="704" type="line"/>
      <point x="890" y="760" type="line"/>
      <point x="954" y="706" type="line"/>
      <point x="970" y="693"/>
      <point x="964" y="676"/>
      <point x="950" y="676" type="line"/>
      <point x="146" y="676" type="line"/>
      <point x="120" y="676"/>
      <point x="100" y="675"/>
      <point x="76" y="674" type="line"/>
      <point x="52" y="672" type="line"/>
      <point x="32" y="717" type="line"/>
      <point x="49" y="712"/>
      <point x="61" y="710"/>
      <point x="130" y="703"/>
      <point x="134" y="704" type="line"/>
    </contour>
    <contour>
      <point x="833" y="194" type="line"/>
      <point x="826" y="218"/>
      <point x="818" y="240"/>
      <point x="793" y="304"/>
      <point x="787" y="315" type="line"/>
      <point x="769" y="349" type="line"/>
      <point x="757" y="371" type="line"/>
      <point x="774" y="382" type="line"/>
      <point x="789" y="362"/>
      <point x="815" y="326"/>
      <point x="848" y="272"/>
      <point x="877" y="217"/>
      <point x="889" y="187"/>
      <point x="900" y="139"/>
      <point x="896" y="107"/>
      <point x="880" y="90"/>
      <point x="858" y="95"/>
      <point x="849" y="114"/>
      <point x="846" y="132" type="line"/>
      <point x="839" y="171" type="line"/>
      <point x="826" y="167"/>
      <point x="788" y="155"/>
      <point x="639" y="118"/>
      <point x="622" y="114" type="line"/>
      <point x="580" y="105" type="line"/>
      <point x="578" y="85" type="line"/>
      <point x="576" y="72"/>
      <point x="562" y="67"/>
      <point x="549" y="79"/>
      <point x="541" y="96" type="line"/>
      <point x="515" y="146" type="line"/>
      <point x="524" y="154"/>
      <point x="537" y="167"/>
      <point x="556" y="193"/>
      <point x="584" y="249"/>
      <point x="609" y="310"/>
      <point x="641" y="400"/>
      <point x="657" y="460"/>
      <point x="666" y="497"/>
      <point x="681" y="576"/>
      <point x="682" y="580" type="line"/>
      <point x="688" y="616" type="line"/>
      <point x="741" y="595" type="line"/>
      <point x="756" y="589"/>
      <point x="782" y="573"/>
      <point x="779" y="552"/>
      <point x="763" y="551" type="line"/>
      <point x="732" y="547" type="line"/>
      <point x="722" y="511"/>
      <point x="709" y="466"/>
      <point x="677" y="368"/>
      <point x="643" y="285"/>
      <point x="590" y="189"/>
      <point x="574" y="170" type="line"/>
      <point x="560" y="150" type="line"/>
      <point x="599" y="154"/>
      <point x="657" y="162"/>
      <point x="768" y="181"/>
      <point x="789" y="186" type="line"/>
      <point x="833" y="194" type="line"/>
    </contour>
  </outline>
</glyph>
<glyph name="u30011" format="2">
  <advance width="1000"/>
  <unicode hex="30011"/>
  <outline>
    <contour>
      <point x="792" y="-111"/>
      <point x="773" y="-133" type="line"/>
      <point x="754" y="-154"/>
      <point x="729" y="-161" type="line"/>
      <point x="718" y="-165"/>
      <point x="714" y="-156" type="line"/>
      <point x="706" y="-145"/>
      <point x="676" y="-129" type="line"/>
      <point x="645" y="-112"/>
      <point x="585" y="-103" type="line"/>
      <point x="573" y="-102"/>
      <point x="574" y="-90" type="line"/>
      <point x="574" y="-83"/>
      <point x="587" y="-83" type="line"/>
      <point x="627" y="-85"/>
      <point x="681" y="-89" type="line"/>
      <point x="734" y="-92"/>
      <point x="744" y="-85" type="line"/>
      <point x="747" y="-81"/>
      <point x="747" y="-68" type="line"/>
      <point x="747" y="382" type="line"/>
      <point x="759" y="431"/>
      <point x="766" y="479" type="line"/>
      <point x="767" y="483"/>
      <point x="763" y="484" type="line"/>
      <point x="757" y="485"/>
      <point x="756" y="481" type="line"/>
      <point x="749" y="453"/>
      <point x="742" y="421" type="line"/>
      <point x="700" y="321"/>
      <point x="641" y="238" type="line"/>
      <point x="569" y="141"/>
      <point x="474" y="39" type="line"/>
      <point x="461" y="29"/>
      <point x="454" y="35" type="line"/>
      <point x="444" y="46"/>
      <point x="454" y="56" type="line"/>
      <point x="545" y="159"/>
      <point x="599" y="247" type="line"/>
      <point x="678" y="372"/>
      <point x="711" y="492" type="line"/>
      <point x="554" y="492" type="line"/>
      <point x="527" y="492"/>
      <point x="494" y="485" type="line"/>
      <point x="489" y="484"/>
      <point x="488" y="487" type="line"/>
      <point x="476" y="506"/>
      <point x="466" y="521" type="line"/>
      <point x="460" y="531"/>
      <point x="473" y="528" type="line"/>
      <point x="532" y="523"/>
      <point x="539" y="522" type="line"/>
      <point x="747" y="522" type="line"/>
      <point x="747" y="623" type="line"/>
      <point x="746" y="701"/>
      <point x="743" y="749" type="line"/>
      <point x="740" y="765"/>
      <point x="750" y="762" type="line"/>
      <point x="806" y="742"/>
      <point x="824" y="732" type="line"/>
      <point x="836" y="725"/>
      <point x="821" y="718" type="line"/>
      <point x="804" y="710"/>
      <point x="800" y="701" type="line"/>
      <point x="794" y="683"/>
      <point x="794" y="623" type="line"/>
      <point x="794" y="522" type="line"/>
      <point x="849" y="522" type="line"/>
      <point x="854" y="522"/>
      <point x="860" y="529" type="line"/>
      <point x="896" y="569" type="line"/>
      <point x="902" y="576"/>
      <point x="909" y="569" type="line"/>
      <point x="935" y="544"/>
      <point x="952" y="522" type="line"/>
      <point x="963" y="509"/>
      <point x="956" y="499" type="line"/>
      <point x="951" y="493"/>
      <point x="938" y="492" type="line"/>
      <point x="794" y="492" type="line"/>
      <point x="794" y="-79" type="line"/>
    </contour>
    <contour>
      <point x="378" y="3"/>
      <point x="365" y="23" type="line"/>
      <point x="343" y="60"/>
      <point x="305" y="99" type="line"/>
      <point x="301" y="105"/>
      <point x="305" y="111" type="line"/>
      <point x="311" y="115"/>
      <point x="320" y="108" type="line"/>
      <point x="398" y="56"/>
      <point x="435" y="11" type="line"/>
      <point x="460" y="-14"/>
      <point x="460" y="-44" type="line"/>
      <point x="461" y="-63"/>
      <point x="443" y="-79" type="line"/>
      <point x="431" y="-102"/>
      <point x="419" y="-101" type="line"/>
      <point x="409" y="-99"/>
      <point x="408" y="-80" type="line"/>
      <point x="402" y="-58"/>
      <point x="396" y="-43" type="line"/>
      <point x="333" y="-58"/>
      <point x="227" y="-93" type="line"/>
      <point x="138" y="-115"/>
      <point x="81" y="-134" type="line"/>
      <point x="70" y="-139"/>
      <point x="67" y="-132" type="line"/>
      <point x="57" y="-107"/>
      <point x="44" y="-83" type="line"/>
      <point x="39" y="-73"/>
      <point x="49" y="-72" type="line"/>
      <point x="67" y="-66"/>
      <point x="82" y="-51" type="line"/>
      <point x="101" y="-31"/>
      <point x="127" y="31" type="line"/>
      <point x="180" y="118"/>
      <point x="214" y="250" type="line"/>
      <point x="131" y="250" type="line"/>
      <point x="104" y="250"/>
      <point x="71" y="243" type="line"/>
      <point x="66" y="242"/>
      <point x="65" y="245" type="line"/>
      <point x="53" y="265"/>
      <point x="43" y="280" type="line"/>
      <point x="37" y="290"/>
      <point x="50" y="287" type="line"/>
      <point x="109" y="281"/>
      <point x="116" y="280" type="line"/>
      <point x="230" y="280" type="line"/>
      <point x="230" y="438" type="line"/>
      <point x="143" y="438" type="line"/>
      <point x="116" y="438"/>
      <point x="83" y="431" type="line"/>
      <point x="78" y="430"/>
      <point x="77" y="433" type="line"/>
      <point x="64" y="452"/>
      <point x="55" y="468" type="line"/>
      <point x="49" y="478"/>
      <point x="62" y="475" type="line"/>
      <point x="121" y="469"/>
      <point x="128" y="468" type="line"/>
      <point x="230" y="468" type="line"/>
      <point x="230" y="639" type="line"/>
      <point x="157" y="621"/>
      <point x="74" y="612" type="line"/>
      <point x="58" y="610"/>
      <point x="57" y="620" type="line"/>
      <point x="56" y="631"/>
      <point x="68" y="632" type="line"/>
      <point x="194" y="662"/>
      <point x="283" y="692" type="line"/>
      <point x="338" y="719"/>
      <point x="389" y="745" type="line"/>
      <point x="400" y="752"/>
      <point x="404" y="745" type="line"/>
      <point x="423" y="714"/>
      <point x="450" y="689" type="line"/>
      <point x="458" y="682"/>
      <point x="455" y="676" type="line"/>
      <point x="452" y="672"/>
      <point x="439" y="675" type="line"/>
      <point x="418" y="680"/>
      <point x="395" y="677" type="line"/>
      <point x="355" y="673"/>
      <point x="296" y="654" type="line"/>
      <point x="284" y="652"/>
      <point x="277" y="649" type="line"/>
      <point x="277" y="468" type="line"/>
      <point x="344" y="468" type="line"/>
      <point x="355" y="468"/>
      <point x="359" y="471" type="line"/>
      <point x="365" y="475"/>
      <point x="372" y="483" type="line"/>
      <point x="396" y="518" type="line"/>
      <point x="403" y="526"/>
      <point x="410" y="518" type="line"/>
      <point x="438" y="492"/>
      <point x="466" y="465" type="line"/>
      <point x="477" y="453"/>
      <point x="476" y="446" type="line"/>
      <point x="474" y="438"/>
      <point x="461" y="438" type="line"/>
      <point x="277" y="438" type="line"/>
      <point x="277" y="280" type="line"/>
      <point x="375" y="280" type="line"/>
      <point x="387" y="280"/>
      <point x="391" y="283" type="line"/>
      <point x="396" y="287"/>
      <point x="403" y="296" type="line"/>
      <point x="427" y="330" type="line"/>
      <point x="435" y="339"/>
      <point x="441" y="330" type="line"/>
      <point x="470" y="305"/>
      <point x="497" y="277" type="line"/>
      <point x="508" y="266"/>
      <point x="507" y="259" type="line"/>
      <point x="505" y="251"/>
      <point x="492" y="250" type="line"/>
      <point x="255" y="250" type="line"/>
      <point x="278" y="238"/>
      <point x="300" y="226" type="line"/>
      <point x="306" y="222"/>
      <point x="307" y="218" type="line"/>
      <point x="307" y="214"/>
      <point x="300" y="211" type="line"/>
      <point x="279" y="202"/>
      <point x="265" y="192" type="line"/>
      <point x="253" y="184"/>
      <point x="246" y="168" type="line"/>
      <point x="198" y="53"/>
      <point x="140" y="-45" type="line"/>
      <point x="133" y="-56"/>
      <point x="134" y="-59" type="line"/>
      <point x="135" y="-63"/>
      <point x="152" y="-60" type="line"/>
      <point x="254" y="-36"/>
      <point x="388" y="-22" type="line"/>
    </contour>
  </outline>
</glyph>
<glyph name="u30012" format="2">
  <advance width="1000"/>
  <unicode hex="30012"/>
  <outline>
    <contour>
      <point x="825" y="596" type="line"/>
      <point x="825" y="572" type="line"/>
      <point x="169" y="572" type="line"/>
      <point x="169" y="596" type="line"/>
    </contour>
    <contour>
      <point x="848" y="156" type="line"/>
      <point x="848" y="133" type="line"/>
      <point x="137" y="133" type="line"/>
      <point x="137" y="156" type="line"/>
    </contour>
    <contour>
      <point x="27" y="271" type="line"/>
      <point x="64" y="261"/>
      <point x="126" y="261" type="line"/>
      <point x="840" y="261" type="line"/>
      <point x="888" y="319" type="line"/>
      <point x="928" y="290"/>
      <point x="963" y="262" type="line"/>
      <point x="972" y="256"/>
      <point x="972" y="249" type="line"/>
      <point x="972" y="237"/>
      <point x="955" y="237" type="line"/>
      <point x="126" y="237" type="line"/>
      <point x="66" y="235"/>
      <point x="45" y="231" type="line"/>
    </contour>
    <contour>
      <point x="183" y="318" type="line"/>
      <point x="183" y="302"/>
      <point x="166" y="302" type="line"/>
      <point x="155" y="302"/>
      <point x="139" y="308" type="line"/>
      <point x="128" y="316"/>
      <point x="128" y="332" type="line"/>
      <point x="128" y="349"/>
      <point x="131" y="377" type="line"/>
      <point x="136" y="399"/>
      <point x="136" y="426" type="line"/>
      <point x="136" y="479" type="line"/>
      <point x="136" y="570" type="line"/>
      <point x="136" y="610"/>
      <point x="128" y="640" type="line"/>
      <point x="128" y="640" type="line"/>
      <point x="192" y="596" type="line"/>
      <point x="183" y="572" type="line"/>
      <point x="183" y="439" type="line"/>
    </contour>
    <contour>
      <point x="515" y="570" type="line"/>
      <point x="504" y="537"/>
      <point x="478" y="498"/>
      <point x="445" y="473" type="line"/>
      <point x="394" y="441"/>
      <point x="347" y="429" type="line"/>
      <point x="283" y="405"/>
      <point x="223" y="396" type="line"/>
      <point x="209" y="416" type="line"/>
      <point x="296" y="437"/>
      <point x="345" y="459" type="line"/>
      <point x="392" y="476"/>
      <point x="428" y="508" type="line"/>
      <point x="451" y="536"/>
      <point x="463" y="571"/>
      <point x="464" y="607" type="line"/>
      <point x="465" y="638"/>
      <point x="465" y="684" type="line"/>
      <point x="465" y="684" type="line"/>
      <point x="516" y="684" type="line"/>
      <point x="516" y="631"/>
      <point x="517" y="605" type="line"/>
    </contour>
    <contour>
      <point x="618" y="59" type="line"/>
      <point x="683" y="41"/>
      <point x="718" y="24" type="line"/>
      <point x="740" y="12"/>
      <point x="757" y="-5" type="line"/>
      <point x="765" y="-20"/>
      <point x="767" y="-33" type="line"/>
      <point x="765" y="-52"/>
      <point x="746" y="-52" type="line"/>
      <point x="727" y="-50"/>
      <point x="713" y="-42" type="line"/>
      <point x="705" y="-34"/>
      <point x="684" y="-21" type="line"/>
      <point x="645" y="7"/>
      <point x="605" y="23" type="line"/>
      <point x="570" y="40" type="line"/>
      <point x="533" y="57"/>
      <point x="464" y="72" type="line"/>
      <point x="466" y="93" type="line"/>
      <point x="466" y="93" type="line"/>
      <point x="532" y="85"/>
      <point x="586" y="68" type="line"/>
    </contour>
    <contour>
      <point x="853" y="368" type="line"/>
      <point x="853" y="351"/>
      <point x="837" y="333" type="line"/>
      <point x="824" y="317"/>
      <point x="800" y="308" type="line"/>
      <point x="778" y="298"/>
      <point x="763" y="298" type="line"/>
      <point x="763" y="319"/>
      <point x="753" y="330" type="line"/>
      <point x="742" y="342"/>
      <point x="716" y="351" type="line"/>
      <point x="687" y="360"/>
      <point x="649" y="363" type="line"/>
      <point x="649" y="390" type="line"/>
      <point x="718" y="375"/>
      <point x="772" y="375" type="line"/>
      <point x="793" y="375"/>
      <point x="798" y="381" type="line"/>
      <point x="806" y="386"/>
      <point x="806" y="400" type="line"/>
      <point x="806" y="463" type="line"/>
      <point x="806" y="572" type="line"/>
      <point x="797" y="596" type="line"/>
      <point x="830" y="640" type="line"/>
      <point x="867" y="618"/>
      <point x="884" y="597" type="line"/>
      <point x="892" y="590"/>
      <point x="892" y="584" type="line"/>
      <point x="892" y="574"/>
      <point x="853" y="552" type="line"/>
      <point x="853" y="489" type="line"/>
    </contour>
    <contour>
      <point x="617" y="499" type="line"/>
      <point x="682" y="483"/>
      <point x="717" y="468" type="line"/>
      <point x="739" y="457"/>
      <point x="756" y="442" type="line"/>
      <point x="764" y="429"/>
      <point x="766" y="417" type="line"/>
      <point x="764" y="400"/>
      <point x="745" y="400" type="line"/>
      <point x="726" y="402"/>
      <point x="712" y="409" type="line"/>
      <point x="704" y="416"/>
      <point x="683" y="428" type="line"/>
      <point x="644" y="452"/>
      <point x="604" y="468" type="line"/>
      <point x="569" y="482" type="line"/>
      <point x="532" y="497"/>
      <point x="463" y="512" type="line"/>
      <point x="465" y="529" type="line"/>
      <point x="465" y="529" type="line"/>
      <point x="531" y="522"/>
      <point x="585" y="508" type="line"/>
    </contour>
    <contour>
      <point x="160" y="-145" type="line"/>
      <point x="160" y="-161"/>
      <point x="144" y="-161" type="line"/>
      <point x="133" y="-161"/>
      <point x="116" y="-155" type="line"/>
      <point x="105" y="-146"/>
      <point x="105" y="-131" type="line"/>
      <point x="105" y="-114"/>
      <point x="108" y="-86" type="line"/>
      <point x="113" y="-63"/>
      <point x="113" y="-6" type="line"/>
      <point x="113" y="39" type="line"/>
      <point x="113" y="131" type="line"/>
      <point x="113" y="171"/>
      <point x="105" y="200" type="line"/>
      <point x="105" y="200" type="line"/>
      <point x="170" y="156" type="line"/>
      <point x="160" y="133" type="line"/>
      <point x="160" y="0.0" type="line"/>
    </contour>
    <contour>
      <point x="824" y="23" type="line"/>
      <point x="824" y="133" type="line"/>
      <point x="815" y="156" type="line"/>
      <point x="849" y="200" type="line"/>
      <point x="886" y="179"/>
      <point x="902" y="157" type="line"/>
      <point x="910" y="150"/>
      <point x="910" y="145" type="line"/>
      <point x="910" y="135"/>
      <point x="871" y="112" type="line"/>
      <point x="871" y="50" type="line"/>
      <point x="871" y="-89" type="line"/>
      <point x="871" y="-106"/>
      <point x="855" y="-124" type="line"/>
      <point x="843" y="-140"/>
      <point x="818" y="-149" type="line"/>
      <point x="797" y="-159"/>
      <point x="781" y="-159" type="line"/>
      <point x="781" y="-138"/>
      <point x="771" y="-127" type="line"/>
      <point x="761" y="-115"/>
      <point x="734" y="-106" type="line"/>
      <point x="705" y="-97"/>
      <point x="668" y="-94" type="line"/>
      <point x="668" y="-67" type="line"/>
      <point x="736" y="-82"/>
      <point x="791" y="-82" type="line"/>
      <point x="812" y="-82"/>
      <point x="816" y="-76" type="line"/>
      <point x="824" y="-71"/>
      <point x="824" y="-57" type="line"/>
    </contour>
    <contour>
      <point x="506" y="114" type="line"/>
      <point x="493" y="81"/>
      <point x="475" y="59" type="line"/>
      <point x="445" y="30"/>
      <point x="412" y="11" type="line"/>
      <point x="370" y="-10"/>
      <point x="329" y="-22" type="line"/>
      <point x="277" y="-39"/>
      <point x="219" y="-46" type="line"/>
      <point x="211" y="-26" type="line"/>
      <point x="280" y="-12"/>
      <point x="327" y="9" type="line"/>
      <point x="366" y="23"/>
      <point x="398" y="46" type="line"/>
      <point x="422" y="64"/>
      <point x="440" y="88" type="line"/>
      <point x="455" y="110"/>
      <point x="467" y="149" type="line"/>
      <point x="471" y="178"/>
      <point x="471" y="251" type="line"/>
      <point x="471" y="251" type="line"/>
      <point x="521" y="251" type="line"/>
      <point x="521" y="198"/>
      <point x="517" y="173" type="line"/>
      <point x="516" y="144"/>
    </contour>
    <contour>
      <point x="256" y="700" type="line"/>
      <point x="821" y="700" type="line"/>
      <point x="869" y="759" type="line"/>
      <point x="909" y="729"/>
      <point x="944" y="701" type="line"/>
      <point x="953" y="695"/>
      <point x="953" y="688" type="line"/>
      <point x="953" y="677"/>
      <point x="937" y="677" type="line"/>
      <point x="253" y="677" type="line"/>
      <point x="147" y="677" type="line"/>
      <point x="102" y="675"/>
      <point x="80" y="671" type="line"/>
      <point x="63" y="710" type="line"/>
      <point x="100" y="700"/>
      <point x="146" y="700" type="line"/>
    </contour>
  </outline>
</glyph>
<glyph name="u30013" format="2">
  <advance width="1000"/>
  <unicode hex="30013"/>
  <outline>
    <contour>
      <point x="251" y="410" type="line"/>
      <point x="142" y="410" type="line"/>
      <point x="142" y="292" type="line"/>
      <point x="251" y="292" type="line"/>
    </contour>
    <contour>
      <point x="298" y="440" type="line"/>
      <point x="392" y="440" type="line"/>
      <point x="392" y="559" type="line"/>
      <point x="298" y="559" type="line"/>
    </contour>
    <contour>
      <point x="251" y="559" type="line"/>
      <point x="142" y="559" type="line"/>
      <point x="142" y="440" type="line"/>
      <point x="251" y="440" type="line"/>
    </contour>
    <contour>
      <point x="298" y="292" type="line"/>
      <point x="392" y="292" type="line"/>
      <point x="392" y="410" type="line"/>
      <point x="298" y="410" type="line"/>
    </contour>
    <contour>
      <point x="827" y="717" type="line"/>
      <point x="853" y="753" type="line"/>
      <point x="859" y="762"/>
      <point x="868" y="753" type="line"/>
      <point x="938" y="691"/>
      <point x="937" y="677" type="line"/>
      <point x="935" y="669"/>
      <point x="922" y="668" type="line"/>
      <point x="156" y="668" type="line"/>
      <point x="115" y="667"/>
      <point x="85" y="661" type="line"/>
      <point x="76" y="658"/>
      <point x="75" y="667" type="line"/>
      <point x="70" y="685"/>
      <point x="56" y="697" type="line"/>
      <point x="48" y="704"/>
      <point x="52" y="708" type="line"/>
      <point x="56" y="711"/>
      <point x="63" y="707" type="line"/>
      <point x="100" y="698"/>
      <point x="145" y="698" type="line"/>
      <point x="798" y="698" type="line"/>
      <point x="812" y="699"/>
    </contour>
    <contour>
      <point x="509" y="29" type="line"/>
      <point x="559" y="142"/>
      <point x="559" y="377" type="line"/>
      <point x="559" y="530" type="line"/>
      <point x="558" y="567"/>
      <point x="549" y="606" type="line"/>
      <point x="548" y="614"/>
      <point x="552" y="617" type="line"/>
      <point x="557" y="618"/>
      <point x="563" y="611" type="line"/>
      <point x="577" y="598"/>
      <point x="599" y="585" type="line"/>
      <point x="721" y="585" type="line"/>
      <point x="733" y="586"/>
      <point x="737" y="590" type="line"/>
      <point x="761" y="622" type="line"/>
      <point x="766" y="629"/>
      <point x="774" y="622" type="line"/>
      <point x="808" y="593"/>
      <point x="828" y="566" type="line"/>
      <point x="832" y="561"/>
      <point x="822" y="558" type="line"/>
      <point x="813" y="555"/>
      <point x="803" y="551" type="line"/>
      <point x="792" y="547"/>
      <point x="792" y="532" type="line"/>
      <point x="792" y="-34" type="line"/>
      <point x="792" y="-64"/>
      <point x="801" y="-74" type="line"/>
      <point x="807" y="-81"/>
      <point x="822" y="-85" type="line"/>
      <point x="842" y="-83"/>
      <point x="865" y="-73" type="line"/>
      <point x="885" y="-64"/>
      <point x="892" y="-47" type="line"/>
      <point x="908" y="-7"/>
      <point x="927" y="79" type="line"/>
      <point x="930" y="92"/>
      <point x="939" y="91" type="line"/>
      <point x="948" y="89"/>
      <point x="947" y="77" type="line"/>
      <point x="930" y="-66"/>
      <point x="954" y="-85" type="line"/>
      <point x="967" y="-96"/>
      <point x="951" y="-103" type="line"/>
      <point x="916" y="-126"/>
      <point x="852" y="-126" type="line"/>
      <point x="830" y="-126" type="line"/>
      <point x="783" y="-125"/>
      <point x="765" y="-106" type="line"/>
      <point x="745" y="-87"/>
      <point x="745" y="-36" type="line"/>
      <point x="745" y="555" type="line"/>
      <point x="605" y="555" type="line"/>
      <point x="605" y="421" type="line"/>
      <point x="605" y="248"/>
      <point x="588" y="133" type="line"/>
      <point x="572" y="34"/>
      <point x="521" y="-28" type="line"/>
      <point x="461" y="-101"/>
      <point x="352" y="-157" type="line"/>
      <point x="338" y="-166"/>
      <point x="332" y="-154" type="line"/>
      <point x="328" y="-143"/>
      <point x="338" y="-139" type="line"/>
      <point x="445" y="-73"/>
      <point x="490" y="-6" type="line"/>
      <point x="496" y="4" type="line"/>
      <point x="274" y="-54"/>
      <point x="145" y="-88" type="line"/>
      <point x="104" y="-95"/>
      <point x="88" y="-112" type="line"/>
      <point x="81" y="-119"/>
      <point x="77" y="-120" type="line"/>
      <point x="73" y="-120"/>
      <point x="70" y="-111" type="line"/>
      <point x="62" y="-87"/>
      <point x="43" y="-66" type="line"/>
      <point x="33" y="-55"/>
      <point x="34" y="-52" type="line"/>
      <point x="36" y="-49"/>
      <point x="251" y="-15" type="line"/>
      <point x="251" y="102" type="line"/>
      <point x="143" y="102" type="line"/>
      <point x="102" y="101"/>
      <point x="71" y="95" type="line"/>
      <point x="63" y="92"/>
      <point x="61" y="101" type="line"/>
      <point x="57" y="118"/>
      <point x="42" y="130" type="line"/>
      <point x="35" y="137"/>
      <point x="38" y="141" type="line"/>
      <point x="42" y="144"/>
      <point x="49" y="140" type="line"/>
      <point x="86" y="132"/>
      <point x="131" y="132" type="line"/>
      <point x="251" y="132" type="line"/>
      <point x="251" y="262" type="line"/>
      <point x="142" y="262" type="line"/>
      <point x="142" y="220" type="line"/>
      <point x="141" y="212"/>
      <point x="137" y="211" type="line"/>
      <point x="127" y="207"/>
      <point x="105" y="198" type="line"/>
      <point x="91" y="192"/>
      <point x="92" y="202" type="line"/>
      <point x="94" y="228"/>
      <point x="95" y="252" type="line"/>
      <point x="95" y="566" type="line"/>
      <point x="94" y="592"/>
      <point x="93" y="610" type="line"/>
      <point x="93" y="619"/>
      <point x="97" y="620" type="line"/>
      <point x="101" y="623"/>
      <point x="109" y="614" type="line"/>
      <point x="122" y="602"/>
      <point x="140" y="589" type="line"/>
      <point x="372" y="589" type="line"/>
      <point x="378" y="589"/>
      <point x="381" y="593" type="line"/>
      <point x="398" y="620" type="line"/>
      <point x="405" y="628"/>
      <point x="412" y="621" type="line"/>
      <point x="440" y="603"/>
      <point x="468" y="581" type="line"/>
      <point x="474" y="575"/>
      <point x="473" y="569" type="line"/>
      <point x="470" y="563"/>
      <point x="460" y="563" type="line"/>
      <point x="448" y="561"/>
      <point x="442" y="551" type="line"/>
      <point x="438" y="542"/>
      <point x="438" y="529" type="line"/>
      <point x="438" y="326" type="line"/>
      <point x="438" y="295"/>
      <point x="444" y="241" type="line"/>
      <point x="446" y="229"/>
      <point x="438" y="226" type="line"/>
      <point x="403" y="206"/>
      <point x="396" y="206" type="line"/>
      <point x="392" y="207"/>
      <point x="392" y="217" type="line"/>
      <point x="392" y="262" type="line"/>
      <point x="298" y="262" type="line"/>
      <point x="298" y="132" type="line"/>
      <point x="388" y="132" type="line"/>
      <point x="394" y="132"/>
      <point x="399" y="139" type="line"/>
      <point x="435" y="179" type="line"/>
      <point x="441" y="186"/>
      <point x="448" y="179" type="line"/>
      <point x="474" y="153"/>
      <point x="491" y="132" type="line"/>
      <point x="502" y="118"/>
      <point x="495" y="108" type="line"/>
      <point x="490" y="103"/>
      <point x="478" y="102" type="line"/>
      <point x="298" y="102" type="line"/>
      <point x="298" y="-8" type="line"/>
      <point x="404" y="8"/>
    </contour>
  </outline>
</glyph>
<glyph name="u30015" format="2">
  <advance width="1000"/>
  <unicode hex="30015"/>
  <outline>
    <contour>
      <point x="285" y="500" type="line"/>
      <point x="396" y="500" type="line"/>
      <point x="429" y="535" type="line"/>
      <point x="451" y="519" type="line"/>
      <point x="464" y="509"/>
      <point x="476" y="497"/>
      <point x="479" y="479"/>
      <point x="466" y="471" type="line"/>
      <point x="449" y="460" type="line"/>
      <point x="449" y="-79" type="line"/>
      <point x="449" y="-93"/>
      <point x="435" y="-119"/>
      <point x="412" y="-136"/>
      <point x="397" y="-139" type="line"/>
      <point x="378" y="-143" type="line"/>
      <point x="378" y="-133"/>
      <point x="374" y="-118"/>
      <point x="360" y="-104"/>
      <point x="340" y="-95"/>
      <point x="324" y="-91" type="line"/>
      <point x="289" y="-83" type="line"/>
      <point x="293" y="-61" type="line"/>
      <point x="352" y="-70" type="line"/>
      <point x="367" y="-71" type="line"/>
      <point x="379" y="-73" type="line"/>
      <point x="392" y="-75"/>
      <point x="404" y="-63"/>
      <point x="404" y="-46" type="line"/>
      <point x="404" y="473" type="line"/>
      <point x="284" y="473" type="line"/>
      <point x="282" y="450"/>
      <point x="279" y="407"/>
      <point x="278" y="398" type="line"/>
      <point x="274" y="364" type="line"/>
      <point x="278" y="361"/>
      <point x="288" y="354"/>
      <point x="313" y="334"/>
      <point x="360" y="284"/>
      <point x="386" y="249"/>
      <point x="397" y="221"/>
      <point x="396" y="190"/>
      <point x="379" y="173"/>
      <point x="360" y="175"/>
      <point x="352" y="187"/>
      <point x="343" y="217"/>
      <point x="337" y="233"/>
      <point x="327" y="255"/>
      <point x="295" y="307"/>
      <point x="288" y="315" type="line"/>
      <point x="277" y="328" type="line"/>
      <point x="271" y="336" type="line"/>
      <point x="268" y="323"/>
      <point x="263" y="307"/>
      <point x="252" y="270"/>
      <point x="231" y="223"/>
      <point x="194" y="160"/>
      <point x="182" y="146" type="line"/>
      <point x="154" y="116" type="line"/>
      <point x="140" y="129" type="line"/>
      <point x="152" y="148"/>
      <point x="167" y="172"/>
      <point x="185" y="203"/>
      <point x="203" y="243"/>
      <point x="216" y="285"/>
      <point x="229" y="344"/>
      <point x="234" y="388"/>
      <point x="238" y="438"/>
      <point x="239" y="444" type="line"/>
      <point x="241" y="473" type="line"/>
      <point x="134" y="473" type="line"/>
      <point x="134" y="-124" type="line"/>
      <point x="134" y="-132"/>
      <point x="123" y="-142"/>
      <point x="113" y="-143" type="line"/>
      <point x="107" y="-143"/>
      <point x="92" y="-142"/>
      <point x="85" y="-136"/>
      <point x="83" y="-120"/>
      <point x="84" y="-108" type="line"/>
      <point x="85" y="-89"/>
      <point x="86" y="-83" type="line"/>
      <point x="87" y="-62" type="line"/>
      <point x="89" y="-27"/>
      <point x="89" y="-23" type="line"/>
      <point x="89" y="450" type="line"/>
      <point x="89" y="464"/>
      <point x="85" y="506"/>
      <point x="84" y="521" type="line"/>
      <point x="82" y="537" type="line"/>
      <point x="136" y="500" type="line"/>
      <point x="242" y="500" type="line"/>
      <point x="244" y="567"/>
      <point x="245" y="580" type="line"/>
      <point x="247" y="665" type="line"/>
      <point x="163" y="665" type="line"/>
      <point x="149" y="665"/>
      <point x="104" y="662"/>
      <point x="99" y="661" type="line"/>
      <point x="84" y="660" type="line"/>
      <point x="64" y="701" type="line"/>
      <point x="82" y="698"/>
      <point x="109" y="694"/>
      <point x="141" y="691"/>
      <point x="156" y="691" type="line"/>
      <point x="367" y="691" type="line"/>
      <point x="412" y="736" type="line"/>
      <point x="464" y="691" type="line"/>
      <point x="475" y="682"/>
      <point x="471" y="665"/>
      <point x="459" y="665" type="line"/>
      <point x="290" y="665" type="line"/>
      <point x="287" y="592"/>
      <point x="287" y="576" type="line"/>
      <point x="285" y="500" type="line"/>
    </contour>
    <contour>
      <point x="732" y="500" type="line"/>
      <point x="846" y="500" type="line"/>
      <point x="877" y="535" type="line"/>
      <point x="899" y="519" type="line"/>
      <point x="915" y="507"/>
      <point x="925" y="497"/>
      <point x="927" y="479"/>
      <point x="914" y="471" type="line"/>
      <point x="898" y="460" type="line"/>
      <point x="898" y="-81" type="line"/>
      <point x="898" y="-98"/>
      <point x="884" y="-121"/>
      <point x="859" y="-138"/>
      <point x="846" y="-141" type="line"/>
      <point x="827" y="-145" type="line"/>
      <point x="826" y="-135"/>
      <point x="822" y="-120"/>
      <point x="809" y="-105"/>
      <point x="788" y="-96"/>
      <point x="773" y="-93" type="line"/>
      <point x="738" y="-85" type="line"/>
      <point x="742" y="-63" type="line"/>
      <point x="800" y="-72" type="line"/>
      <point x="816" y="-73" type="line"/>
      <point x="828" y="-75" type="line"/>
      <point x="841" y="-77"/>
      <point x="853" y="-64"/>
      <point x="853" y="-48" type="line"/>
      <point x="853" y="473" type="line"/>
      <point x="731" y="473" type="line"/>
      <point x="729" y="434"/>
      <point x="729" y="428" type="line"/>
      <point x="722" y="362" type="line"/>
      <point x="726" y="359"/>
      <point x="732" y="354"/>
      <point x="763" y="328"/>
      <point x="808" y="283"/>
      <point x="833" y="247"/>
      <point x="844" y="219"/>
      <point x="844" y="189"/>
      <point x="828" y="171"/>
      <point x="806" y="173"/>
      <point x="798" y="187"/>
      <point x="792" y="207"/>
      <point x="784" y="231"/>
      <point x="772" y="258"/>
      <point x="744" y="302"/>
      <point x="729" y="319"/>
      <point x="725" y="326" type="line"/>
      <point x="717" y="334" type="line"/>
      <point x="714" y="321"/>
      <point x="711" y="305"/>
      <point x="701" y="271"/>
      <point x="676" y="214"/>
      <point x="641" y="161"/>
      <point x="625" y="143" type="line"/>
      <point x="601" y="114" type="line"/>
      <point x="586" y="127" type="line"/>
      <point x="600" y="146"/>
      <point x="615" y="171"/>
      <point x="632" y="201"/>
      <point x="649" y="240"/>
      <point x="665" y="289"/>
      <point x="676" y="352"/>
      <point x="685" y="423"/>
      <point x="686" y="442" type="line"/>
      <point x="688" y="473" type="line"/>
      <point x="576" y="473" type="line"/>
      <point x="576" y="-124" type="line"/>
      <point x="576" y="-132"/>
      <point x="565" y="-142"/>
      <point x="557" y="-143" type="line"/>
      <point x="551" y="-144"/>
      <point x="535" y="-141"/>
      <point x="528" y="-136"/>
      <point x="526" y="-120"/>
      <point x="527" y="-108" type="line"/>
      <point x="528" y="-83"/>
      <point x="529" y="-83" type="line"/>
      <point x="530" y="-62" type="line"/>
      <point x="532" y="-25"/>
      <point x="532" y="-23" type="line"/>
      <point x="532" y="450" type="line"/>
      <point x="532" y="466"/>
      <point x="529" y="496"/>
      <point x="526" y="521" type="line"/>
      <point x="524" y="537" type="line"/>
      <point x="579" y="500" type="line"/>
      <point x="689" y="500" type="line"/>
      <point x="691" y="564"/>
      <point x="691" y="576" type="line"/>
      <point x="693" y="665" type="line"/>
      <point x="606" y="665" type="line"/>
      <point x="583" y="665"/>
      <point x="561" y="663"/>
      <point x="549" y="662" type="line"/>
      <point x="526" y="660" type="line"/>
      <point x="508" y="701" type="line"/>
      <point x="524" y="698"/>
      <point x="553" y="694"/>
      <point x="584" y="691"/>
      <point x="599" y="691" type="line"/>
      <point x="827" y="691" type="line"/>
      <point x="872" y="736" type="line"/>
      <point x="924" y="691" type="line"/>
      <point x="935" y="682"/>
      <point x="931" y="665"/>
      <point x="919" y="665" type="line"/>
      <point x="736" y="665" type="line"/>
      <point x="734" y="595"/>
      <point x="734" y="580" type="line"/>
      <point x="732" y="500" type="line"/>
    </contour>
  </outline>
</glyph>
<glyph name="u30016" format="2">
  <advance width="1000"/>
  <unicode hex="30016"/>
  <outline>
    <contour>
      <point x="277" y="303"/>
      <point x="276" y="321" type="line"/>
      <point x="276" y="330"/>
      <point x="280" y="331" type="line"/>
      <point x="284" y="334"/>
      <point x="293" y="325" type="line"/>
      <point x="306" y="313"/>
      <point x="323" y="300" type="line"/>
      <point x="421" y="300" type="line"/>
      <point x="429" y="299"/>
      <point x="432" y="302" type="line"/>
      <point x="449" y="323" type="line"/>
      <point x="457" y="335"/>
      <point x="466" y="326" type="line"/>
      <point x="486" y="309"/>
      <point x="505" y="288" type="line"/>
      <point x="511" y="280"/>
      <point x="511" y="279" type="line"/>
      <point x="511" y="278"/>
      <point x="507" y="275" type="line"/>
      <point x="487" y="265"/>
      <point x="486" y="261" type="line"/>
      <point x="485" y="257"/>
      <point x="485" y="254" type="line"/>
      <point x="485" y="188" type="line"/>
      <point x="485" y="177"/>
      <point x="489" y="156" type="line"/>
      <point x="489" y="147"/>
      <point x="485" y="145" type="line"/>
      <point x="451" y="126"/>
      <point x="444" y="126" type="line"/>
      <point x="438" y="126"/>
      <point x="438" y="136" type="line"/>
      <point x="438" y="152" type="line"/>
      <point x="325" y="152" type="line"/>
      <point x="325" y="126" type="line"/>
      <point x="324" y="118"/>
      <point x="320" y="117" type="line"/>
      <point x="311" y="113"/>
      <point x="289" y="104" type="line"/>
      <point x="274" y="99"/>
      <point x="275" y="108" type="line"/>
      <point x="277" y="134"/>
      <point x="278" y="158" type="line"/>
      <point x="278" y="277" type="line"/>
    </contour>
    <contour>
      <point x="325" y="270" type="line"/>
      <point x="325" y="183" type="line"/>
      <point x="438" y="183" type="line"/>
      <point x="438" y="270" type="line"/>
    </contour>
    <contour>
      <point x="299" y="56"/>
      <point x="360" y="68" type="line"/>
      <point x="453" y="89"/>
      <point x="524" y="106" type="line"/>
      <point x="538" y="110"/>
      <point x="539" y="102" type="line"/>
      <point x="541" y="92"/>
      <point x="526" y="88" type="line"/>
      <point x="413" y="43"/>
      <point x="339" y="20" type="line"/>
      <point x="320" y="13"/>
      <point x="288" y="-12" type="line"/>
      <point x="284" y="-15"/>
      <point x="280" y="-16" type="line"/>
      <point x="276" y="-17"/>
      <point x="272" y="-8" type="line"/>
      <point x="263" y="15"/>
      <point x="244" y="33" type="line"/>
      <point x="232" y="43"/>
      <point x="233" y="46" type="line"/>
      <point x="235" y="49"/>
      <point x="245" y="50" type="line"/>
    </contour>
    <contour>
      <point x="315" y="371" type="line"/>
      <point x="289" y="371"/>
      <point x="256" y="364" type="line"/>
      <point x="251" y="363"/>
      <point x="250" y="366" type="line"/>
      <point x="237" y="386"/>
      <point x="228" y="401" type="line"/>
      <point x="222" y="411"/>
      <point x="234" y="408" type="line"/>
      <point x="294" y="402"/>
      <point x="301" y="401" type="line"/>
      <point x="528" y="401" type="line"/>
      <point x="524" y="439"/>
      <point x="521" y="479" type="line"/>
      <point x="520" y="490"/>
      <point x="522" y="494" type="line"/>
      <point x="525" y="496"/>
      <point x="538" y="492" type="line"/>
      <point x="576" y="479"/>
      <point x="598" y="470" type="line"/>
      <point x="605" y="466"/>
      <point x="605" y="462" type="line"/>
      <point x="604" y="458"/>
      <point x="599" y="455" type="line"/>
      <point x="586" y="447"/>
      <point x="576" y="438" type="line"/>
      <point x="571" y="429"/>
      <point x="572" y="401" type="line"/>
      <point x="672" y="401" type="line"/>
      <point x="685" y="402"/>
      <point x="688" y="403" type="line"/>
      <point x="693" y="405"/>
      <point x="699" y="408" type="line"/>
      <point x="717" y="426" type="line"/>
      <point x="724" y="430"/>
      <point x="728" y="426" type="line"/>
      <point x="757" y="407"/>
      <point x="780" y="392" type="line"/>
      <point x="792" y="386"/>
      <point x="791" y="380" type="line"/>
      <point x="790" y="372"/>
      <point x="774" y="371" type="line"/>
      <point x="574" y="371" type="line"/>
      <point x="582" y="283"/>
      <point x="598" y="212" type="line"/>
      <point x="604" y="179"/>
      <point x="612" y="152" type="line"/>
      <point x="623" y="171"/>
      <point x="635" y="191" type="line"/>
      <point x="676" y="268"/>
      <point x="688" y="317" type="line"/>
      <point x="689" y="328"/>
      <point x="692" y="329" type="line"/>
      <point x="697" y="331"/>
      <point x="701" y="327" type="line"/>
      <point x="728" y="312"/>
      <point x="764" y="288" type="line"/>
      <point x="771" y="282"/>
      <point x="770" y="278" type="line"/>
      <point x="768" y="274"/>
      <point x="762" y="273" type="line"/>
      <point x="729" y="266"/>
      <point x="725" y="262" type="line"/>
      <point x="723" y="259"/>
      <point x="708" y="229" type="line"/>
      <point x="669" y="150"/>
      <point x="633" y="103" type="line"/>
      <point x="636" y="100"/>
      <point x="637" y="97" type="line"/>
      <point x="656" y="64"/>
      <point x="686" y="43" type="line"/>
      <point x="703" y="30"/>
      <point x="707" y="31" type="line"/>
      <point x="717" y="33"/>
      <point x="721" y="51" type="line"/>
      <point x="736" y="98"/>
      <point x="746" y="157" type="line"/>
      <point x="749" y="173"/>
      <point x="761" y="172" type="line"/>
      <point x="774" y="172"/>
      <point x="771" y="154" type="line"/>
      <point x="755" y="75"/>
      <point x="758" y="28" type="line"/>
      <point x="761" y="-12"/>
      <point x="768" y="-32" type="line"/>
      <point x="772" y="-43"/>
      <point x="769" y="-47" type="line"/>
      <point x="764" y="-53"/>
      <point x="734" y="-38" type="line"/>
      <point x="687" y="-21"/>
      <point x="643" y="23" type="line"/>
      <point x="621" y="45"/>
      <point x="605" y="69" type="line"/>
      <point x="552" y="12"/>
      <point x="440" y="-54" type="line"/>
      <point x="420" y="-65"/>
      <point x="414" y="-56" type="line"/>
      <point x="407" y="-43"/>
      <point x="419" y="-36" type="line"/>
      <point x="508" y="23"/>
      <point x="550" y="68" type="line"/>
      <point x="566" y="89"/>
      <point x="584" y="110" type="line"/>
      <point x="580" y="120"/>
      <point x="577" y="129" type="line"/>
      <point x="553" y="194"/>
      <point x="532" y="371" type="line"/>
    </contour>
    <contour>
      <point x="619" y="488"/>
      <point x="623" y="495" type="line"/>
      <point x="627" y="503"/>
      <point x="639" y="496" type="line"/>
      <point x="668" y="484"/>
      <point x="684" y="473" type="line"/>
      <point x="695" y="464"/>
      <point x="696" y="458" type="line"/>
      <point x="698" y="438"/>
      <point x="687" y="425" type="line"/>
      <point x="675" y="413"/>
      <point x="669" y="412" type="line"/>
      <point x="663" y="412"/>
      <point x="656" y="430" type="line"/>
      <point x="651" y="445"/>
      <point x="645" y="458" type="line"/>
      <point x="636" y="473"/>
      <point x="626" y="482" type="line"/>
    </contour>
    <contour>
      <point x="803" y="546"/>
      <point x="810" y="553" type="line"/>
      <point x="834" y="578" type="line"/>
      <point x="839" y="585"/>
      <point x="848" y="579" type="line"/>
      <point x="878" y="557"/>
      <point x="899" y="538" type="line"/>
      <point x="906" y="531"/>
      <point x="900" y="528" type="line"/>
      <point x="872" y="508"/>
      <point x="869" y="505" type="line"/>
      <point x="864" y="502"/>
      <point x="864" y="499" type="line"/>
      <point x="864" y="38" type="line"/>
      <point x="862" y="-32"/>
      <point x="868" y="-136" type="line"/>
      <point x="869" y="-144"/>
      <point x="862" y="-145" type="line"/>
      <point x="843" y="-154"/>
      <point x="824" y="-161" type="line"/>
      <point x="817" y="-164"/>
      <point x="817" y="-149" type="line"/>
      <point x="817" y="-102" type="line"/>
      <point x="191" y="-102" type="line"/>
      <point x="191" y="-117"/>
      <point x="192" y="-132" type="line"/>
      <point x="191" y="-142"/>
      <point x="185" y="-145" type="line"/>
      <point x="148" y="-161"/>
      <point x="142" y="-161" type="line"/>
      <point x="138" y="-160"/>
      <point x="139" y="-142" type="line"/>
      <point x="143" y="-44"/>
      <point x="146" y="60" type="line"/>
      <point x="146" y="493" type="line"/>
      <point x="145" y="524"/>
      <point x="139" y="569" type="line"/>
      <point x="137" y="579"/>
      <point x="140" y="580" type="line"/>
      <point x="144" y="582"/>
      <point x="153" y="572" type="line"/>
      <point x="166" y="561"/>
      <point x="185" y="546" type="line"/>
      <point x="791" y="546" type="line"/>
    </contour>
    <contour>
      <point x="192" y="516" type="line"/>
      <point x="192" y="60" type="line"/>
      <point x="191" y="-12"/>
      <point x="191" y="-71" type="line"/>
      <point x="817" y="-71" type="line"/>
      <point x="817" y="516" type="line"/>
    </contour>
    <contour>
      <point x="813" y="708" type="line"/>
      <point x="825" y="708"/>
      <point x="829" y="712" type="line"/>
      <point x="834" y="717"/>
      <point x="843" y="727" type="line"/>
      <point x="868" y="763" type="line"/>
      <point x="875" y="771"/>
      <point x="884" y="763" type="line"/>
      <point x="914" y="735"/>
      <point x="943" y="705" type="line"/>
      <point x="953" y="695"/>
      <point x="952" y="687" type="line"/>
      <point x="950" y="679"/>
      <point x="938" y="678" type="line"/>
      <point x="140" y="678" type="line"/>
      <point x="113" y="678"/>
      <point x="80" y="671" type="line"/>
      <point x="75" y="670"/>
      <point x="74" y="673" type="line"/>
      <point x="62" y="692"/>
      <point x="52" y="708" type="line"/>
      <point x="46" y="718"/>
      <point x="59" y="715" type="line"/>
      <point x="118" y="709"/>
      <point x="125" y="708" type="line"/>
    </contour>
  </outline>
</glyph>
<glyph name="u30017" format="2">
  <advance width="1000"/>
  <unicode hex="30017"/>
  <outline>
    <contour>
      <point x="278" y="406" type="line"/>
      <point x="277" y="444"/>
      <point x="274" y="475" type="line"/>
      <point x="273" y="490"/>
      <point x="283" y="487" type="line"/>
      <point x="336" y="471"/>
      <point x="357" y="459" type="line"/>
      <point x="366" y="454"/>
      <point x="357" y="448" type="line"/>
      <point x="336" y="433"/>
      <point x="332" y="429" type="line"/>
      <point x="325" y="422"/>
      <point x="325" y="406" type="line"/>
      <point x="325" y="362" type="line"/>
      <point x="372" y="362" type="line"/>
      <point x="378" y="362"/>
      <point x="384" y="369" type="line"/>
      <point x="419" y="409" type="line"/>
      <point x="426" y="416"/>
      <point x="433" y="409" type="line"/>
      <point x="458" y="384"/>
      <point x="476" y="362" type="line"/>
      <point x="486" y="349"/>
      <point x="479" y="339" type="line"/>
      <point x="475" y="333"/>
      <point x="462" y="332" type="line"/>
      <point x="325" y="332" type="line"/>
      <point x="325" y="228" type="line"/>
      <point x="404" y="239"/>
      <point x="470" y="248" type="line"/>
      <point x="483" y="250"/>
      <point x="484" y="241" type="line"/>
      <point x="485" y="230"/>
      <point x="470" y="228" type="line"/>
      <point x="309" y="187"/>
      <point x="205" y="168" type="line"/>
      <point x="184" y="164"/>
      <point x="147" y="141" type="line"/>
      <point x="142" y="138"/>
      <point x="138" y="138" type="line"/>
      <point x="134" y="138"/>
      <point x="131" y="146" type="line"/>
      <point x="124" y="172"/>
      <point x="105" y="193" type="line"/>
      <point x="95" y="206"/>
      <point x="96" y="209" type="line"/>
      <point x="99" y="212"/>
      <point x="108" y="211" type="line"/>
      <point x="177" y="211"/>
      <point x="257" y="221" type="line"/>
      <point x="269" y="223"/>
      <point x="278" y="223" type="line"/>
    </contour>
    <contour>
      <point x="551" y="182"/>
      <point x="518" y="175" type="line"/>
      <point x="513" y="174"/>
      <point x="512" y="177" type="line"/>
      <point x="499" y="195"/>
      <point x="489" y="211" type="line"/>
      <point x="483" y="221"/>
      <point x="496" y="218" type="line"/>
      <point x="556" y="213"/>
      <point x="563" y="212" type="line"/>
      <point x="653" y="212" type="line"/>
      <point x="653" y="406" type="line"/>
      <point x="652" y="444"/>
      <point x="649" y="475" type="line"/>
      <point x="648" y="490"/>
      <point x="658" y="487" type="line"/>
      <point x="711" y="471"/>
      <point x="732" y="459" type="line"/>
      <point x="741" y="454"/>
      <point x="732" y="448" type="line"/>
      <point x="711" y="433"/>
      <point x="707" y="429" type="line"/>
      <point x="700" y="422"/>
      <point x="700" y="406" type="line"/>
      <point x="700" y="362" type="line"/>
      <point x="778" y="362" type="line"/>
      <point x="784" y="362"/>
      <point x="790" y="369" type="line"/>
      <point x="825" y="409" type="line"/>
      <point x="832" y="416"/>
      <point x="839" y="409" type="line"/>
      <point x="864" y="384"/>
      <point x="882" y="362" type="line"/>
      <point x="893" y="349"/>
      <point x="886" y="339" type="line"/>
      <point x="881" y="333"/>
      <point x="868" y="332" type="line"/>
      <point x="700" y="332" type="line"/>
      <point x="700" y="212" type="line"/>
      <point x="802" y="212" type="line"/>
      <point x="808" y="212"/>
      <point x="813" y="219" type="line"/>
      <point x="849" y="259" type="line"/>
      <point x="855" y="266"/>
      <point x="862" y="259" type="line"/>
      <point x="888" y="233"/>
      <point x="905" y="212" type="line"/>
      <point x="916" y="198"/>
      <point x="909" y="188" type="line"/>
      <point x="904" y="183"/>
      <point x="892" y="182" type="line"/>
      <point x="577" y="182" type="line"/>
    </contour>
    <contour>
      <point x="121" y="-152"/>
      <point x="88" y="-159" type="line"/>
      <point x="83" y="-160"/>
      <point x="82" y="-157" type="line"/>
      <point x="69" y="-138"/>
      <point x="60" y="-122" type="line"/>
      <point x="54" y="-112"/>
      <point x="66" y="-115" type="line"/>
      <point x="126" y="-121"/>
      <point x="133" y="-122" type="line"/>
      <point x="466" y="-122" type="line"/>
      <point x="466" y="63" type="line"/>
      <point x="465" y="110"/>
      <point x="462" y="141" type="line"/>
      <point x="461" y="156"/>
      <point x="471" y="153" type="line"/>
      <point x="523" y="137"/>
      <point x="545" y="125" type="line"/>
      <point x="554" y="120"/>
      <point x="545" y="114" type="line"/>
      <point x="523" y="99"/>
      <point x="520" y="95" type="line"/>
      <point x="513" y="88"/>
      <point x="513" y="63" type="line"/>
      <point x="513" y="17" type="line"/>
      <point x="720" y="17" type="line"/>
      <point x="731" y="17"/>
      <point x="735" y="21" type="line"/>
      <point x="740" y="25"/>
      <point x="749" y="35" type="line"/>
      <point x="774" y="71" type="line"/>
      <point x="781" y="80"/>
      <point x="790" y="71" type="line"/>
      <point x="820" y="44"/>
      <point x="850" y="14" type="line"/>
      <point x="859" y="4"/>
      <point x="858" y="-5" type="line"/>
      <point x="856" y="-13"/>
      <point x="844" y="-14" type="line"/>
      <point x="513" y="-14" type="line"/>
      <point x="513" y="-122" type="line"/>
      <point x="806" y="-122" type="line"/>
      <point x="817" y="-122"/>
      <point x="821" y="-118" type="line"/>
      <point x="826" y="-113"/>
      <point x="835" y="-104" type="line"/>
      <point x="860" y="-67" type="line"/>
      <point x="867" y="-59"/>
      <point x="876" y="-67" type="line"/>
      <point x="906" y="-95"/>
      <point x="936" y="-125" type="line"/>
      <point x="945" y="-135"/>
      <point x="944" y="-144" type="line"/>
      <point x="942" y="-151"/>
      <point x="930" y="-152" type="line"/>
      <point x="147" y="-152" type="line"/>
    </contour>
    <contour>
      <point x="176" y="508"/>
      <point x="143" y="501" type="line"/>
      <point x="138" y="500"/>
      <point x="137" y="503" type="line"/>
      <point x="124" y="522"/>
      <point x="114" y="538" type="line"/>
      <point x="108" y="548"/>
      <point x="121" y="545" type="line"/>
      <point x="181" y="539"/>
      <point x="188" y="538" type="line"/>
      <point x="474" y="538" type="line"/>
      <point x="471" y="729"/>
      <point x="470" y="756" type="line"/>
      <point x="469" y="771"/>
      <point x="479" y="769" type="line"/>
      <point x="531" y="752"/>
      <point x="553" y="740" type="line"/>
      <point x="562" y="735"/>
      <point x="553" y="729" type="line"/>
      <point x="531" y="714"/>
      <point x="527" y="710" type="line"/>
      <point x="521" y="705"/>
      <point x="521" y="663" type="line"/>
      <point x="677" y="663" type="line"/>
      <point x="688" y="663"/>
      <point x="692" y="667" type="line"/>
      <point x="697" y="672"/>
      <point x="706" y="682" type="line"/>
      <point x="731" y="718" type="line"/>
      <point x="738" y="727"/>
      <point x="747" y="718" type="line"/>
      <point x="777" y="690"/>
      <point x="807" y="660" type="line"/>
      <point x="816" y="650"/>
      <point x="815" y="642" type="line"/>
      <point x="813" y="634"/>
      <point x="801" y="633" type="line"/>
      <point x="521" y="633" type="line"/>
      <point x="521" y="538" type="line"/>
      <point x="751" y="538" type="line"/>
      <point x="763" y="538"/>
      <point x="767" y="542" type="line"/>
      <point x="771" y="547"/>
      <point x="780" y="557" type="line"/>
      <point x="806" y="593" type="line"/>
      <point x="813" y="602"/>
      <point x="821" y="593" type="line"/>
      <point x="852" y="565"/>
      <point x="881" y="535" type="line"/>
      <point x="891" y="525"/>
      <point x="890" y="517" type="line"/>
      <point x="888" y="509"/>
      <point x="875" y="508" type="line"/>
      <point x="202" y="508" type="line"/>
    </contour>
  </outline>
</glyph>
<glyph name="u30018" format="2">
  <advance width="1000"/>
  <unicode hex="30018"/>
  <outline>
    <contour>
      <point x="634" y="583"/>
      <point x="637" y="593" type="line"/>
      <point x="640" y="603"/>
      <point x="652" y="599" type="line"/>
      <point x="866" y="562"/>
      <point x="925" y="509" type="line"/>
      <point x="950" y="487"/>
      <point x="953" y="463" type="line"/>
      <point x="956" y="440"/>
      <point x="953" y="428" type="line"/>
      <point x="950" y="417"/>
      <point x="943" y="414" type="line"/>
      <point x="937" y="413"/>
      <point x="928" y="423" type="line"/>
      <point x="854" y="510"/>
      <point x="644" y="580" type="line"/>
    </contour>
    <contour>
      <point x="541" y="616"/>
      <point x="560" y="606" type="line"/>
      <point x="564" y="604"/>
      <point x="564" y="600" type="line"/>
      <point x="563" y="595"/>
      <point x="559" y="594" type="line"/>
      <point x="544" y="591"/>
      <point x="540" y="584" type="line"/>
      <point x="536" y="576"/>
      <point x="535" y="563" type="line"/>
      <point x="535" y="489" type="line"/>
      <point x="536" y="472"/>
      <point x="537" y="445" type="line"/>
      <point x="538" y="437"/>
      <point x="531" y="433" type="line"/>
      <point x="488" y="412"/>
      <point x="485" y="413" type="line"/>
      <point x="481" y="416"/>
      <point x="484" y="426" type="line"/>
      <point x="487" y="450"/>
      <point x="488" y="489" type="line"/>
      <point x="488" y="563" type="line"/>
      <point x="486" y="585"/>
      <point x="485" y="604" type="line"/>
      <point x="344" y="497"/>
      <point x="108" y="426" type="line"/>
      <point x="93" y="422"/>
      <point x="89" y="432" type="line"/>
      <point x="84" y="446"/>
      <point x="99" y="450" type="line"/>
      <point x="363" y="534"/>
      <point x="516" y="684" type="line"/>
      <point x="202" y="684" type="line"/>
      <point x="161" y="683"/>
      <point x="131" y="677" type="line"/>
      <point x="122" y="674"/>
      <point x="121" y="683" type="line"/>
      <point x="116" y="700"/>
      <point x="102" y="713" type="line"/>
      <point x="94" y="720"/>
      <point x="98" y="724" type="line"/>
      <point x="102" y="727"/>
      <point x="108" y="723" type="line"/>
      <point x="146" y="714"/>
      <point x="190" y="714" type="line"/>
      <point x="793" y="714" type="line"/>
      <point x="807" y="715"/>
      <point x="822" y="732" type="line"/>
      <point x="848" y="769" type="line"/>
      <point x="854" y="777"/>
      <point x="863" y="769" type="line"/>
      <point x="933" y="707"/>
      <point x="932" y="692" type="line"/>
      <point x="930" y="685"/>
      <point x="917" y="684" type="line"/>
      <point x="578" y="684" type="line"/>
      <point x="545" y="654"/>
      <point x="515" y="627" type="line"/>
    </contour>
    <contour>
      <point x="251" y="168" type="line"/>
      <point x="227" y="121"/>
      <point x="211" y="102" type="line"/>
      <point x="194" y="74"/>
      <point x="195" y="68" type="line"/>
      <point x="196" y="65"/>
      <point x="202" y="64" type="line"/>
      <point x="259" y="52"/>
      <point x="329" y="33" type="line"/>
      <point x="379" y="107"/>
      <point x="401" y="168" type="line"/>
    </contour>
    <contour>
      <point x="691" y="302"/>
      <point x="690" y="312" type="line"/>
      <point x="689" y="317"/>
      <point x="686" y="316" type="line"/>
      <point x="679" y="315"/>
      <point x="688" y="257" type="line"/>
      <point x="636" y="22"/>
      <point x="479" y="-147" type="line"/>
      <point x="466" y="-158"/>
      <point x="459" y="-151" type="line"/>
      <point x="451" y="-143"/>
      <point x="461" y="-133" type="line"/>
      <point x="491" y="-94"/>
      <point x="523" y="-50" type="line"/>
      <point x="663" y="164"/>
      <point x="660" y="440" type="line"/>
      <point x="660" y="450"/>
      <point x="661" y="451" type="line"/>
      <point x="665" y="453"/>
      <point x="669" y="452" type="line"/>
      <point x="709" y="438"/>
      <point x="741" y="424" type="line"/>
      <point x="748" y="420"/>
      <point x="748" y="416" type="line"/>
      <point x="746" y="411"/>
      <point x="739" y="411" type="line"/>
      <point x="729" y="409"/>
      <point x="720" y="399" type="line"/>
      <point x="718" y="398"/>
      <point x="702" y="349" type="line"/>
      <point x="748" y="163"/>
      <point x="804" y="63" type="line"/>
      <point x="861" y="-33"/>
      <point x="966" y="-106" type="line"/>
      <point x="971" y="-111"/>
      <point x="967" y="-115" type="line"/>
      <point x="963" y="-121"/>
      <point x="956" y="-118" type="line"/>
      <point x="938" y="-114"/>
      <point x="923" y="-121" type="line"/>
      <point x="905" y="-129"/>
      <point x="896" y="-146" type="line"/>
      <point x="893" y="-154"/>
      <point x="883" y="-145" type="line"/>
      <point x="821" y="-66"/>
      <point x="776" y="25" type="line"/>
      <point x="735" y="116"/>
      <point x="694" y="293" type="line"/>
      <point x="693" y="291"/>
      <point x="693" y="288" type="line"/>
    </contour>
    <contour>
      <point x="210" y="198" type="line"/>
      <point x="234" y="241"/>
      <point x="241" y="289" type="line"/>
      <point x="241" y="298"/>
      <point x="244" y="299" type="line"/>
      <point x="255" y="305"/>
      <point x="314" y="270" type="line"/>
      <point x="325" y="263"/>
      <point x="324" y="259" type="line"/>
      <point x="322" y="253"/>
      <point x="313" y="254" type="line"/>
      <point x="300" y="253"/>
      <point x="290" y="243" type="line"/>
      <point x="286" y="240"/>
      <point x="262" y="198" type="line"/>
      <point x="377" y="198" type="line"/>
      <point x="385" y="198"/>
      <point x="388" y="202" type="line"/>
      <point x="424" y="241" type="line"/>
      <point x="428" y="247"/>
      <point x="432" y="247" type="line"/>
      <point x="443" y="246"/>
      <point x="493" y="184" type="line"/>
      <point x="501" y="173"/>
      <point x="488" y="172" type="line"/>
      <point x="483" y="172"/>
      <point x="480" y="171" type="line"/>
      <point x="456" y="169"/>
      <point x="438" y="133" type="line"/>
      <point x="416" y="85"/>
      <point x="375" y="15" type="line"/>
      <point x="389" y="10"/>
      <point x="400" y="4" type="line"/>
      <point x="451" y="-20"/>
      <point x="458" y="-62" type="line"/>
      <point x="462" y="-84"/>
      <point x="452" y="-102" type="line"/>
      <point x="443" y="-115"/>
      <point x="439" y="-115" type="line"/>
      <point x="435" y="-115"/>
      <point x="428" y="-103" type="line"/>
      <point x="397" y="-60"/>
      <point x="347" y="-24" type="line"/>
      <point x="242" y="-127"/>
      <point x="96" y="-156" type="line"/>
      <point x="78" y="-162"/>
      <point x="75" y="-152" type="line"/>
      <point x="73" y="-143"/>
      <point x="85" y="-139" type="line"/>
      <point x="210" y="-97"/>
      <point x="307" y="-2" type="line"/>
      <point x="229" y="29"/>
      <point x="153" y="57" type="line"/>
      <point x="143" y="63"/>
      <point x="142" y="66" type="line"/>
      <point x="142" y="72"/>
      <point x="143" y="76" type="line"/>
      <point x="177" y="129"/>
      <point x="200" y="168" type="line"/>
      <point x="149" y="168" type="line"/>
      <point x="108" y="167"/>
      <point x="78" y="161" type="line"/>
      <point x="69" y="158"/>
      <point x="68" y="167" type="line"/>
      <point x="63" y="185"/>
      <point x="49" y="197" type="line"/>
      <point x="41" y="204"/>
      <point x="45" y="208" type="line"/>
      <point x="49" y="211"/>
      <point x="56" y="207" type="line"/>
      <point x="93" y="198"/>
      <point x="138" y="198" type="line"/>
    </contour>
    <contour>
      <point x="506" y="357"/>
      <point x="510" y="363" type="line"/>
      <point x="535" y="390" type="line"/>
      <point x="538" y="393"/>
      <point x="542" y="393" type="line"/>
      <point x="554" y="392"/>
      <point x="593" y="339" type="line"/>
      <point x="600" y="327"/>
      <point x="587" y="326" type="line"/>
      <point x="583" y="326"/>
      <point x="580" y="325" type="line"/>
      <point x="538" y="320"/>
      <point x="488" y="255" type="line"/>
      <point x="483" y="243"/>
      <point x="475" y="247" type="line"/>
      <point x="466" y="252"/>
      <point x="473" y="267" type="line"/>
      <point x="484" y="297"/>
      <point x="494" y="327" type="line"/>
      <point x="126" y="327" type="line"/>
      <point x="110" y="270"/>
      <point x="102" y="258" type="line"/>
      <point x="87" y="244"/>
      <point x="72" y="245" type="line"/>
      <point x="59" y="248"/>
      <point x="52" y="255" type="line"/>
      <point x="29" y="278"/>
      <point x="62" y="303" type="line"/>
      <point x="97" y="333"/>
      <point x="105" y="397" type="line"/>
      <point x="106" y="406"/>
      <point x="113" y="406" type="line"/>
      <point x="121" y="406"/>
      <point x="122" y="396" type="line"/>
      <point x="125" y="376"/>
      <point x="126" y="357" type="line"/>
      <point x="309" y="357" type="line"/>
      <point x="308" y="359"/>
      <point x="309" y="359" type="line"/>
      <point x="289" y="432"/>
      <point x="280" y="447" type="line"/>
      <point x="273" y="456"/>
      <point x="280" y="463" type="line"/>
      <point x="288" y="471"/>
      <point x="298" y="459" type="line"/>
      <point x="330" y="436"/>
      <point x="348" y="414" type="line"/>
      <point x="359" y="398"/>
      <point x="358" y="392" type="line"/>
      <point x="354" y="367"/>
      <point x="339" y="357" type="line"/>
      <point x="497" y="357" type="line"/>
    </contour>
  </outline>
</glyph>
<glyph name="u30019" format="2">
  <advance width="1000"/>
  <unicode hex="30019"/>
  <outline>
    <contour>
      <point x="242" y="190" type="line"/>
      <point x="239" y="178"/>
      <point x="236" y="166" type="line"/>
      <point x="201" y="-32"/>
      <point x="58" y="-158" type="line"/>
      <point x="45" y="-171"/>
      <point x="40" y="-161" type="line"/>
      <point x="33" y="-155"/>
      <point x="45" y="-144" type="line"/>
      <point x="108" y="-69"/>
      <point x="137" y="-4" type="line"/>
      <point x="190" y="94"/>
      <point x="210" y="352" type="line"/>
      <point x="144" y="352" type="line"/>
      <point x="103" y="351"/>
      <point x="72" y="345" type="line"/>
      <point x="64" y="342"/>
      <point x="62" y="351" type="line"/>
      <point x="58" y="368"/>
      <point x="43" y="380" type="line"/>
      <point x="36" y="387"/>
      <point x="39" y="391" type="line"/>
      <point x="43" y="394"/>
      <point x="50" y="390" type="line"/>
      <point x="87" y="382"/>
      <point x="132" y="382" type="line"/>
      <point x="213" y="382" type="line"/>
      <point x="218" y="493"/>
      <point x="218" y="641" type="line"/>
      <point x="181" y="641" type="line"/>
      <point x="140" y="640"/>
      <point x="109" y="634" type="line"/>
      <point x="102" y="631"/>
      <point x="99" y="640" type="line"/>
      <point x="95" y="657"/>
      <point x="80" y="669" type="line"/>
      <point x="73" y="676"/>
      <point x="76" y="680" type="line"/>
      <point x="80" y="683"/>
      <point x="87" y="679" type="line"/>
      <point x="124" y="671"/>
      <point x="169" y="671" type="line"/>
      <point x="303" y="671" type="line"/>
      <point x="309" y="671"/>
      <point x="314" y="678" type="line"/>
      <point x="350" y="718" type="line"/>
      <point x="356" y="725"/>
      <point x="363" y="718" type="line"/>
      <point x="389" y="692"/>
      <point x="406" y="671" type="line"/>
      <point x="417" y="657"/>
      <point x="410" y="647" type="line"/>
      <point x="405" y="642"/>
      <point x="393" y="641" type="line"/>
      <point x="274" y="641" type="line"/>
      <point x="268" y="491"/>
      <point x="263" y="382" type="line"/>
      <point x="336" y="382" type="line"/>
      <point x="342" y="382"/>
      <point x="348" y="389" type="line"/>
      <point x="383" y="429" type="line"/>
      <point x="390" y="436"/>
      <point x="396" y="429" type="line"/>
      <point x="422" y="403"/>
      <point x="439" y="382" type="line"/>
      <point x="450" y="368"/>
      <point x="443" y="358" type="line"/>
      <point x="438" y="353"/>
      <point x="426" y="352" type="line"/>
      <point x="261" y="352" type="line"/>
      <point x="255" y="269"/>
      <point x="245" y="210" type="line"/>
      <point x="322" y="164"/>
      <point x="357" y="124" type="line"/>
      <point x="390" y="90"/>
      <point x="393" y="58" type="line"/>
      <point x="396" y="40"/>
      <point x="383" y="13" type="line"/>
      <point x="372" y="-9"/>
      <point x="362" y="-9" type="line"/>
      <point x="354" y="-9"/>
      <point x="351" y="9" type="line"/>
      <point x="339" y="65"/>
      <point x="304" y="116" type="line"/>
      <point x="282" y="154"/>
    </contour>
    <contour>
      <point x="415" y="9" type="line"/>
      <point x="466" y="139"/>
      <point x="466" y="490" type="line"/>
      <point x="466" y="581" type="line"/>
      <point x="465" y="618"/>
      <point x="456" y="657" type="line"/>
      <point x="455" y="665"/>
      <point x="459" y="668" type="line"/>
      <point x="464" y="669"/>
      <point x="471" y="662" type="line"/>
      <point x="484" y="648"/>
      <point x="506" y="636" type="line"/>
      <point x="673" y="636" type="line"/>
      <point x="671" y="692"/>
      <point x="623" y="757" type="line"/>
      <point x="619" y="764"/>
      <point x="623" y="770" type="line"/>
      <point x="629" y="775"/>
      <point x="639" y="767" type="line"/>
      <point x="720" y="723"/>
      <point x="723" y="690" type="line"/>
      <point x="724" y="671"/>
      <point x="708" y="644" type="line"/>
      <point x="704" y="640"/>
      <point x="703" y="636" type="line"/>
      <point x="824" y="636" type="line"/>
      <point x="830" y="636"/>
      <point x="833" y="640" type="line"/>
      <point x="851" y="667" type="line"/>
      <point x="857" y="675"/>
      <point x="864" y="668" type="line"/>
      <point x="893" y="649"/>
      <point x="920" y="628" type="line"/>
      <point x="926" y="622"/>
      <point x="925" y="616" type="line"/>
      <point x="922" y="610"/>
      <point x="912" y="609" type="line"/>
      <point x="900" y="607"/>
      <point x="895" y="598" type="line"/>
      <point x="891" y="589"/>
      <point x="891" y="576" type="line"/>
      <point x="891" y="521" type="line"/>
      <point x="891" y="490"/>
      <point x="896" y="437" type="line"/>
      <point x="898" y="425"/>
      <point x="890" y="421" type="line"/>
      <point x="855" y="401"/>
      <point x="849" y="401" type="line"/>
      <point x="844" y="402"/>
      <point x="844" y="412" type="line"/>
      <point x="844" y="449" type="line"/>
      <point x="512" y="449" type="line"/>
      <point x="511" y="410"/>
      <point x="510" y="372" type="line"/>
      <point x="512" y="375"/>
      <point x="513" y="375" type="line"/>
      <point x="516" y="376"/>
      <point x="522" y="369" type="line"/>
      <point x="534" y="356"/>
      <point x="558" y="339" type="line"/>
      <point x="858" y="339" type="line"/>
      <point x="867" y="339"/>
      <point x="868" y="340" type="line"/>
      <point x="893" y="372" type="line"/>
      <point x="895" y="376"/>
      <point x="898" y="376" type="line"/>
      <point x="902" y="376"/>
      <point x="906" y="372" type="line"/>
      <point x="937" y="348"/>
      <point x="960" y="323" type="line"/>
      <point x="967" y="315"/>
      <point x="951" y="310" type="line"/>
      <point x="928" y="300"/>
      <point x="925" y="296" type="line"/>
      <point x="922" y="290"/>
      <point x="922" y="283" type="line"/>
      <point x="922" y="-72" type="line"/>
      <point x="922" y="-105"/>
      <point x="904" y="-130" type="line"/>
      <point x="887" y="-154"/>
      <point x="860" y="-164" type="line"/>
      <point x="853" y="-166"/>
      <point x="850" y="-159" type="line"/>
      <point x="838" y="-115"/>
      <point x="768" y="-104" type="line"/>
      <point x="756" y="-102"/>
      <point x="757" y="-92" type="line"/>
      <point x="758" y="-83"/>
      <point x="771" y="-84" type="line"/>
      <point x="862" y="-89"/>
      <point x="868" y="-86" type="line"/>
      <point x="875" y="-82"/>
      <point x="875" y="-62" type="line"/>
      <point x="875" y="113" type="line"/>
      <point x="809" y="113" type="line"/>
      <point x="809" y="34"/>
      <point x="813" y="-25" type="line"/>
      <point x="812" y="-34"/>
      <point x="768" y="-63" type="line"/>
      <point x="754" y="-72"/>
      <point x="755" y="-52" type="line"/>
      <point x="760" y="42"/>
      <point x="761" y="113" type="line"/>
      <point x="688" y="113" type="line"/>
      <point x="688" y="1"/>
      <point x="691" y="-76" type="line"/>
      <point x="690" y="-85"/>
      <point x="646" y="-114" type="line"/>
      <point x="633" y="-123"/>
      <point x="634" y="-103" type="line"/>
      <point x="640" y="24"/>
      <point x="640" y="113" type="line"/>
      <point x="563" y="113" type="line"/>
      <point x="563" y="52" type="line"/>
      <point x="562" y="-133"/>
      <point x="558" y="-139" type="line"/>
      <point x="523" y="-165"/>
      <point x="518" y="-166" type="line"/>
      <point x="510" y="-165"/>
      <point x="511" y="-146" type="line"/>
      <point x="515" y="-87"/>
      <point x="516" y="52" type="line"/>
      <point x="516" y="282" type="line"/>
      <point x="515" y="317"/>
      <point x="511" y="362" type="line"/>
      <point x="510" y="363" type="line"/>
      <point x="502" y="167"/>
      <point x="483" y="84" type="line"/>
      <point x="448" y="-55"/>
      <point x="337" y="-155" type="line"/>
      <point x="324" y="-165"/>
      <point x="317" y="-155" type="line"/>
      <point x="311" y="-145"/>
      <point x="320" y="-138" type="line"/>
      <point x="374" y="-77"/>
    </contour>
    <contour>
      <point x="513" y="605" type="line"/>
      <point x="513" y="534" type="line"/>
      <point x="513" y="507"/>
      <point x="512" y="479" type="line"/>
      <point x="844" y="479" type="line"/>
      <point x="844" y="605" type="line"/>
    </contour>
    <contour>
      <point x="762" y="309" type="line"/>
      <point x="688" y="309" type="line"/>
      <point x="688" y="144" type="line"/>
      <point x="761" y="144" type="line"/>
      <point x="762" y="157"/>
      <point x="762" y="167" type="line"/>
    </contour>
    <contour>
      <point x="809" y="144" type="line"/>
      <point x="875" y="144" type="line"/>
      <point x="875" y="309" type="line"/>
      <point x="809" y="309" type="line"/>
    </contour>
    <contour>
      <point x="641" y="309" type="line"/>
      <point x="563" y="309" type="line"/>
      <point x="563" y="144" type="line"/>
      <point x="641" y="144" type="line"/>
    </contour>
  </outline>
</glyph>
<glyph name="u3001A" format="2">
  <advance width="1000"/>
  <unicode hex="3001A"/>
  <outline>
    <contour>
      <point x="611" y="209" type="line"/>
      <point x="606" y="199"/>
      <point x="595" y="179"/>
      <point x="573" y="145"/>
      <point x="538" y="98"/>
      <point x="521" y="79" type="line"/>
      <point x="510" y="67" type="line"/>
      <point x="496" y="80" type="line"/>
      <point x="501" y="86"/>
      <point x="520" y="112"/>
      <point x="545" y="158"/>
      <point x="570" y="217"/>
      <point x="583" y="253"/>
      <point x="601" y="312"/>
      <point x="604" y="328" type="line"/>
      <point x="608" y="356" type="line"/>
      <point x="611" y="377" type="line"/>
      <point x="686" y="354" type="line"/>
      <point x="694" y="351"/>
      <point x="704" y="342"/>
      <point x="703" y="326"/>
      <point x="686" y="323" type="line"/>
      <point x="655" y="318" type="line"/>
      <point x="651" y="306"/>
      <point x="643" y="281"/>
      <point x="636" y="264" type="line"/>
      <point x="629" y="248" type="line"/>
      <point x="624" y="237" type="line"/>
      <point x="833" y="237" type="line"/>
      <point x="880" y="284" type="line"/>
      <point x="940" y="235" type="line"/>
      <point x="944" y="232"/>
      <point x="950" y="225"/>
      <point x="948" y="219" type="line"/>
      <point x="947" y="214"/>
      <point x="938" y="210"/>
      <point x="936" y="210" type="line"/>
      <point x="858" y="209" type="line"/>
      <point x="854" y="188"/>
      <point x="845" y="145"/>
      <point x="822" y="78"/>
      <point x="804" y="39"/>
      <point x="776" y="-4"/>
      <point x="771" y="-10" type="line"/>
      <point x="750" y="-33" type="line"/>
      <point x="756" y="-37"/>
      <point x="769" y="-45"/>
      <point x="819" y="-69"/>
      <point x="883" y="-88"/>
      <point x="939" y="-101"/>
      <point x="952" y="-101" type="line"/>
      <point x="962" y="-102" type="line"/>
      <point x="962" y="-117" type="line"/>
      <point x="953" y="-118"/>
      <point x="938" y="-120"/>
      <point x="918" y="-130"/>
      <point x="914" y="-136" type="line"/>
      <point x="907" y="-146" type="line"/>
      <point x="896" y="-143"/>
      <point x="863" y="-133"/>
      <point x="794" y="-104"/>
      <point x="744" y="-72"/>
      <point x="732" y="-64" type="line"/>
      <point x="724" y="-58" type="line"/>
      <point x="705" y="-72"/>
      <point x="678" y="-90"/>
      <point x="638" y="-108"/>
      <point x="589" y="-123"/>
      <point x="531" y="-137"/>
      <point x="516" y="-139" type="line"/>
      <point x="493" y="-143" type="line"/>
      <point x="489" y="-122" type="line"/>
      <point x="504" y="-119"/>
      <point x="538" y="-111"/>
      <point x="579" y="-98"/>
      <point x="620" y="-81"/>
      <point x="658" y="-63"/>
      <point x="665" y="-57" type="line"/>
      <point x="693" y="-34" type="line"/>
      <point x="688" y="-30"/>
      <point x="666" y="-9"/>
      <point x="639" y="27"/>
      <point x="606" y="93"/>
      <point x="602" y="107" type="line"/>
      <point x="594" y="132" type="line"/>
      <point x="611" y="139" type="line"/>
      <point x="617" y="122"/>
      <point x="628" y="99"/>
      <point x="658" y="50"/>
      <point x="688" y="13"/>
      <point x="709" y="-3" type="line"/>
      <point x="718" y="-10" type="line"/>
      <point x="730" y="2"/>
      <point x="750" y="26"/>
      <point x="773" y="74"/>
      <point x="795" y="137"/>
      <point x="798" y="149" type="line"/>
      <point x="810" y="209" type="line"/>
    </contour>
    <contour>
      <point x="261" y="-58" type="line"/>
      <point x="261" y="284" type="line"/>
      <point x="160" y="284" type="line"/>
      <point x="84" y="280" type="line"/>
      <point x="76" y="280"/>
      <point x="75" y="280" type="line"/>
      <point x="66" y="279" type="line"/>
      <point x="46" y="322" type="line"/>
      <point x="53" y="320"/>
      <point x="68" y="317"/>
      <point x="117" y="312"/>
      <point x="160" y="312" type="line"/>
      <point x="397" y="312" type="line"/>
      <point x="443" y="358" type="line"/>
      <point x="505" y="310" type="line"/>
      <point x="510" y="305"/>
      <point x="514" y="300"/>
      <point x="511" y="288"/>
      <point x="503" y="283"/>
      <point x="500" y="283" type="line"/>
      <point x="307" y="284" type="line"/>
      <point x="307" y="146" type="line"/>
      <point x="349" y="146" type="line"/>
      <point x="396" y="193" type="line"/>
      <point x="457" y="145" type="line"/>
      <point x="460" y="142"/>
      <point x="466" y="134"/>
      <point x="464" y="128" type="line"/>
      <point x="463" y="123"/>
      <point x="455" y="119"/>
      <point x="451" y="119" type="line"/>
      <point x="307" y="119" type="line"/>
      <point x="307" y="-48" type="line"/>
      <point x="313" y="-47"/>
      <point x="317" y="-46" type="line"/>
      <point x="368" y="-34" type="line"/>
      <point x="394" y="-28"/>
      <point x="474" y="-7"/>
      <point x="491" y="-1" type="line"/>
      <point x="506" y="3" type="line"/>
      <point x="515" y="-16" type="line"/>
      <point x="500" y="-21"/>
      <point x="461" y="-35"/>
      <point x="416" y="-50"/>
      <point x="323" y="-76"/>
      <point x="268" y="-92"/>
      <point x="202" y="-108"/>
      <point x="183" y="-113" type="line"/>
      <point x="119" y="-127" type="line"/>
      <point x="98" y="-132" type="line"/>
      <point x="97" y="-146"/>
      <point x="94" y="-160"/>
      <point x="87" y="-167"/>
      <point x="82" y="-167" type="line"/>
      <point x="77" y="-167"/>
      <point x="67" y="-156"/>
      <point x="63" y="-147" type="line"/>
      <point x="38" y="-88" type="line"/>
      <point x="49" y="-87"/>
      <point x="54" y="-87" type="line"/>
      <point x="86" y="-84" type="line"/>
      <point x="107" y="-82" type="line"/>
      <point x="107" y="101" type="line"/>
      <point x="107" y="127"/>
      <point x="104" y="170"/>
      <point x="104" y="173" type="line"/>
      <point x="104" y="180" type="line"/>
      <point x="154" y="169" type="line"/>
      <point x="179" y="163"/>
      <point x="197" y="152"/>
      <point x="199" y="140"/>
      <point x="186" y="127"/>
      <point x="175" y="125" type="line"/>
      <point x="154" y="119" type="line"/>
      <point x="154" y="-75" type="line"/>
      <point x="164" y="-74"/>
      <point x="208" y="-67"/>
      <point x="245" y="-61"/>
      <point x="254" y="-59" type="line"/>
      <point x="261" y="-58" type="line"/>
    </contour>
    <contour>
      <point x="471" y="662" type="line"/>
      <point x="167" y="662" type="line"/>
      <point x="92" y="659" type="line"/>
      <point x="83" y="659"/>
      <point x="83" y="659" type="line"/>
      <point x="73" y="657" type="line"/>
      <point x="53" y="701" type="line"/>
      <point x="60" y="699"/>
      <point x="75" y="695"/>
      <point x="125" y="690"/>
      <point x="167" y="690" type="line"/>
      <point x="816" y="690" type="line"/>
      <point x="863" y="736" type="line"/>
      <point x="924" y="688" type="line"/>
      <point x="928" y="685"/>
      <point x="933" y="677"/>
      <point x="932" y="672" type="line"/>
      <point x="930" y="666"/>
      <point x="922" y="662"/>
      <point x="919" y="662" type="line"/>
      <point x="541" y="662" type="line"/>
      <point x="515" y="638" type="line"/>
      <point x="515" y="627" type="line"/>
      <point x="538" y="618"/>
      <point x="550" y="615" type="line"/>
      <point x="599" y="601" type="line"/>
      <point x="620" y="594"/>
      <point x="686" y="571"/>
      <point x="728" y="556"/>
      <point x="798" y="527"/>
      <point x="845" y="507"/>
      <point x="877" y="488"/>
      <point x="903" y="467"/>
      <point x="914" y="447"/>
      <point x="916" y="421"/>
      <point x="901" y="407"/>
      <point x="882" y="406"/>
      <point x="857" y="420"/>
      <point x="805" y="461"/>
      <point x="775" y="481"/>
      <point x="718" y="515"/>
      <point x="658" y="545"/>
      <point x="615" y="564"/>
      <point x="569" y="583"/>
      <point x="540" y="595" type="line"/>
      <point x="515" y="604" type="line"/>
      <point x="515" y="443" type="line"/>
      <point x="515" y="429"/>
      <point x="517" y="403"/>
      <point x="517" y="398" type="line"/>
      <point x="516" y="392"/>
      <point x="509" y="383"/>
      <point x="481" y="376"/>
      <point x="473" y="383" type="line"/>
      <point x="471" y="384"/>
      <point x="468" y="389"/>
      <point x="468" y="396" type="line"/>
      <point x="468" y="594" type="line"/>
      <point x="455" y="585"/>
      <point x="420" y="561"/>
      <point x="353" y="523"/>
      <point x="258" y="482"/>
      <point x="183" y="458"/>
      <point x="93" y="434"/>
      <point x="72" y="430" type="line"/>
      <point x="46" y="424" type="line"/>
      <point x="40" y="443" type="line"/>
      <point x="56" y="446"/>
      <point x="97" y="457"/>
      <point x="166" y="480"/>
      <point x="254" y="515"/>
      <point x="327" y="552"/>
      <point x="415" y="609"/>
      <point x="442" y="636" type="line"/>
      <point x="471" y="662" type="line"/>
    </contour>
  </outline>
</glyph>
<glyph name="u3001B" format="2">
  <advance width="1000"/>
  <unicode hex="3001B"/>
  <outline>
    <contour>
      <point x="223" y="-137"/>
      <point x="189" y="-144" type="line"/>
      <point x="185" y="-145"/>
      <point x="184" y="-142" type="line"/>
      <point x="171" y="-122"/>
      <point x="161" y="-106" type="line"/>
      <point x="155" y="-97"/>
      <point x="168" y="-100" type="line"/>
      <point x="228" y="-105"/>
      <point x="234" y="-106" type="line"/>
      <point x="470" y="-106" type="line"/>
      <point x="470" y="31" type="line"/>
      <point x="339" y="31" type="line"/>
      <point x="313" y="31"/>
      <point x="279" y="24" type="line"/>
      <point x="274" y="23"/>
      <point x="273" y="26" type="line"/>
      <point x="261" y="46"/>
      <point x="251" y="62" type="line"/>
      <point x="245" y="71"/>
      <point x="258" y="68" type="line"/>
      <point x="317" y="63"/>
      <point x="324" y="62" type="line"/>
      <point x="470" y="62" type="line"/>
      <point x="470" y="117" type="line"/>
      <point x="469" y="155"/>
      <point x="466" y="186" type="line"/>
      <point x="465" y="201"/>
      <point x="475" y="198" type="line"/>
      <point x="527" y="182"/>
      <point x="549" y="170" type="line"/>
      <point x="558" y="165"/>
      <point x="549" y="159" type="line"/>
      <point x="527" y="144"/>
      <point x="523" y="140" type="line"/>
      <point x="517" y="133"/>
      <point x="517" y="117" type="line"/>
      <point x="517" y="62" type="line"/>
      <point x="591" y="62" type="line"/>
      <point x="603" y="62"/>
      <point x="606" y="65" type="line"/>
      <point x="611" y="70"/>
      <point x="620" y="80" type="line"/>
      <point x="646" y="116" type="line"/>
      <point x="652" y="125"/>
      <point x="661" y="116" type="line"/>
      <point x="691" y="89"/>
      <point x="721" y="59" type="line"/>
      <point x="730" y="49"/>
      <point x="729" y="40" type="line"/>
      <point x="728" y="32"/>
      <point x="715" y="31" type="line"/>
      <point x="517" y="31" type="line"/>
      <point x="517" y="-106" type="line"/>
      <point x="685" y="-106" type="line"/>
      <point x="696" y="-106"/>
      <point x="700" y="-103" type="line"/>
      <point x="705" y="-98"/>
      <point x="714" y="-88" type="line"/>
      <point x="739" y="-52" type="line"/>
      <point x="746" y="-43"/>
      <point x="755" y="-52" type="line"/>
      <point x="785" y="-79"/>
      <point x="814" y="-109" type="line"/>
      <point x="824" y="-119"/>
      <point x="823" y="-128" type="line"/>
      <point x="821" y="-136"/>
      <point x="809" y="-137" type="line"/>
      <point x="249" y="-137" type="line"/>
    </contour>
    <contour>
      <point x="827" y="711"/>
      <point x="843" y="729" type="line"/>
      <point x="868" y="765" type="line"/>
      <point x="875" y="773"/>
      <point x="884" y="765" type="line"/>
      <point x="953" y="703"/>
      <point x="952" y="688" type="line"/>
      <point x="950" y="681"/>
      <point x="938" y="680" type="line"/>
      <point x="156" y="680" type="line"/>
      <point x="115" y="679"/>
      <point x="85" y="673" type="line"/>
      <point x="76" y="670"/>
      <point x="75" y="679" type="line"/>
      <point x="70" y="696"/>
      <point x="56" y="709" type="line"/>
      <point x="48" y="716"/>
      <point x="52" y="720" type="line"/>
      <point x="56" y="723"/>
      <point x="63" y="719" type="line"/>
      <point x="100" y="710"/>
      <point x="145" y="710" type="line"/>
      <point x="813" y="710" type="line"/>
    </contour>
    <contour>
      <point x="790" y="614"/>
      <point x="793" y="618" type="line"/>
      <point x="811" y="646" type="line"/>
      <point x="817" y="653"/>
      <point x="824" y="646" type="line"/>
      <point x="853" y="628"/>
      <point x="880" y="606" type="line"/>
      <point x="889" y="599"/>
      <point x="888" y="595" type="line"/>
      <point x="886" y="590"/>
      <point x="879" y="586" type="line"/>
      <point x="854" y="574"/>
      <point x="853" y="567" type="line"/>
      <point x="851" y="562"/>
      <point x="851" y="555" type="line"/>
      <point x="851" y="434" type="line"/>
      <point x="851" y="398"/>
      <point x="856" y="339" type="line"/>
      <point x="857" y="328"/>
      <point x="852" y="327" type="line"/>
      <point x="810" y="313"/>
      <point x="806" y="313" type="line"/>
      <point x="804" y="314"/>
      <point x="804" y="324" type="line"/>
      <point x="804" y="381" type="line"/>
      <point x="597" y="381" type="line"/>
      <point x="597" y="343" type="line"/>
      <point x="597" y="335"/>
      <point x="591" y="334" type="line"/>
      <point x="571" y="326"/>
      <point x="553" y="317" type="line"/>
      <point x="544" y="314"/>
      <point x="545" y="329" type="line"/>
      <point x="549" y="391"/>
      <point x="550" y="485" type="line"/>
      <point x="550" y="558" type="line"/>
      <point x="549" y="593"/>
      <point x="545" y="638" type="line"/>
      <point x="543" y="649"/>
      <point x="547" y="650" type="line"/>
      <point x="550" y="651"/>
      <point x="557" y="645" type="line"/>
      <point x="568" y="632"/>
      <point x="592" y="614" type="line"/>
      <point x="784" y="614" type="line"/>
    </contour>
    <contour>
      <point x="597" y="488" type="line"/>
      <point x="597" y="411" type="line"/>
      <point x="804" y="411" type="line"/>
      <point x="804" y="488" type="line"/>
    </contour>
    <contour>
      <point x="597" y="584" type="line"/>
      <point x="597" y="519" type="line"/>
      <point x="804" y="519" type="line"/>
      <point x="804" y="584" type="line"/>
    </contour>
    <contour>
      <point x="390" y="614"/>
      <point x="393" y="618" type="line"/>
      <point x="410" y="646" type="line"/>
      <point x="417" y="653"/>
      <point x="424" y="646" type="line"/>
      <point x="452" y="628"/>
      <point x="479" y="606" type="line"/>
      <point x="488" y="599"/>
      <point x="487" y="595" type="line"/>
      <point x="485" y="590"/>
      <point x="479" y="586" type="line"/>
      <point x="453" y="574"/>
      <point x="452" y="567" type="line"/>
      <point x="450" y="562"/>
      <point x="450" y="555" type="line"/>
      <point x="450" y="434" type="line"/>
      <point x="450" y="398"/>
      <point x="456" y="339" type="line"/>
      <point x="457" y="328"/>
      <point x="451" y="327" type="line"/>
      <point x="409" y="313"/>
      <point x="405" y="313" type="line"/>
      <point x="403" y="314"/>
      <point x="403" y="324" type="line"/>
      <point x="403" y="381" type="line"/>
      <point x="196" y="381" type="line"/>
      <point x="196" y="343" type="line"/>
      <point x="196" y="335"/>
      <point x="190" y="334" type="line"/>
      <point x="171" y="326"/>
      <point x="152" y="317" type="line"/>
      <point x="144" y="314"/>
      <point x="145" y="329" type="line"/>
      <point x="148" y="391"/>
      <point x="149" y="485" type="line"/>
      <point x="149" y="558" type="line"/>
      <point x="148" y="593"/>
      <point x="145" y="638" type="line"/>
      <point x="143" y="649"/>
      <point x="146" y="650" type="line"/>
      <point x="149" y="651"/>
      <point x="156" y="645" type="line"/>
      <point x="168" y="632"/>
      <point x="191" y="614" type="line"/>
      <point x="384" y="614" type="line"/>
    </contour>
    <contour>
      <point x="196" y="488" type="line"/>
      <point x="196" y="411" type="line"/>
      <point x="403" y="411" type="line"/>
      <point x="403" y="488" type="line"/>
    </contour>
    <contour>
      <point x="196" y="584" type="line"/>
      <point x="196" y="519" type="line"/>
      <point x="403" y="519" type="line"/>
      <point x="403" y="584" type="line"/>
    </contour>
    <contour>
      <point x="228" y="188"/>
      <point x="215" y="122" type="line"/>
      <point x="200" y="29"/>
      <point x="161" y="-42" type="line"/>
      <point x="119" y="-114"/>
      <point x="63" y="-162" type="line"/>
      <point x="53" y="-169"/>
      <point x="47" y="-162" type="line"/>
      <point x="40" y="-153"/>
      <point x="49" y="-144" type="line"/>
      <point x="100" y="-90"/>
      <point x="130" y="-24" type="line"/>
      <point x="158" y="45"/>
      <point x="171" y="137" type="line"/>
      <point x="182" y="204"/>
      <point x="182" y="239" type="line"/>
      <point x="182" y="280"/>
      <point x="178" y="307" type="line"/>
      <point x="175" y="319"/>
      <point x="181" y="320" type="line"/>
      <point x="186" y="322"/>
      <point x="192" y="313" type="line"/>
      <point x="210" y="290"/>
      <point x="234" y="269" type="line"/>
      <point x="739" y="269" type="line"/>
      <point x="746" y="270"/>
      <point x="750" y="273" type="line"/>
      <point x="781" y="307" type="line"/>
      <point x="784" y="311"/>
      <point x="788" y="311" type="line"/>
      <point x="792" y="311"/>
      <point x="796" y="307" type="line"/>
      <point x="832" y="278"/>
      <point x="854" y="257" type="line"/>
      <point x="856" y="253"/>
      <point x="856" y="252" type="line"/>
      <point x="856" y="250"/>
      <point x="854" y="249" type="line"/>
      <point x="819" y="230"/>
      <point x="816" y="225" type="line"/>
      <point x="813" y="219"/>
      <point x="813" y="200" type="line"/>
      <point x="815" y="148"/>
      <point x="831" y="52" type="line"/>
      <point x="847" y="-4"/>
      <point x="874" y="-49" type="line"/>
      <point x="885" y="-67"/>
      <point x="889" y="-66" type="line"/>
      <point x="896" y="-65"/>
      <point x="903" y="-47" type="line"/>
      <point x="918" y="-6"/>
      <point x="938" y="86" type="line"/>
      <point x="941" y="96"/>
      <point x="951" y="95" type="line"/>
      <point x="959" y="91"/>
      <point x="958" y="81" type="line"/>
      <point x="940" y="-2"/>
      <point x="941" y="-58" type="line"/>
      <point x="942" y="-109"/>
      <point x="952" y="-151" type="line"/>
      <point x="956" y="-162"/>
      <point x="950" y="-166" type="line"/>
      <point x="944" y="-171"/>
      <point x="926" y="-158" type="line"/>
      <point x="890" y="-146"/>
      <point x="854" y="-98" type="line"/>
      <point x="809" y="-37"/>
      <point x="785" y="54" type="line"/>
      <point x="764" y="159"/>
      <point x="766" y="238" type="line"/>
      <point x="229" y="238" type="line"/>
    </contour>
  </outline>
</glyph>
<glyph name="u3001C" format="2">
  <advance width="1000"/>
  <unicode hex="3001C"/>
  <outline>
    <contour>
      <point x="296" y="583"/>
      <point x="317" y="571" type="line"/>
      <point x="322" y="568"/>
      <point x="322" y="564" type="line"/>
      <point x="320" y="560"/>
      <point x="316" y="559" type="line"/>
      <point x="302" y="556"/>
      <point x="298" y="549" type="line"/>
      <point x="294" y="541"/>
      <point x="293" y="528" type="line"/>
      <point x="293" y="399" type="line"/>
      <point x="294" y="382"/>
      <point x="295" y="355" type="line"/>
      <point x="296" y="347"/>
      <point x="289" y="343" type="line"/>
      <point x="246" y="322"/>
      <point x="243" y="323" type="line"/>
      <point x="239" y="326"/>
      <point x="242" y="336" type="line"/>
      <point x="245" y="360"/>
      <point x="246" y="399" type="line"/>
      <point x="246" y="528" type="line"/>
      <point x="245" y="558"/>
      <point x="242" y="579" type="line"/>
      <point x="186" y="460"/>
      <point x="63" y="347" type="line"/>
      <point x="48" y="342"/>
      <point x="44" y="351" type="line"/>
      <point x="39" y="363"/>
      <point x="52" y="369" type="line"/>
      <point x="168" y="479"/>
      <point x="262" y="660" type="line"/>
      <point x="138" y="660" type="line"/>
      <point x="97" y="659"/>
      <point x="66" y="653" type="line"/>
      <point x="58" y="650"/>
      <point x="57" y="659" type="line"/>
      <point x="52" y="677"/>
      <point x="37" y="689" type="line"/>
      <point x="29" y="696"/>
      <point x="33" y="700" type="line"/>
      <point x="37" y="703"/>
      <point x="44" y="699" type="line"/>
      <point x="81" y="690"/>
      <point x="126" y="690" type="line"/>
      <point x="355" y="690" type="line"/>
      <point x="369" y="691"/>
      <point x="385" y="709" type="line"/>
      <point x="410" y="745" type="line"/>
      <point x="417" y="754"/>
      <point x="426" y="745" type="line"/>
      <point x="495" y="684"/>
      <point x="494" y="669" type="line"/>
      <point x="492" y="661"/>
      <point x="479" y="660" type="line"/>
      <point x="319" y="660" type="line"/>
      <point x="290" y="627"/>
      <point x="261" y="597" type="line"/>
    </contour>
    <contour>
      <point x="342" y="531"/>
      <point x="343" y="541" type="line"/>
      <point x="344" y="550"/>
      <point x="360" y="545" type="line"/>
      <point x="404" y="535"/>
      <point x="453" y="505" type="line"/>
      <point x="488" y="486"/>
      <point x="501" y="455" type="line"/>
      <point x="512" y="434"/>
      <point x="505" y="415" type="line"/>
      <point x="499" y="396"/>
      <point x="493" y="394" type="line"/>
      <point x="487" y="391"/>
      <point x="472" y="406" type="line"/>
      <point x="452" y="443"/>
      <point x="406" y="485" type="line"/>
      <point x="377" y="510"/>
      <point x="354" y="525" type="line"/>
    </contour>
    <contour>
      <point x="550" y="422"/>
      <point x="557" y="423" type="line"/>
      <point x="565" y="424"/>
      <point x="566" y="414" type="line"/>
      <point x="582" y="331"/>
      <point x="572" y="282" type="line"/>
      <point x="564" y="231"/>
      <point x="534" y="195" type="line"/>
      <point x="521" y="180"/>
      <point x="507" y="179" type="line"/>
      <point x="492" y="179"/>
      <point x="485" y="186" type="line"/>
      <point x="478" y="193"/>
      <point x="477" y="208" type="line"/>
      <point x="477" y="222"/>
      <point x="489" y="234" type="line"/>
      <point x="521" y="268"/>
      <point x="535" y="300" type="line"/>
      <point x="551" y="336"/>
      <point x="550" y="413" type="line"/>
    </contour>
    <contour>
      <point x="661" y="705"/>
      <point x="665" y="711" type="line"/>
      <point x="671" y="717"/>
      <point x="681" y="708" type="line"/>
      <point x="744" y="667"/>
      <point x="774" y="631" type="line"/>
      <point x="795" y="609"/>
      <point x="796" y="589" type="line"/>
      <point x="797" y="569"/>
      <point x="781" y="542" type="line"/>
      <point x="769" y="520"/>
      <point x="757" y="521" type="line"/>
      <point x="747" y="521"/>
      <point x="746" y="540" type="line"/>
      <point x="738" y="590"/>
      <point x="718" y="626" type="line"/>
      <point x="698" y="659"/>
      <point x="665" y="698" type="line"/>
    </contour>
    <contour>
      <point x="847" y="386"/>
      <point x="853" y="390" type="line"/>
      <point x="858" y="395"/>
      <point x="868" y="385" type="line"/>
      <point x="928" y="314"/>
      <point x="952" y="261" type="line"/>
      <point x="971" y="227"/>
      <point x="967" y="202" type="line"/>
      <point x="965" y="183"/>
      <point x="943" y="159" type="line"/>
      <point x="927" y="140"/>
      <point x="915" y="143" type="line"/>
      <point x="907" y="146"/>
      <point x="908" y="164" type="line"/>
      <point x="909" y="227"/>
      <point x="891" y="276" type="line"/>
      <point x="877" y="321"/>
      <point x="851" y="378" type="line"/>
    </contour>
    <contour>
      <point x="615" y="505"/>
      <point x="612" y="535" type="line"/>
      <point x="611" y="551"/>
      <point x="621" y="548" type="line"/>
      <point x="674" y="531"/>
      <point x="695" y="520" type="line"/>
      <point x="704" y="515"/>
      <point x="695" y="509" type="line"/>
      <point x="674" y="493"/>
      <point x="670" y="489" type="line"/>
      <point x="663" y="482"/>
      <point x="663" y="467" type="line"/>
      <point x="663" y="141" type="line"/>
      <point x="750" y="270"/>
      <point x="809" y="458" type="line"/>
      <point x="844" y="571"/>
      <point x="850" y="700" type="line"/>
      <point x="850" y="710"/>
      <point x="853" y="713" type="line"/>
      <point x="856" y="715"/>
      <point x="866" y="711" type="line"/>
      <point x="908" y="693"/>
      <point x="940" y="675" type="line"/>
      <point x="950" y="670"/>
      <point x="949" y="666" type="line"/>
      <point x="948" y="663"/>
      <point x="942" y="660" type="line"/>
      <point x="915" y="646"/>
      <point x="911" y="641" type="line"/>
      <point x="900" y="630"/>
      <point x="889" y="582" type="line"/>
      <point x="858" y="460"/>
      <point x="812" y="336" type="line"/>
      <point x="760" y="190"/>
      <point x="663" y="81" type="line"/>
      <point x="663" y="-46" type="line"/>
      <point x="664" y="-66"/>
      <point x="671" y="-73" type="line"/>
      <point x="679" y="-82"/>
      <point x="691" y="-82" type="line"/>
      <point x="809" y="-82" type="line"/>
      <point x="825" y="-82"/>
      <point x="834" y="-76" type="line"/>
      <point x="844" y="-69"/>
      <point x="853" y="-48" type="line"/>
      <point x="869" y="-5"/>
      <point x="887" y="92" type="line"/>
      <point x="889" y="104"/>
      <point x="898" y="103" type="line"/>
      <point x="907" y="101"/>
      <point x="906" y="91" type="line"/>
      <point x="896" y="5"/>
      <point x="902" y="-34" type="line"/>
      <point x="906" y="-56"/>
      <point x="918" y="-63" type="line"/>
      <point x="921" y="-66"/>
      <point x="920" y="-70" type="line"/>
      <point x="909" y="-100"/>
      <point x="892" y="-112" type="line"/>
      <point x="870" y="-129"/>
      <point x="837" y="-129" type="line"/>
      <point x="667" y="-129" type="line"/>
      <point x="647" y="-129"/>
      <point x="632" y="-113" type="line"/>
      <point x="616" y="-99"/>
      <point x="616" y="-57" type="line"/>
      <point x="616" y="33" type="line"/>
      <point x="514" y="-65"/>
      <point x="387" y="-134" type="line"/>
      <point x="370" y="-143"/>
      <point x="366" y="-133" type="line"/>
      <point x="362" y="-123"/>
      <point x="372" y="-117" type="line"/>
      <point x="502" y="-42"/>
      <point x="616" y="85" type="line"/>
      <point x="616" y="467" type="line"/>
    </contour>
    <contour>
      <point x="241" y="277" type="line"/>
      <point x="154" y="277" type="line"/>
      <point x="113" y="276"/>
      <point x="83" y="271" type="line"/>
      <point x="75" y="268"/>
      <point x="72" y="276" type="line"/>
      <point x="68" y="294"/>
      <point x="54" y="306" type="line"/>
      <point x="47" y="313"/>
      <point x="50" y="316" type="line"/>
      <point x="54" y="319"/>
      <point x="61" y="315" type="line"/>
      <point x="98" y="308"/>
      <point x="143" y="308" type="line"/>
      <point x="396" y="308" type="line"/>
      <point x="401" y="308"/>
      <point x="407" y="314" type="line"/>
      <point x="442" y="354" type="line"/>
      <point x="449" y="361"/>
      <point x="456" y="354" type="line"/>
      <point x="481" y="329"/>
      <point x="499" y="308" type="line"/>
      <point x="510" y="294"/>
      <point x="503" y="284" type="line"/>
      <point x="498" y="278"/>
      <point x="485" y="277" type="line"/>
      <point x="288" y="277" type="line"/>
      <point x="288" y="147" type="line"/>
      <point x="348" y="147" type="line"/>
      <point x="368" y="147"/>
      <point x="378" y="157" type="line"/>
      <point x="410" y="194" type="line"/>
      <point x="417" y="202"/>
      <point x="424" y="195" type="line"/>
      <point x="449" y="172"/>
      <point x="465" y="147" type="line"/>
      <point x="476" y="132"/>
      <point x="473" y="125" type="line"/>
      <point x="469" y="118"/>
      <point x="456" y="117" type="line"/>
      <point x="288" y="117" type="line"/>
      <point x="288" y="-46" type="line"/>
      <point x="357" y="-29"/>
      <point x="469" y="4" type="line"/>
      <point x="483" y="8"/>
      <point x="486" y="-5" type="line"/>
      <point x="486" y="-19"/>
      <point x="471" y="-22" type="line"/>
      <point x="248" y="-98"/>
      <point x="146" y="-129" type="line"/>
      <point x="104" y="-139"/>
      <point x="92" y="-157" type="line"/>
      <point x="85" y="-165"/>
      <point x="81" y="-165" type="line"/>
      <point x="77" y="-166"/>
      <point x="74" y="-157" type="line"/>
      <point x="64" y="-132"/>
      <point x="44" y="-113" type="line"/>
      <point x="33" y="-103"/>
      <point x="34" y="-100" type="line"/>
      <point x="35" y="-96"/>
      <point x="126" y="-84" type="line"/>
      <point x="126" y="94" type="line"/>
      <point x="125" y="132"/>
      <point x="122" y="162" type="line"/>
      <point x="121" y="178"/>
      <point x="131" y="175" type="line"/>
      <point x="183" y="158"/>
      <point x="200" y="149" type="line"/>
      <point x="214" y="141"/>
      <point x="198" y="134" type="line"/>
      <point x="184" y="126"/>
      <point x="180" y="116" type="line"/>
      <point x="173" y="104"/>
      <point x="173" y="94" type="line"/>
      <point x="173" y="-75" type="line"/>
      <point x="207" y="-67"/>
      <point x="241" y="-58" type="line"/>
    </contour>
  </outline>
</glyph>
<glyph name="u3001D" format="2">
  <advance width="1000"/>
  <unicode hex="3001D"/>
  <outline>
    <contour>
      <point x="463" y="-13"/>
      <point x="497" y="-2" type="line"/>
      <point x="512" y="2"/>
      <point x="513" y="-7" type="line"/>
      <point x="515" y="-19"/>
      <point x="499" y="-22" type="line"/>
      <point x="307" y="-88"/>
      <point x="153" y="-126" type="line"/>
      <point x="112" y="-136"/>
      <point x="100" y="-154" type="line"/>
      <point x="94" y="-162"/>
      <point x="90" y="-163" type="line"/>
      <point x="86" y="-164"/>
      <point x="82" y="-155" type="line"/>
      <point x="72" y="-130"/>
      <point x="52" y="-111" type="line"/>
      <point x="40" y="-102"/>
      <point x="41" y="-99" type="line"/>
      <point x="43" y="-95"/>
      <point x="53" y="-95" type="line"/>
      <point x="88" y="-89"/>
      <point x="130" y="-82" type="line"/>
      <point x="130" y="208" type="line"/>
      <point x="130" y="262"/>
      <point x="123" y="307" type="line"/>
      <point x="122" y="318"/>
      <point x="126" y="319" type="line"/>
      <point x="131" y="321"/>
      <point x="138" y="313" type="line"/>
      <point x="147" y="300"/>
      <point x="171" y="281" type="line"/>
      <point x="338" y="281" type="line"/>
      <point x="344" y="282"/>
      <point x="348" y="286" type="line"/>
      <point x="370" y="312" type="line"/>
      <point x="376" y="319"/>
      <point x="383" y="313" type="line"/>
      <point x="415" y="290"/>
      <point x="442" y="266" type="line"/>
      <point x="451" y="258"/>
      <point x="441" y="255" type="line"/>
      <point x="425" y="252"/>
      <point x="418" y="242" type="line"/>
      <point x="411" y="232"/>
      <point x="411" y="214" type="line"/>
      <point x="411" y="-22" type="line"/>
    </contour>
    <contour>
      <point x="177" y="35" type="line"/>
      <point x="177" y="-72" type="line"/>
      <point x="276" y="-57"/>
      <point x="364" y="-35" type="line"/>
      <point x="364" y="35" type="line"/>
    </contour>
    <contour>
      <point x="364" y="65" type="line"/>
      <point x="364" y="146" type="line"/>
      <point x="177" y="146" type="line"/>
      <point x="177" y="65" type="line"/>
    </contour>
    <contour>
      <point x="177" y="177" type="line"/>
      <point x="364" y="177" type="line"/>
      <point x="364" y="251" type="line"/>
      <point x="177" y="251" type="line"/>
    </contour>
    <contour>
      <point x="524" y="-117" type="line"/>
      <point x="483" y="-118"/>
      <point x="453" y="-124" type="line"/>
      <point x="445" y="-127"/>
      <point x="442" y="-118" type="line"/>
      <point x="438" y="-101"/>
      <point x="424" y="-89" type="line"/>
      <point x="417" y="-82"/>
      <point x="420" y="-78" type="line"/>
      <point x="424" y="-75"/>
      <point x="431" y="-79" type="line"/>
      <point x="468" y="-87"/>
      <point x="513" y="-87" type="line"/>
      <point x="545" y="-87" type="line"/>
      <point x="545" y="210" type="line"/>
      <point x="545" y="264"/>
      <point x="538" y="309" type="line"/>
      <point x="537" y="320"/>
      <point x="541" y="321" type="line"/>
      <point x="546" y="323"/>
      <point x="553" y="314" type="line"/>
      <point x="563" y="302"/>
      <point x="586" y="283" type="line"/>
      <point x="745" y="283" type="line"/>
      <point x="751" y="284"/>
      <point x="755" y="288" type="line"/>
      <point x="777" y="313" type="line"/>
      <point x="783" y="321"/>
      <point x="790" y="315" type="line"/>
      <point x="822" y="292"/>
      <point x="850" y="268" type="line"/>
      <point x="858" y="260"/>
      <point x="849" y="257" type="line"/>
      <point x="832" y="254"/>
      <point x="825" y="244" type="line"/>
      <point x="818" y="234"/>
      <point x="818" y="216" type="line"/>
      <point x="818" y="-87" type="line"/>
      <point x="846" y="-87" type="line"/>
      <point x="852" y="-87"/>
      <point x="857" y="-80" type="line"/>
      <point x="893" y="-40" type="line"/>
      <point x="899" y="-33"/>
      <point x="906" y="-40" type="line"/>
      <point x="932" y="-65"/>
      <point x="949" y="-87" type="line"/>
      <point x="960" y="-101"/>
      <point x="953" y="-110" type="line"/>
      <point x="948" y="-116"/>
      <point x="936" y="-117" type="line"/>
    </contour>
    <contour>
      <point x="592" y="-87" type="line"/>
      <point x="771" y="-87" type="line"/>
      <point x="771" y="26" type="line"/>
      <point x="592" y="26" type="line"/>
    </contour>
    <contour>
      <point x="592" y="57" type="line"/>
      <point x="771" y="57" type="line"/>
      <point x="771" y="144" type="line"/>
      <point x="592" y="144" type="line"/>
    </contour>
    <contour>
      <point x="592" y="174" type="line"/>
      <point x="771" y="174" type="line"/>
      <point x="771" y="253" type="line"/>
      <point x="592" y="253" type="line"/>
    </contour>
    <contour>
      <point x="159" y="356" type="line"/>
      <point x="118" y="355"/>
      <point x="88" y="350" type="line"/>
      <point x="80" y="347"/>
      <point x="77" y="355" type="line"/>
      <point x="73" y="373"/>
      <point x="59" y="385" type="line"/>
      <point x="52" y="392"/>
      <point x="55" y="396" type="line"/>
      <point x="59" y="398"/>
      <point x="65" y="395" type="line"/>
      <point x="103" y="387"/>
      <point x="147" y="387" type="line"/>
      <point x="258" y="387" type="line"/>
      <point x="258" y="653" type="line"/>
      <point x="258" y="707"/>
      <point x="251" y="752" type="line"/>
      <point x="250" y="764"/>
      <point x="254" y="765" type="line"/>
      <point x="259" y="767"/>
      <point x="266" y="758" type="line"/>
      <point x="275" y="745"/>
      <point x="299" y="727" type="line"/>
      <point x="653" y="727" type="line"/>
      <point x="659" y="728"/>
      <point x="663" y="731" type="line"/>
      <point x="686" y="757" type="line"/>
      <point x="691" y="765"/>
      <point x="698" y="759" type="line"/>
      <point x="730" y="735"/>
      <point x="758" y="711" type="line"/>
      <point x="767" y="703"/>
      <point x="757" y="700" type="line"/>
      <point x="740" y="697"/>
      <point x="733" y="688" type="line"/>
      <point x="727" y="678"/>
      <point x="727" y="659" type="line"/>
      <point x="727" y="387" type="line"/>
      <point x="832" y="387" type="line"/>
      <point x="838" y="387"/>
      <point x="844" y="394" type="line"/>
      <point x="879" y="434" type="line"/>
      <point x="886" y="440"/>
      <point x="893" y="434" type="line"/>
      <point x="918" y="408"/>
      <point x="936" y="387" type="line"/>
      <point x="946" y="373"/>
      <point x="939" y="363" type="line"/>
      <point x="935" y="357"/>
      <point x="922" y="356" type="line"/>
    </contour>
    <contour>
      <point x="305" y="387" type="line"/>
      <point x="680" y="387" type="line"/>
      <point x="680" y="485" type="line"/>
      <point x="305" y="485" type="line"/>
    </contour>
    <contour>
      <point x="305" y="516" type="line"/>
      <point x="680" y="516" type="line"/>
      <point x="680" y="589" type="line"/>
      <point x="305" y="589" type="line"/>
    </contour>
    <contour>
      <point x="305" y="619" type="line"/>
      <point x="680" y="619" type="line"/>
      <point x="680" y="696" type="line"/>
      <point x="305" y="696" type="line"/>
    </contour>
  </outline>
</glyph>
<glyph name="u3001E" format="2">
  <advance width="1000"/>
  <unicode hex="3001E"/>
  <outline>
    <contour>
      <point x="786" y="698" type="line"/>
      <point x="792" y="698"/>
      <point x="795" y="701" type="line"/>
      <point x="818" y="728" type="line"/>
      <point x="824" y="737"/>
      <point x="834" y="728" type="line"/>
      <point x="865" y="707"/>
      <point x="890" y="686" type="line"/>
      <point x="895" y="678"/>
      <point x="894" y="674" type="line"/>
      <point x="892" y="669"/>
      <point x="880" y="669" type="line"/>
      <point x="869" y="670"/>
      <point x="862" y="661" type="line"/>
      <point x="853" y="649"/>
      <point x="852" y="632" type="line"/>
      <point x="837" y="-79" type="line"/>
      <point x="852" y="-79" type="line"/>
      <point x="857" y="-79"/>
      <point x="863" y="-72" type="line"/>
      <point x="898" y="-32" type="line"/>
      <point x="905" y="-25"/>
      <point x="912" y="-32" type="line"/>
      <point x="938" y="-58"/>
      <point x="955" y="-79" type="line"/>
      <point x="966" y="-93"/>
      <point x="959" y="-103" type="line"/>
      <point x="954" y="-108"/>
      <point x="941" y="-109" type="line"/>
      <point x="540" y="-109" type="line"/>
      <point x="499" y="-110"/>
      <point x="469" y="-116" type="line"/>
      <point x="461" y="-119"/>
      <point x="458" y="-110" type="line"/>
      <point x="454" y="-93"/>
      <point x="439" y="-81" type="line"/>
      <point x="433" y="-74"/>
      <point x="436" y="-70" type="line"/>
      <point x="439" y="-67"/>
      <point x="446" y="-71" type="line"/>
      <point x="483" y="-79"/>
      <point x="528" y="-79" type="line"/>
      <point x="586" y="-79" type="line"/>
      <point x="608" y="305" type="line"/>
      <point x="567" y="304"/>
      <point x="537" y="298" type="line"/>
      <point x="528" y="295"/>
      <point x="527" y="304" type="line"/>
      <point x="522" y="321"/>
      <point x="508" y="334" type="line"/>
      <point x="500" y="341"/>
      <point x="504" y="345" type="line"/>
      <point x="508" y="348"/>
      <point x="515" y="344" type="line"/>
      <point x="552" y="335"/>
      <point x="597" y="335" type="line"/>
      <point x="611" y="335" type="line"/>
      <point x="632" y="668" type="line"/>
      <point x="593" y="668" type="line"/>
      <point x="552" y="667"/>
      <point x="521" y="661" type="line"/>
      <point x="513" y="658"/>
      <point x="512" y="667" type="line"/>
      <point x="507" y="685"/>
      <point x="492" y="697" type="line"/>
      <point x="484" y="704"/>
      <point x="488" y="708" type="line"/>
      <point x="492" y="711"/>
      <point x="499" y="707" type="line"/>
      <point x="536" y="698"/>
      <point x="581" y="698" type="line"/>
    </contour>
    <contour>
      <point x="679" y="668" type="line"/>
      <point x="658" y="335" type="line"/>
      <point x="794" y="335" type="line"/>
      <point x="802" y="668" type="line"/>
    </contour>
    <contour>
      <point x="633" y="-79" type="line"/>
      <point x="785" y="-79" type="line"/>
      <point x="793" y="305" type="line"/>
      <point x="656" y="305" type="line"/>
    </contour>
    <contour>
      <point x="367" y="257"/>
      <point x="370" y="261" type="line"/>
      <point x="388" y="288" type="line"/>
      <point x="395" y="296"/>
      <point x="401" y="289" type="line"/>
      <point x="430" y="271"/>
      <point x="457" y="249" type="line"/>
      <point x="466" y="241"/>
      <point x="465" y="237" type="line"/>
      <point x="463" y="232"/>
      <point x="456" y="229" type="line"/>
      <point x="431" y="217"/>
      <point x="430" y="210" type="line"/>
      <point x="428" y="204"/>
      <point x="428" y="197" type="line"/>
      <point x="428" y="-41" type="line"/>
      <point x="428" y="-76"/>
      <point x="434" y="-136" type="line"/>
      <point x="435" y="-146"/>
      <point x="429" y="-147" type="line"/>
      <point x="387" y="-162"/>
      <point x="383" y="-161" type="line"/>
      <point x="381" y="-160"/>
      <point x="381" y="-150" type="line"/>
      <point x="381" y="-94" type="line"/>
      <point x="150" y="-94" type="line"/>
      <point x="150" y="-136" type="line"/>
      <point x="150" y="-144"/>
      <point x="145" y="-145" type="line"/>
      <point x="125" y="-152"/>
      <point x="106" y="-161" type="line"/>
      <point x="98" y="-164"/>
      <point x="99" y="-149" type="line"/>
      <point x="103" y="-88"/>
      <point x="104" y="56" type="line"/>
      <point x="104" y="200" type="line"/>
      <point x="103" y="235"/>
      <point x="99" y="280" type="line"/>
      <point x="97" y="292"/>
      <point x="101" y="293" type="line"/>
      <point x="104" y="294"/>
      <point x="110" y="287" type="line"/>
      <point x="122" y="274"/>
      <point x="146" y="257" type="line"/>
      <point x="361" y="257" type="line"/>
    </contour>
    <contour>
      <point x="285" y="70" type="line"/>
      <point x="285" y="-63" type="line"/>
      <point x="381" y="-63" type="line"/>
      <point x="381" y="70" type="line"/>
    </contour>
    <contour>
      <point x="150" y="70" type="line"/>
      <point x="150" y="-63" type="line"/>
      <point x="238" y="-63" type="line"/>
      <point x="238" y="70" type="line"/>
    </contour>
    <contour>
      <point x="238" y="227" type="line"/>
      <point x="150" y="227" type="line"/>
      <point x="150" y="101" type="line"/>
      <point x="238" y="101" type="line"/>
    </contour>
    <contour>
      <point x="285" y="101" type="line"/>
      <point x="381" y="101" type="line"/>
      <point x="381" y="227" type="line"/>
      <point x="285" y="227" type="line"/>
    </contour>
    <contour>
      <point x="223" y="476" type="line"/>
      <point x="223" y="445" type="line"/>
      <point x="111" y="445" type="line"/>
      <point x="111" y="476" type="line"/>
    </contour>
    <contour>
      <point x="223" y="382" type="line"/>
      <point x="223" y="352" type="line"/>
      <point x="107" y="352" type="line"/>
      <point x="107" y="382" type="line"/>
    </contour>
    <contour>
      <point x="354" y="706"/>
      <point x="357" y="709" type="line"/>
      <point x="363" y="713"/>
      <point x="370" y="722" type="line"/>
      <point x="394" y="756" type="line"/>
      <point x="401" y="765"/>
      <point x="408" y="756" type="line"/>
      <point x="437" y="730"/>
      <point x="464" y="703" type="line"/>
      <point x="475" y="691"/>
      <point x="474" y="685" type="line"/>
      <point x="472" y="677"/>
      <point x="459" y="676" type="line"/>
      <point x="289" y="676" type="line"/>
      <point x="289" y="585" type="line"/>
      <point x="414" y="585" type="line"/>
      <point x="424" y="585"/>
      <point x="428" y="591" type="line"/>
      <point x="455" y="620" type="line"/>
      <point x="458" y="624"/>
      <point x="462" y="624" type="line"/>
      <point x="466" y="624"/>
      <point x="469" y="620" type="line"/>
      <point x="499" y="589"/>
      <point x="517" y="565" type="line"/>
      <point x="524" y="554"/>
      <point x="510" y="553" type="line"/>
      <point x="493" y="549"/>
      <point x="478" y="542" type="line"/>
      <point x="468" y="536"/>
      <point x="455" y="523" type="line"/>
      <point x="442" y="509"/>
      <point x="435" y="493" type="line"/>
      <point x="429" y="483"/>
      <point x="424" y="476" type="line"/>
      <point x="424" y="445" type="line"/>
      <point x="313" y="445" type="line"/>
      <point x="313" y="476" type="line"/>
      <point x="402" y="476" type="line"/>
      <point x="406" y="486"/>
      <point x="408" y="499" type="line"/>
      <point x="414" y="531"/>
      <point x="420" y="555" type="line"/>
      <point x="289" y="555" type="line"/>
      <point x="289" y="522" type="line"/>
      <point x="289" y="400"/>
      <point x="293" y="317" type="line"/>
      <point x="293" y="309"/>
      <point x="286" y="308" type="line"/>
      <point x="243" y="290" type="line"/>
      <point x="234" y="288"/>
      <point x="235" y="304" type="line"/>
      <point x="241" y="434"/>
      <point x="242" y="522" type="line"/>
      <point x="242" y="555" type="line"/>
      <point x="118" y="555" type="line"/>
      <point x="117" y="540"/>
      <point x="116" y="527" type="line"/>
      <point x="108" y="485"/>
      <point x="91" y="464" type="line"/>
      <point x="76" y="449"/>
      <point x="62" y="450" type="line"/>
      <point x="48" y="452"/>
      <point x="41" y="459" type="line"/>
      <point x="34" y="467"/>
      <point x="34" y="481" type="line"/>
      <point x="36" y="495"/>
      <point x="49" y="507" type="line"/>
      <point x="67" y="522"/>
      <point x="80" y="549" type="line"/>
      <point x="92" y="576"/>
      <point x="95" y="617" type="line"/>
      <point x="96" y="626"/>
      <point x="103" y="626" type="line"/>
      <point x="110" y="627"/>
      <point x="111" y="617" type="line"/>
      <point x="115" y="601"/>
      <point x="116" y="585" type="line"/>
      <point x="242" y="585" type="line"/>
      <point x="242" y="676" type="line"/>
      <point x="188" y="676" type="line"/>
      <point x="161" y="676"/>
      <point x="128" y="669" type="line"/>
      <point x="123" y="668"/>
      <point x="122" y="671" type="line"/>
      <point x="109" y="690"/>
      <point x="100" y="706" type="line"/>
      <point x="94" y="716"/>
      <point x="106" y="713" type="line"/>
      <point x="166" y="707"/>
      <point x="173" y="706" type="line"/>
      <point x="342" y="706" type="line"/>
    </contour>
    <contour>
      <point x="432" y="382" type="line"/>
      <point x="432" y="352" type="line"/>
      <point x="313" y="352" type="line"/>
      <point x="313" y="382" type="line"/>
    </contour>
  </outline>
</glyph>
